<?xml version="1.0" encoding="utf-8"?>
<!DOCTYPE svg PUBLIC "-//W3C//DTD SVG 1.1//EN" "http://www.w3.org/Graphics/SVG/1.1/DTD/svg11.dtd">
<svg id="onlyAuthorAnysvg" version="1.1" xmlns="http://www.w3.org/2000/svg" xmlns:xlink="http://www.w3.org/1999/xlink" x="0px" y="0px" width="28px"
	 height="28px" viewBox="0 0 28 28" enable-background="new 0 0 28 28" xml:space="preserve">
<g>
	<g>
		<g>
			<path d="M23.391,14.003c0-0.37,0.264-0.677,0.609-0.747c-0.031-0.38-0.075-0.753-0.148-1.117c-0.352,0.02-0.68-0.209-0.781-0.566
				c-0.094-0.358,0.078-0.723,0.398-0.881c-0.125-0.359-0.264-0.705-0.43-1.043c-0.336,0.116-0.719-0.02-0.906-0.342
				c-0.182-0.322-0.11-0.718,0.156-0.953c-0.211-0.312-0.442-0.609-0.685-0.893c-0.296,0.194-0.698,0.162-0.958-0.098
				c-0.264-0.264-0.295-0.664-0.1-0.961c-0.289-0.245-0.578-0.475-0.891-0.689c-0.234,0.268-0.637,0.342-0.961,0.156
				c-0.314-0.186-0.45-0.566-0.336-0.906c-0.338-0.162-0.686-0.305-1.043-0.432c-0.159,0.322-0.525,0.495-0.887,0.4
				c-0.353-0.098-0.586-0.43-0.561-0.786C15.501,4.076,15.127,4.027,14.746,4C14.68,4.346,14.368,4.608,14,4.608
				S13.323,4.346,13.254,4c-0.38,0.027-0.754,0.075-1.119,0.145c0.022,0.357-0.209,0.688-0.565,0.784
				c-0.359,0.096-0.723-0.078-0.882-0.397c-0.356,0.125-0.704,0.266-1.041,0.43C9.761,5.3,9.625,5.683,9.306,5.867
				c-0.321,0.185-0.72,0.111-0.954-0.154C8.041,5.925,7.743,6.152,7.458,6.399c0.195,0.297,0.162,0.699-0.099,0.959
				c-0.261,0.261-0.663,0.294-0.96,0.1C6.155,7.742,5.925,8.037,5.712,8.35c0.264,0.234,0.339,0.635,0.156,0.955
				C5.683,9.625,5.3,9.76,4.961,9.646c-0.163,0.335-0.304,0.686-0.43,1.041c0.319,0.158,0.493,0.524,0.398,0.882
				c-0.094,0.355-0.428,0.587-0.785,0.563C4.076,12.5,4.028,12.871,4,13.252c0.348,0.071,0.609,0.38,0.609,0.746
				c0,0.369-0.261,0.676-0.609,0.752c0.027,0.375,0.075,0.748,0.145,1.113c0.357-0.02,0.691,0.211,0.785,0.566
				c0.094,0.357-0.079,0.723-0.398,0.879c0.126,0.357,0.267,0.703,0.43,1.043c0.338-0.111,0.722,0.021,0.906,0.344
				c0.185,0.318,0.109,0.719-0.156,0.955c0.212,0.311,0.441,0.607,0.688,0.891c0.296-0.195,0.699-0.166,0.958,0.098
				C7.617,20.9,7.651,21.303,7.457,21.6c0.286,0.24,0.583,0.475,0.895,0.688c0.234-0.271,0.631-0.34,0.952-0.154
				c0.319,0.184,0.455,0.566,0.341,0.904c0.335,0.164,0.686,0.307,1.041,0.43c0.158-0.318,0.524-0.494,0.881-0.396
				c0.358,0.096,0.587,0.43,0.562,0.781c0.369,0.072,0.742,0.117,1.122,0.146c0.07-0.344,0.379-0.609,0.746-0.609
				c0.371,0.002,0.678,0.266,0.75,0.611c0.376-0.031,0.746-0.076,1.121-0.148c-0.024-0.352,0.205-0.684,0.562-0.781
				c0.353-0.098,0.722,0.078,0.884,0.396c0.354-0.123,0.703-0.264,1.037-0.43c-0.113-0.338,0.021-0.719,0.344-0.904
				c0.32-0.184,0.718-0.111,0.955,0.156c0.311-0.215,0.607-0.443,0.891-0.686c-0.194-0.297-0.164-0.701,0.099-0.959
				c0.263-0.262,0.662-0.295,0.96-0.1c0.246-0.287,0.48-0.582,0.688-0.893c-0.27-0.234-0.34-0.635-0.155-0.957
				c0.185-0.318,0.573-0.451,0.901-0.34c0.168-0.336,0.311-0.686,0.43-1.041c-0.313-0.162-0.484-0.525-0.391-0.885
				c0.095-0.354,0.428-0.586,0.781-0.566c0.07-0.361,0.117-0.736,0.146-1.111C23.654,14.676,23.391,14.371,23.391,14.003z
				 M14,22.422c-4.651,0-8.42-3.77-8.42-8.422c0-4.651,3.769-8.42,8.42-8.42s8.422,3.769,8.422,8.42
				C22.422,18.652,18.651,22.422,14,22.422z"/>
		</g>
		<g>
			<g>
				<path d="M13.021,12.292c0.437,1.246,1.319,2.284,2.456,2.931l3.146-5.848L13.021,12.292z"/>
				<path d="M12.559,12.822L9.5,18.5l5.479-2.852C13.905,14.986,13.051,13.998,12.559,12.822z"/>
			</g>
		</g>
	</g>
</g>
</svg>
