<?xml version="1.0" encoding="utf-8"?>
<!DOCTYPE svg PUBLIC "-//W3C//DTD SVG 1.1//EN" "http://www.w3.org/Graphics/SVG/1.1/DTD/svg11.dtd">
<svg version="1.1" xmlns="http://www.w3.org/2000/svg" xmlns:xlink="http://www.w3.org/1999/xlink" x="0px" y="0px" width="18px"
	 height="18px" viewBox="0 0 18 18" enable-background="new 0 0 18 18" xml:space="preserve">
<g id="D">
	<path fill="#EA7649" d="M9,1C4.58,1,1,4.58,1,9c0,2.14,0.84,4.08,2.21,5.52C4.67,16.05,6.72,17,9,17s4.33-0.95,5.79-2.48
		C16.16,13.08,17,11.14,17,9C17,4.58,13.42,1,9,1z M14.14,13.74c-1.26-1.4-3.09-2.271-5.14-2.271s-3.88,0.87-5.14,2.271
		C2.7,12.49,2,10.84,2,9c0-3.87,3.13-7,7-7s7,3.13,7,7C16,10.84,15.3,12.49,14.14,13.74z"/>
	<circle fill="#EA7649" cx="9" cy="7" r="2"/>
</g>
</svg>
