<?xml version="1.0" encoding="utf-8"?>
<!DOCTYPE svg PUBLIC "-//W3C//DTD SVG 1.1//EN" "http://www.w3.org/Graphics/SVG/1.1/DTD/svg11.dtd">
<svg version="1.1" xmlns="http://www.w3.org/2000/svg" xmlns:xlink="http://www.w3.org/1999/xlink" x="0px" y="0px" width="40px"
	 height="30px" viewBox="0 0 40 30" enable-background="new 0 0 40 30" xml:space="preserve">
<g id="delka">
	<path fill="#B5BDC6" d="M31.396,2.309L3.041,17.14c-0.975,0.51-1.355,1.724-0.846,2.699l3.708,7.089
		c0.51,0.975,1.724,1.355,2.699,0.846l28.356-14.831c0.974-0.509,1.354-1.725,0.845-2.699l-3.708-7.089
		C33.586,2.18,32.371,1.799,31.396,2.309z M7.594,21.529c0.255,0.487,0.064,1.095-0.422,1.35c-0.488,0.255-1.096,0.064-1.35-0.423
		l-1.854-3.544c-0.255-0.487-0.064-1.095,0.423-1.35c0.486-0.255,1.095-0.064,1.35,0.423L7.594,21.529z M10.252,20.139l-0.886,0.464
		l-1.854-3.544l0.886-0.464L10.252,20.139z M12.91,18.749l-0.886,0.463l-1.854-3.544l0.886-0.464L12.91,18.749z M16.455,16.895
		c0.255,0.488,0.064,1.096-0.423,1.35c-0.487,0.256-1.095,0.064-1.349-0.422l-1.854-3.545c-0.255-0.487-0.064-1.095,0.423-1.35
		c0.486-0.255,1.095-0.064,1.35,0.423L16.455,16.895z M19.113,15.505l-0.886,0.463l-1.854-3.544l0.886-0.464L19.113,15.505z
		 M21.771,14.114l-0.886,0.463l-1.854-3.544l0.886-0.463L21.771,14.114z M25.316,12.26c0.255,0.487,0.064,1.095-0.423,1.35
		c-0.487,0.254-1.095,0.064-1.35-0.423L21.69,9.643c-0.255-0.487-0.065-1.095,0.423-1.35c0.486-0.255,1.095-0.064,1.35,0.423
		L25.316,12.26z M27.975,10.87l-0.887,0.463l-1.854-3.544l0.887-0.464L27.975,10.87z M30.633,9.479l-0.886,0.464l-1.854-3.545
		l0.886-0.463L30.633,9.479z M34.178,7.626c0.255,0.487,0.064,1.095-0.423,1.35s-1.095,0.064-1.35-0.423l-1.854-3.544
		c-0.255-0.487-0.065-1.095,0.423-1.35c0.486-0.255,1.095-0.065,1.35,0.422L34.178,7.626z"/>
</g>
</svg>
