<?xml version="1.0" encoding="utf-8"?>
<!DOCTYPE svg PUBLIC "-//W3C//DTD SVG 1.1//EN" "http://www.w3.org/Graphics/SVG/1.1/DTD/svg11.dtd">
<svg version="1.1" xmlns="http://www.w3.org/2000/svg" xmlns:xlink="http://www.w3.org/1999/xlink" x="0px" y="0px" width="40px"
	 height="30px" viewBox="0 0 40 30" enable-background="new 0 0 40 30" xml:space="preserve">
<g id="autori">
	<g>
		<path fill="#B5BDC6" d="M28.643,1.396l-0.752,0.658l-2.26,1.974l6.579,7.531l2.259-1.974l0.754-0.658
			c0.828-0.724,0.914-1.994,0.189-2.822l-3.947-4.519C30.741,0.757,29.471,0.672,28.643,1.396z"/>
		<path fill="#B5BDC6" d="M23.371,6.001L9.063,18.502l-1.695,4.137l-0.76,1.852l-0.09,0.218L5.58,26.995
			c-0.416,1.019,0.113,1.624,1.178,1.347l2.393-0.621l0.228-0.06l1.937-0.503l4.328-1.126l14.309-12.5l0.753-0.658l-6.579-7.531
			L23.371,6.001z M14.906,25.19l-4.328,1.125l-0.58-0.664l-1.316-1.507l-0.58-0.664l1.697-4.137L14.906,25.19z M27.882,12.684
			l-12.05,10.527l-0.657-0.754l12.05-10.527L27.882,12.684z M24.592,8.918L12.543,19.445l-0.658-0.754l12.05-10.526L24.592,8.918z"
			/>
	</g>
</g>
</svg>
