<?xml version="1.0" encoding="utf-8"?>
<!DOCTYPE svg PUBLIC "-//W3C//DTD SVG 1.1//EN" "http://www.w3.org/Graphics/SVG/1.1/DTD/svg11.dtd">
<svg version="1.1" xmlns="http://www.w3.org/2000/svg" xmlns:xlink="http://www.w3.org/1999/xlink" x="0px" y="0px" width="40px"
	 height="30px" viewBox="0 0 40 30" enable-background="new 0 0 40 30" xml:space="preserve">
<g id="nove">
	<g>
		<path fill="#B5BDC6" d="M20.448,24.295c-0.9-0.634-2.479-0.839-3.511-0.456l-5.879,2.178c-1.032,0.383-1.612-0.165-1.29-1.217
			l1.838-6c0.322-1.052,0.028-2.618-0.654-3.481l-3.887-4.921c-0.682-0.863-0.34-1.583,0.76-1.599l6.277-0.094
			c1.1-0.017,2.499-0.779,3.109-1.694l3.483-5.229c0.61-0.916,1.4-0.813,1.755,0.228l2.032,5.945
			c0.355,1.041,1.513,2.136,2.572,2.433l6.045,1.694c1.06,0.297,1.206,1.08,0.326,1.741l-5.015,3.764
			c-0.88,0.66-1.564,2.1-1.521,3.198l0.243,6.271c0.043,1.099-0.658,1.48-1.558,0.847L20.448,24.295z"/>
	</g>
</g>
</svg>
