<?xml version="1.0" encoding="utf-8"?>
<!DOCTYPE svg PUBLIC "-//W3C//DTD SVG 1.1//EN" "http://www.w3.org/Graphics/SVG/1.1/DTD/svg11.dtd">
<svg version="1.1" xmlns="http://www.w3.org/2000/svg" xmlns:xlink="http://www.w3.org/1999/xlink" x="0px" y="0px" width="40px"
	 height="30px" viewBox="0 0 40 30" enable-background="new 0 0 40 30" xml:space="preserve">
<g id="neabsolvovane">
	<g>
		<g>
			<path fill="#B5BDC6" d="M14.159,6.837c-0.712,0-1.381,0.217-1.928,0.582l-0.018,0.018l-0.59,0.504l-7.408,6.366l-0.061,0.052
				C2.833,15.47,2,17.137,2,18.995c0,3.361,2.718,6.079,6.079,6.079c2.649,0,4.898-1.693,5.732-4.056l0.078-0.217l3.465-9.145
				l0.086-0.226c0.122-0.356,0.191-0.729,0.191-1.121C17.632,8.392,16.078,6.837,14.159,6.837z M8.079,23.338
				c-2.396,0-4.342-1.945-4.342-4.343c0-1.493,0.764-2.822,1.911-3.604c0.694-0.46,1.528-0.738,2.431-0.738
				c2.397,0,4.342,1.946,4.342,4.342c0,0.339-0.043,0.669-0.113,0.99C11.857,21.904,10.138,23.338,8.079,23.338z"/>
			<path fill="#B5BDC6" d="M18.223,7.931c0,0.217-0.035,0.434-0.087,0.625c-0.573-1.286-1.746-2.241-3.162-2.51
				c0.313-0.182,0.687-0.287,1.077-0.287C17.25,5.76,18.223,6.732,18.223,7.931z"/>
		</g>
		<g>
			<path fill="#B5BDC6" d="M22.287,10.311c0,0.391,0.07,0.764,0.191,1.121l0.086,0.226l3.466,9.145l0.078,0.217
				c0.834,2.362,3.084,4.056,5.732,4.056c3.361,0,6.079-2.718,6.079-6.079c0-1.858-0.834-3.525-2.153-4.637l-0.062-0.052
				L28.297,7.94l-0.59-0.504l-0.018-0.018c-0.547-0.364-1.217-0.582-1.928-0.582C23.842,6.837,22.287,8.392,22.287,10.311z
				 M27.611,19.985c-0.069-0.321-0.113-0.651-0.113-0.99c0-2.396,1.946-4.342,4.343-4.342c0.903,0,1.736,0.278,2.432,0.738
				c1.146,0.782,1.91,2.111,1.91,3.604c0,2.397-1.945,4.343-4.342,4.343C29.782,23.338,28.063,21.904,27.611,19.985z"/>
			<path fill="#B5BDC6" d="M21.696,7.931c0,0.217,0.036,0.434,0.088,0.625c0.573-1.286,1.746-2.241,3.16-2.51
				C24.633,5.864,24.26,5.76,23.867,5.76C22.67,5.76,21.696,6.732,21.696,7.931z"/>
		</g>
		<path fill="#B5BDC6" d="M23.33,12c-0.388-1-1.733-2.604-3.35-2.604c-1.616,0-2.962,1.604-3.351,2.604H13v8.559
			c2-1.303,4.068-2.059,6.483-2.059c2.431,0,4.517,0.765,6.517,2.085V12H23.33z M19.98,16.953c-0.959,0-1.737-0.777-1.737-1.737
			s0.777-1.737,1.737-1.737c0.959,0,1.737,0.778,1.737,1.737S20.939,16.953,19.98,16.953z"/>
	</g>
</g>
</svg>
