<?xml version="1.0" encoding="utf-8"?>
<!DOCTYPE svg PUBLIC "-//W3C//DTD SVG 1.1//EN" "http://www.w3.org/Graphics/SVG/1.1/DTD/svg11.dtd">
<svg version="1.1" id="multiday" xmlns="http://www.w3.org/2000/svg" xmlns:xlink="http://www.w3.org/1999/xlink" x="0px" y="0px"
	 width="16px" height="16px" viewBox="0 0 16 16" enable-background="new 0 0 16 16" xml:space="preserve">
<g>
	<path fill="#0D9CFF" d="M5,3.601C5,3.821,4.776,4,4.5,4l0,0C4.224,4,4,3.821,4,3.601V1.202c0-0.221,0.224-0.399,0.5-0.399l0,0
		c0.276,0,0.5,0.179,0.5,0.399V3.601z"/>
	<path fill="#0D9CFF" d="M12,3.601C12,3.821,11.776,4,11.5,4l0,0C11.224,4,11,3.821,11,3.601V1.202c0-0.221,0.224-0.399,0.5-0.399
		l0,0c0.276,0,0.5,0.179,0.5,0.399V3.601z"/>
	<g>
		<path fill="#0D9CFF" d="M4.5,4C4.776,4,5,3.821,5,3.601V2H4v1.601C4,3.821,4.224,4,4.5,4z"/>
		<path fill="#0D9CFF" d="M11.5,4C11.776,4,12,3.821,12,3.601V2h-1v1.601C11,3.821,11.224,4,11.5,4z"/>
		<path fill="#0D9CFF" d="M13,2v1.601C13,4.372,12.327,5,11.5,5S10,4.372,10,3.601V2H6v1.601C6,4.372,5.327,5,4.5,5S3,4.372,3,3.601
			V2C1.897,2,1,2.897,1,4v10c0,1.103,0.897,2,2,2h10c1.103,0,2-0.897,2-2V4C15,2.897,14.103,2,13,2z M14,14c0,0.55-0.45,1-1,1H3
			c-0.55,0-1-0.45-1-1V6h12V14z"/>
	</g>
	<g>
		<rect x="4.154" y="7.72" fill="#0D9CFF" width="2" height="2"/>
		<rect x="4.154" y="10.72" fill="#0D9CFF" width="2" height="2"/>
		<rect x="10.154" y="7.72" fill="#0D9CFF" width="2" height="2"/>
		<rect x="7.154" y="7.72" fill="#0D9CFF" width="2" height="2"/>
		<rect x="7.154" y="10.72" fill="#0D9CFF" width="2" height="2"/>
	</g>
</g>
</svg>
