<?xml version="1.0" encoding="utf-8"?>
<!DOCTYPE svg PUBLIC "-//W3C//DTD SVG 1.1//EN" "http://www.w3.org/Graphics/SVG/1.1/DTD/svg11.dtd">
<svg version="1.1" id="slope" xmlns="http://www.w3.org/2000/svg" xmlns:xlink="http://www.w3.org/1999/xlink" x="0px" y="0px"
	 width="16px" height="16px" viewBox="0 0 16 16" enable-background="new 0 0 16 16" xml:space="preserve">
<g>
	<g>
		<path fill="#FFFFFF" d="M2.084,15c-1.1,0-1.55-0.924-1-1.877L7,2.804c0.55-0.953,1.45-0.989,2-0.036l5.916,10.373
			c0.55,0.953,0.1,1.859-1,1.859H2.084z"/>
		<path fill="none" stroke="#ED001B" stroke-miterlimit="10" d="M2.084,14.5c-1.1,0-1.55-0.674-1-1.627L7,2.679
			c0.55-0.953,1.45-0.926,2,0.026l5.916,10.154c0.55,0.953,0.1,1.641-1,1.641H2.084z"/>
	</g>
	<polygon points="2.509,14 12.583,8.5 15.109,14 	"/>
	<g>
		<path fill="none" stroke="#ED001B" stroke-miterlimit="10" d="M2.084,14.5c-1.1,0-1.55-0.674-1-1.627L7,2.679
			c0.55-0.953,1.45-0.926,2,0.026l5.916,10.154c0.55,0.953,0.1,1.641-1,1.641H2.084z"/>
	</g>
	<path d="M7.95,8.376c0.081,0.15,0.093,0.291,0.036,0.422C7.93,8.929,7.825,9.035,7.673,9.117C7.549,9.184,7.418,9.195,7.281,9.153
		C7.143,9.111,7.04,9.027,6.973,8.901L6.688,8.37c-0.08-0.15-0.092-0.294-0.033-0.432c0.058-0.125,0.163-0.229,0.316-0.312
		C7.094,7.561,7.223,7.55,7.359,7.592c0.137,0.043,0.238,0.127,0.307,0.254L7.95,8.376z M7.582,8.472L7.376,8.087
		c-0.081-0.15-0.179-0.196-0.292-0.135C6.98,8.008,6.969,8.111,7.05,8.262l0.206,0.385c0.081,0.15,0.178,0.195,0.291,0.135
		C7.65,8.726,7.663,8.622,7.582,8.472z M8.528,6.813l0.02,3.673l-0.369,0.197L8.164,6.986L8.528,6.813z M10.078,9.074
		c0.08,0.15,0.092,0.291,0.033,0.423c-0.058,0.132-0.162,0.237-0.315,0.319C9.672,9.883,9.542,9.894,9.404,9.851
		C9.269,9.807,9.166,9.723,9.101,9.6L8.814,9.066C8.735,8.919,8.726,8.777,8.784,8.64c0.053-0.127,0.155-0.231,0.309-0.313
		c0.123-0.066,0.255-0.078,0.393-0.035c0.139,0.043,0.241,0.126,0.307,0.25L10.078,9.074z M9.71,9.17L9.504,8.787
		c-0.08-0.15-0.177-0.194-0.29-0.134C9.109,8.709,9.098,8.812,9.178,8.962l0.206,0.384c0.081,0.149,0.177,0.193,0.29,0.133
		C9.778,9.423,9.791,9.32,9.71,9.17z"/>
</g>
</svg>
