<?xml version="1.0" encoding="utf-8"?>
<!DOCTYPE svg PUBLIC "-//W3C//DTD SVG 1.1//EN" "http://www.w3.org/Graphics/SVG/1.1/DTD/svg11.dtd">
<svg version="1.1" id="transport" xmlns="http://www.w3.org/2000/svg" xmlns:xlink="http://www.w3.org/1999/xlink" x="0px" y="0px"
	 width="16px" height="16px" viewBox="0 0 16 16" enable-background="new 0 0 16 16" xml:space="preserve">
<path fill="#006B23" d="M13.354,5.21C11.629,1.785,10.93,2,10.65,2h-5.3C5.052,2,4.526,1.787,2.675,5.199
	C1.743,5.621,1,6.669,1,7.664v1.987c0,1.112,0,2.063,2,2.293v2.156C3,14.598,3.387,15,4,15c0.612,0,1-0.402,1-0.899V12h6v2.101
	C11,14.598,11.389,15,12,15c0.607,0,1-0.402,1-0.899v-2.156c2-0.231,2-1.181,2-2.293V7.664C15,6.68,14.272,5.642,13.354,5.21z
	 M5.48,3h5.08c0.283,0,0.849,0.928,1.417,2h-7.9C4.654,3.938,5.213,3,5.48,3z M3.811,9.569c-0.8,0-1.448-0.647-1.448-1.448
	c0-0.799,0.648-1.448,1.448-1.448s1.448,0.649,1.448,1.448C5.259,8.922,4.61,9.569,3.811,9.569z M12.19,9.569
	c-0.801,0-1.449-0.647-1.449-1.448c0-0.799,0.648-1.448,1.449-1.448c0.8,0,1.448,0.649,1.448,1.448
	C13.639,8.922,12.99,9.569,12.19,9.569z"/>
</svg>
