<?xml version="1.0" encoding="utf-8"?>
<!DOCTYPE svg PUBLIC "-//W3C//DTD SVG 1.1//EN" "http://www.w3.org/Graphics/SVG/1.1/DTD/svg11.dtd">
<svg version="1.1" id="transport" xmlns="http://www.w3.org/2000/svg" xmlns:xlink="http://www.w3.org/1999/xlink" x="0px" y="0px"
	 width="16px" height="16px" viewBox="0 0 16 16" enable-background="new 0 0 16 16" xml:space="preserve">
<g>
	<path fill="#006B23" d="M12.488,5H3.51C2.229,5,1,6.383,1,7.664v1.987c0,1.112,0,2.063,2,2.293v2.156C3,14.598,3.387,15,4,15
		c0.612,0,1-0.402,1-0.899V12h6v2.101C11,14.598,11.389,15,12,15c0.607,0,1-0.402,1-0.899v-2.156c2-0.231,2-1.181,2-2.293V7.664
		C15,6.383,13.771,5,12.488,5z M3.811,9.569c-0.8,0-1.448-0.647-1.448-1.448c0-0.799,0.648-1.448,1.448-1.448
		s1.448,0.649,1.448,1.448C5.259,8.922,4.61,9.569,3.811,9.569z M12.19,9.569c-0.801,0-1.449-0.647-1.449-1.448
		c0-0.799,0.648-1.448,1.449-1.448c0.8,0,1.448,0.649,1.448,1.448C13.639,8.922,12.99,9.569,12.19,9.569z"/>
	<g>
		<defs>
			<rect id="SVGID_1_" x="-0.724" y="-1.016" width="17.447" height="6.992"/>
		</defs>
		<clipPath id="SVGID_2_">
			<use xlink:href="#SVGID_1_"  overflow="visible"/>
		</clipPath>
		<path clip-path="url(#SVGID_2_)" fill="none" stroke="#006B23" stroke-width="1.1251" stroke-miterlimit="10" d="M5.352,10.405
			L2.705,6.361c0,0,2.074-4.045,2.646-4.045c0.573,0,4.555,0,5.294,0c0.74,0,2.648,4.045,2.648,4.045l-2.648,4.044H5.352z"/>
	</g>
</g>
</svg>
