<?xml version="1.0" encoding="utf-8"?>
<!DOCTYPE svg PUBLIC "-//W3C//DTD SVG 1.1//EN" "http://www.w3.org/Graphics/SVG/1.1/DTD/svg11.dtd">
<svg version="1.1" id="timelimit" xmlns="http://www.w3.org/2000/svg" xmlns:xlink="http://www.w3.org/1999/xlink" x="0px" y="0px"
	 width="16px" height="16px" viewBox="0 0 16 16" enable-background="new 0 0 16 16" xml:space="preserve">
<g>
	<rect x="12" y="2.892" transform="matrix(0.7069 0.7073 -0.7073 0.7069 6.3554 -8.5541)" fill="#F10071" width="3" height="1"/>
	<path fill="#F10071" d="M9,2.558V2h1V1H6v1h1v0.558c-1.419,0.212-2.696,0.86-3.684,1.81l1.144,1.129
		C5.385,4.621,6.626,4.075,8,4.075c2.851,0,5.162,2.312,5.162,5.163c0,2.852-2.311,5.162-5.162,5.162
		c-2.852,0-5.163-2.311-5.163-5.162c0-0.082,0.015-0.159,0.024-0.238h1.115L1.988,6.275L0,9h1.25
		C1.247,9.08,1.238,9.158,1.238,9.238C1.238,12.973,4.266,16,8,16c3.734,0,6.761-3.027,6.761-6.762
		C14.762,5.844,12.259,3.042,9,2.558z"/>
	<path fill="#F10071" d="M8,5.059C8,6.532,8,7.766,8,9c1.313,0,2.628,0,3.941,0C11.941,6.823,10.177,5.059,8,5.059z"/>
</g>
</svg>
