<?xml version="1.0" encoding="utf-8"?>
<!DOCTYPE svg PUBLIC "-//W3C//DTD SVG 1.1//EN" "http://www.w3.org/Graphics/SVG/1.1/DTD/svg11.dtd">
<svg version="1.1" id="warning" xmlns="http://www.w3.org/2000/svg" xmlns:xlink="http://www.w3.org/1999/xlink" x="0px" y="0px"
	 width="16px" height="16px" viewBox="0 0 16 16" enable-background="new 0 0 16 16" xml:space="preserve">
<g>
	<path fill="#FFD112" d="M2.084,15c-1.1,0-1.55-0.924-1-1.877L7,2.804c0.55-0.953,1.45-0.989,2-0.036l5.916,10.373
		c0.55,0.953,0.1,1.859-1,1.859H2.084z"/>
	<path fill="none" stroke="#0C0F14" stroke-miterlimit="10" d="M2.084,14.5c-1.1,0-1.55-0.674-1-1.627L7,2.679
		c0.55-0.953,1.45-0.926,2,0.026l5.916,10.154c0.55,0.953,0.1,1.641-1,1.641H2.084z"/>
</g>
<g>
	<path d="M7.6,10.34L6.939,6.499C6.928,6.435,6.923,6.37,6.923,6.306c0-0.551,0.36-0.827,1.08-0.827c0.721,0,1.08,0.274,1.08,0.822
		c0,0.075-0.006,0.142-0.016,0.199L8.405,10.34H7.6z M8.002,11.129c0.631,0,0.945,0.314,0.945,0.945S8.633,13.02,8.002,13.02
		s-0.945-0.314-0.945-0.945S7.372,11.129,8.002,11.129z"/>
</g>
</svg>
