<?xml version="1.0" encoding="utf-8"?>
<!DOCTYPE svg PUBLIC "-//W3C//DTD SVG 1.1//EN" "http://www.w3.org/Graphics/SVG/1.1/DTD/svg11.dtd">
<svg version="1.1" xmlns="http://www.w3.org/2000/svg" xmlns:xlink="http://www.w3.org/1999/xlink" x="0px" y="0px" width="14px"
	 height="14px" viewBox="0 0 14 14" enable-background="new 0 0 14 14" xml:space="preserve">
<g>
	<path fill-rule="evenodd" clip-rule="evenodd" fill="#2e6b2e" d="M8.03,0.191C8.046,0.232,8.083,0.22,8.109,0.219
		c0.266-0.018,0.53,0.011,0.792,0.033c0.414,0.035,0.827,0.075,1.239,0.12c0.426,0.047,0.848,0.109,1.271,0.171
		c0.403,0.059,0.801,0.158,1.203,0.225c0.289,0.048,0.555,0.137,0.782,0.328c0.35,0.293,0.569,0.654,0.588,1.121
		c0.005,0.15-0.002,0.301,0.001,0.452c0.002,0.069-0.01,0.102-0.091,0.102c-0.401,0-0.798,0.408-0.792,0.819
		c0.015,1.06,0.009,2.117,0.003,3.177c-0.003,0.387,0.336,0.779,0.752,0.791c0.091,0.003,0.13,0.034,0.129,0.135
		c-0.003,1.018,0.006,2.038-0.006,3.055c-0.005,0.322-0.165,0.6-0.375,0.842c-0.276,0.318-0.637,0.477-1.046,0.539
		c-0.181,0.027-0.358,0.072-0.537,0.102c-0.047,0.01-0.062,0.025-0.058,0.066c0.047,0.418-0.104,0.775-0.382,1.068
		c-0.254,0.266-0.578,0.418-0.961,0.441c-0.436,0.025-0.813-0.107-1.128-0.396c-0.198-0.182-0.333-0.414-0.394-0.682
		c-0.021-0.086-0.035-0.107-0.136-0.105c-0.19,0.008-0.378,0.027-0.567,0.037c-0.769,0.041-1.539,0.027-2.308,0.021
		c-0.435-0.006-0.868-0.047-1.301-0.078c-0.12-0.01-0.161,0.031-0.191,0.143c-0.159,0.563-0.529,0.912-1.101,1.027
		c-0.559,0.113-1.043-0.039-1.423-0.469c-0.263-0.299-0.37-0.658-0.34-1.057c0.003-0.043,0.014-0.059-0.046-0.072
		C1.5,12.142,1.314,12.099,1.13,12.05c-0.507-0.139-0.824-0.482-1.021-0.953c-0.084-0.203-0.107-0.412-0.106-0.629
		C0.004,9.552,0.005,8.634,0,7.717c-0.001-0.126,0.056-0.153,0.16-0.159C0.559,7.535,0.906,7.165,0.907,6.76
		c0-1.067,0.002-2.135-0.001-3.203C0.904,3.178,0.568,2.8,0.138,2.771C0.036,2.764,0.001,2.741,0,2.635
		c-0.004-0.353,0.007-0.7,0.184-1.021c0.252-0.46,0.628-0.746,1.151-0.837c0.466-0.082,0.93-0.178,1.396-0.258
		c0.283-0.049,0.57-0.077,0.855-0.114C3.864,0.37,4.14,0.333,4.417,0.303c0.117-0.012,0.236-0.02,0.354-0.026
		c0.382-0.019,0.762-0.072,1.146-0.058c0.023,0,0.054,0.006,0.064-0.028C6.666,0.191,7.349,0.191,8.03,0.191z M8.48,5.119
		c0,0.377,0,0.754,0,1.129c0,0.124,0.004,0.245,0.024,0.367C8.59,7.117,9.039,7.606,9.629,7.588
		c0.539-0.017,1.081-0.005,1.621-0.002c0.292,0.002,0.538-0.111,0.74-0.308c0.255-0.249,0.371-0.566,0.375-0.917
		c0.006-0.744,0.003-1.489,0.001-2.233c0-0.145-0.003-0.287-0.021-0.433c-0.071-0.561-0.537-1.034-1.159-1.034
		c-0.509,0-1.019,0-1.528,0c-0.113,0-0.226,0.021-0.335,0.048c-0.53,0.138-0.835,0.678-0.841,1.148
		C8.477,4.278,8.48,4.699,8.48,5.119z M7.767,5.131c0-0.164,0.004-0.328-0.002-0.492C7.755,4.291,7.805,3.94,7.74,3.595
		C7.646,3.101,7.235,2.667,6.666,2.663c-0.501-0.004-1.001-0.004-1.502,0C4.848,2.667,4.572,2.78,4.365,3.021
		C4.151,3.27,4.043,3.569,4.041,3.897c-0.003,0.793,0,1.585-0.001,2.379c0,0.208,0.036,0.405,0.104,0.601
		c0.125,0.354,0.575,0.735,1.005,0.715c0.53-0.026,1.063-0.007,1.595-0.007c0.04,0,0.081,0.004,0.119-0.003
		c0.56-0.107,0.892-0.634,0.902-1.107C7.774,6.027,7.767,5.579,7.767,5.131z M3.327,5.124c0-0.527-0.007-1.054,0.001-1.581
		c0.008-0.406-0.185-0.668-0.541-0.829c-0.28-0.126-0.754-0.018-0.939,0.214C1.693,3.123,1.619,3.343,1.62,3.592
		c0.002,1.037,0.001,2.073,0.001,3.108c0,0.579,0.525,0.995,1.076,0.858c0.336-0.082,0.64-0.438,0.632-0.788
		C3.318,6.221,3.327,5.673,3.327,5.124z"/>
</g>
</svg>
