<?xml version="1.0" encoding="utf-8"?>
<!DOCTYPE svg PUBLIC "-//W3C//DTD SVG 1.1//EN" "http://www.w3.org/Graphics/SVG/1.1/DTD/svg11.dtd">
<svg version="1.1" id="mapy.cz" xmlns="http://www.w3.org/2000/svg" xmlns:xlink="http://www.w3.org/1999/xlink" x="0px" y="0px"
	 width="200px" height="40px" viewBox="0 0 200 40" enable-background="new 0 0 200 40" xml:space="preserve">
<g>
	<path fill-rule="evenodd" clip-rule="evenodd" fill="#3C3F46" d="M168.343,36.084c-2.053,0.069-4.52-0.209-6.991-0.399
		c-2.269-0.175-4.271-0.872-5.486-2.948c-0.536-0.915-1.107-0.528-1.699-0.197c-1.518,0.852-3.101,1.545-4.736,2.14
		c-4.467,1.624-8.731,1.483-12.307-1.94c-3.763-3.606-4.667-8.187-3.093-13.014c2.192-6.722,7.541-9.655,14.13-10.731
		c1.271-0.207,2.598-0.101,3.896-0.086c0.958,0.012,1.85,0.341,2.563,0.968c0.896,0.786,1.785,1.654,1.17,3.021
		c-0.507,1.123-3.152,2.436-4.069,1.91c-0.555-0.32-1.012-0.387-1.552-0.265c-3.975,0.902-7.41,2.762-10.148,5.818
		c-0.663,0.74-1.188,1.583-1.522,2.534c-0.863,2.456,0.293,4.268,2.883,4.337c3.661,0.097,7.302-0.338,10.951-0.553
		c2.369-0.138,4.479-0.786,6.614-1.892c4.068-2.105,8.387-3.687,12.721-5.193c0.993-0.346,1.988-0.711,2.928-1.179
		c0.932-0.464,2.633-0.603,2.261-1.961c-0.378-1.379-2.006-1.17-3.235-1.037c-2.218,0.241-4.421,0.607-6.642,0.821
		c-1.418,0.136-3.139,0.693-3.804-1.242c-0.529-1.532,1.132-4.506,2.649-5.031c1.898-0.657,3.904-0.694,5.872-0.839
		c3.546-0.26,7.063-0.005,10.426,1.31c1.161,0.455,2.255,1.034,3.178,1.888c2.407,2.229,2.157,5.056-0.608,6.791
		c-2.083,1.308-4.492,1.736-6.79,2.457c-3.9,1.227-7.848,2.327-11.499,4.213c-0.892,0.461-2.277,0.885-2.073,2.074
		c0.205,1.217,1.627,1.104,2.644,1.219c5.731,0.657,11.366-0.491,17.032-0.974c2.821-0.242,5.557-0.081,8.24,0.885
		c1.271,0.458,1.222,0.967,0.269,1.723c-3.114,2.472-6.834,3.484-10.61,4.188C177.576,35.706,173.192,36.152,168.343,36.084z"/>
	<path fill-rule="evenodd" clip-rule="evenodd" fill="#3C3F46" d="M76.666,14.037c-2.754,0.017-4.995-0.009-6.908,1.461
		c-0.716,0.551-1.409,0.281-2.032-0.221c-0.793-0.642-1.281-1.504-1.647-2.437c-0.518-1.322-0.177-2.208,1.207-2.797
		c3.976-1.694,8.083-1.675,12.243-1.083c4.196,0.598,8.238,1.758,12.066,3.586c3,1.435,5.146,3.646,5.878,6.995
		c0.617,2.822-0.342,4.499-3.063,5.486c-2.062,0.75-4.244,0.839-6.381,1.181c-2.449,0.393-2.455,0.414-2.15,2.813
		c0.211,1.667,0.306,3.341,0.126,5.009c-0.266,2.443-1.335,2.859-3.477,1.809c-2.863-1.403-3.234-3.915-3.185-6.576
		c0.033-1.823-0.523-2.414-2.341-2.048c-1.634,0.332-3.324,0.368-4.978,0.616c-2.107,0.315-2.384,0.9-1.459,2.879
		c0.524,1.121,1.155,2.198,1.591,3.352c0.331,0.876,0.483,1.948-0.439,2.549c-0.964,0.628-1.611-0.281-2.192-0.868
		c-1.655-1.676-3.308-3.359-4.857-5.13c-0.909-1.038-1.911-1.44-3.264-1.308c-2.651,0.262-5.308,0.494-7.968,0.636
		c-1.655,0.087-2.799,0.804-3.581,2.233c-0.476,0.868-0.987,1.722-1.559,2.528c-0.423,0.598-0.594,1.944-1.428,1.557
		c-0.972-0.453-1.955-1.413-1.859-2.776c0.037-0.535,0.235-1.104,0.508-1.57c0.632-1.076,0.948-1.845-0.088-3.098
		c-1.293-1.564,0.387-4.825,2.377-5.03c1.177-0.123,1.922-0.662,2.448-1.698c2.155-4.254,4.42-8.453,6.326-12.83
		c0.747-1.716,1.532-1.885,2.563-0.33c2.157,3.251,4.273,6.539,6.202,9.928c1.285,2.259,2.881,3.32,5.555,3.017
		c2.392-0.268,4.828-0.193,7.245-0.179c1.078,0.007,1.626-0.314,1.613-1.453c-0.005-0.487,0.102-0.989,0.239-1.461
		c0.509-1.746,1.73-2.193,3.269-1.195c1.071,0.694,1.848,1.689,2.333,2.836c0.421,1,1.043,1.267,2.027,1.05
		c1.025-0.225,2.106-0.284,3.08-0.641c1.603-0.589,1.76-1.653,0.504-2.786c-0.887-0.801-1.97-1.282-3.074-1.699
		C84.273,14.885,80.276,14.124,76.666,14.037z M58.719,16.647c-1.138,1.95-2.065,3.529-2.983,5.114
		c-0.163,0.279-0.252,0.734,0.057,0.812c1.535,0.382,3.074,0.133,4.595-0.16c0.526-0.102,0.453-0.517,0.312-0.872
		C60.112,20.058,59.504,18.583,58.719,16.647z"/>
	<path fill-rule="evenodd" clip-rule="evenodd" fill="#3C3F46" d="M44.61,13.491c-0.284,3.012-0.731,7.388-1.093,11.771
		c-0.168,2.035-0.161,4.084-0.249,6.127c-0.046,1.058-0.25,2.089-0.661,3.071c-0.31,0.738-0.557,1.592-1.552,1.636
		c-0.914,0.041-1.225-0.74-1.579-1.378c-1.412-2.548-2.039-5.295-2.083-8.198c-0.035-2.354-0.108-4.706-0.208-7.058
		c-0.016-0.396,0.052-0.957-0.408-1.151c-0.508-0.215-0.745,0.325-1.037,0.605c-2.019,1.934-4.159,3.72-6.462,5.3
		c-2.33,1.601-3.548,1.229-4.48-1.411c-0.789-2.23-1.79-4.349-2.969-6.39c-0.238-0.413-0.405-1.098-0.943-1.023
		c-0.657,0.092-0.582,0.84-0.658,1.35c-0.891,5.904-2.485,11.576-4.777,17.122c-1.523,3.688-4.297,5.009-7.754,5.774
		c-1.155,0.255-0.976-0.37-0.729-1.002c0.516-1.328,1.079-2.636,1.637-3.946c3.419-8.032,5.863-16.313,6.258-25.093
		c0.086-1.914-0.04-3.839-0.104-5.758c-0.095-2.813,1.945-4.233,4.635-3.203c1.616,0.619,2.556,1.91,3.297,3.375
		c1.958,3.871,3.702,7.842,5.258,11.887c0.506,1.318,0.92,1.507,1.978,0.524c3.38-3.139,6.57-6.411,8.327-10.795
		c0.205-0.51,0.334-1.107,1.147-0.697C42.426,6.458,44.999,7.898,44.61,13.491z"/>
	<path fill-rule="evenodd" clip-rule="evenodd" fill="#3C3F46" d="M98.427,15.572c0.003-2.153,0.467-4.227,2.044-5.92
		c0.335-0.359,0.691-0.805,1.251-0.615c0.638,0.216,0.704,0.81,0.67,1.383c-0.078,1.359-0.245,2.716-0.262,4.076
		c-0.032,2.565,1.099,3.87,3.681,3.85c5.385-0.04,9.977-2.095,13.782-5.906c0.742-0.743,1.406-1.586,2.232-2.22
		c1.172-0.899,1.91-0.576,2.271,0.837c1.083,4.208-1.461,10.059-5.282,12.089c-2.591,1.377-5.316,2.446-8.263,2.596
		c-1.815,0.093-2.176,0.746-1.999,2.486c0.271,2.641,0.153,5.323-0.414,7.945c-0.219,1.006-0.386,2.324-1.672,2.381
		c-1.187,0.052-1.973-0.934-2.467-1.985c-1.317-2.81-1.275-5.909-1.803-8.882c-0.385-2.16-0.47-4.268-2.213-6.054
		C98.476,20.087,98.47,17.78,98.427,15.572z"/>
	<path fill-rule="evenodd" clip-rule="evenodd" fill="#3C3F46" d="M127.185,35.738c-2.055-0.04-3.407-1.478-3.385-3.594
		c0.024-2.236,1.679-3.886,3.865-3.852c2.013,0.029,3.604,1.692,3.55,3.713C131.16,34.098,129.343,35.78,127.185,35.738z"/>
</g>
</svg>
