<?xml version="1.0" encoding="utf-8"?>
<!DOCTYPE svg PUBLIC "-//W3C//DTD SVG 1.1//EN" "http://www.w3.org/Graphics/SVG/1.1/DTD/svg11.dtd">
<svg version="1.1" id="Äd" xmlns="http://www.w3.org/2000/svg" xmlns:xlink="http://www.w3.org/1999/xlink" x="0px" y="0px"
	 width="200px" height="40px" viewBox="0 0 200 40" enable-background="new 0 0 200 40" xml:space="preserve">
<g>
	<path fill-rule="evenodd" clip-rule="evenodd" fill="#3C3F46" d="M97.037,6.663c0.263,3.046-0.872,4.175-3.854,4.039
		c-3.371-0.154-6.777-0.347-10.162,0.269c-1.998,0.364-3.716,1.174-4.936,2.724c-3.751,4.772-5.161,10.294-4.428,16.248
		c0.417,3.383,3.312,5.7,7.017,5.733c11.21,0.1,22.421,0.062,33.632,0.008c2.591-0.013,5.056-0.888,6.547-3.058
		c4.658-6.781,6.463-14.371,5.207-22.484c-0.604-3.907-2.911-5.606-6.84-5.772c-3.844-0.163-7.7-0.003-11.549-0.12
		c-1.821-0.056-2.587,0.62-2.931,2.419c-1.021,5.323-2.221,10.612-3.354,15.913c-0.141,0.661-0.322,1.314-0.438,1.979
		c-0.361,2.078-1.989,1.546-3.208,1.405c-1.746-0.202-0.851-1.484-0.668-2.354c1.438-6.848,2.998-13.673,4.317-20.544
		c0.391-2.043,1.057-2.891,3.259-2.811c4.75,0.173,9.513-0.009,14.266,0.094c6.965,0.152,11.225,4.175,11.619,11.14
		c0.412,7.259-1.156,14.182-4.404,20.665c-2.499,4.989-6.62,7.571-12.285,7.566c-10.983-0.011-21.969,0.075-32.952-0.021
		c-6.844-0.06-11.158-4.402-11.466-11.249c-0.219-4.858,0.965-9.437,3.044-13.775c2.281-4.762,6.101-7.624,11.387-7.959
		C88.237,6.442,92.648,6.663,97.037,6.663z"/>
	<path fill-rule="evenodd" clip-rule="evenodd" fill="#3C3F46" d="M97.694,33.45c-4.98-0.001-9.963,0.079-14.941-0.021
		c-5.548-0.112-7.707-2.896-6.646-8.387c0.342-1.769,0.637-3.567,1.208-5.266c1.6-4.763,3.98-6.452,9.053-6.57
		c2.489-0.059,4.982-0.062,7.47,0.01c0.743,0.021,2.195-0.443,1.854,1.07c-0.247,1.098,0.215,2.97-1.953,2.938
		c-2.15-0.031-4.316,0.166-6.448-0.034c-3.58-0.334-5.571,1.287-6.363,4.635c-0.311,1.313-0.479,2.664-0.812,3.972
		c-0.613,2.404,0.307,3.307,2.739,3.292c10.074-0.059,20.148-0.062,30.222,0.009c1.977,0.013,3.229-0.731,3.973-2.49
		c1.779-4.205,2.781-8.574,2.889-13.155c0.044-1.849-0.757-2.741-2.568-2.796c-0.227-0.007-0.453-0.009-0.679-0.021
		c-6.105-0.33-6.109-0.331-7.437,5.615c-0.566,2.535-1.343,5.049-1.605,7.618c-0.248,2.408-1.738,2.382-3.313,2.119
		c-2.188-0.363-0.838-2.041-0.675-2.925c0.861-4.657,2.02-9.259,2.922-13.909c0.357-1.839,0.993-2.754,3.073-2.611
		c2.816,0.194,5.66-0.045,8.484,0.08c3.868,0.171,5.572,1.9,5.765,5.665c0.288,5.647-1.04,10.995-3.2,16.15
		c-1.418,3.383-4.069,5.013-7.729,5.014C107.882,33.452,102.788,33.452,97.694,33.45z"/>
	<path fill-rule="evenodd" clip-rule="evenodd" fill="#3C3F46" d="M98.818,0.32c-0.588,2.84-2.378,3.843-4.638,3.91
		c-4.383,0.13-8.773,0.049-13.161,0.041c-1-0.002-2.157,0.154-1.946-1.478c0.162-1.261,0.268-2.492,2.044-2.483
		C86.941,0.338,92.764,0.32,98.818,0.32z"/>
</g>
</svg>
