<?xml version="1.0" encoding="utf-8"?>
<!DOCTYPE svg PUBLIC "-//W3C//DTD SVG 1.1//EN" "http://www.w3.org/Graphics/SVG/1.1/DTD/svg11.dtd">
<svg version="1.1" id="ids_jmk" xmlns="http://www.w3.org/2000/svg" xmlns:xlink="http://www.w3.org/1999/xlink" x="0px" y="0px"
	 width="200px" height="40px" viewBox="0 0 200 40" enable-background="new 0 0 200 40" xml:space="preserve">
<g>
	<path fill-rule="evenodd" clip-rule="evenodd" fill="#3C3F46" d="M98.63,0.144c0.043,0.12,0.15,0.086,0.23,0.08
		c0.773-0.051,1.545,0.032,2.31,0.096c1.205,0.101,2.41,0.219,3.613,0.351c1.239,0.137,2.472,0.319,3.704,0.5
		c1.175,0.171,2.334,0.458,3.507,0.655c0.844,0.141,1.619,0.398,2.282,0.956c1.019,0.857,1.662,1.908,1.714,3.269
		c0.015,0.438-0.007,0.878,0.004,1.317c0.005,0.201-0.03,0.298-0.267,0.297c-1.17,0-2.324,1.188-2.309,2.388
		c0.043,3.088,0.025,6.176,0.009,9.266c-0.007,1.126,0.979,2.272,2.191,2.307c0.266,0.007,0.38,0.1,0.378,0.391
		c-0.009,2.971,0.017,5.944-0.02,8.915c-0.013,0.94-0.479,1.746-1.091,2.452c-0.809,0.933-1.855,1.389-3.051,1.572
		c-0.526,0.079-1.044,0.211-1.566,0.299c-0.137,0.024-0.182,0.072-0.167,0.196c0.134,1.217-0.304,2.257-1.114,3.109
		c-0.742,0.78-1.687,1.221-2.803,1.283c-1.269,0.075-2.37-0.305-3.288-1.15c-0.578-0.529-0.972-1.209-1.148-1.982
		c-0.058-0.257-0.104-0.317-0.396-0.309c-0.554,0.018-1.102,0.077-1.653,0.105c-2.243,0.121-4.487,0.082-6.73,0.061
		c-1.266-0.013-2.531-0.132-3.793-0.23c-0.349-0.024-0.468,0.095-0.559,0.418c-0.463,1.638-1.54,2.66-3.21,2.997
		c-1.628,0.33-3.042-0.116-4.148-1.367c-0.767-0.87-1.08-1.919-0.993-3.078c0.01-0.125,0.038-0.178-0.134-0.212
		c-0.546-0.102-1.088-0.223-1.624-0.368c-1.479-0.4-2.404-1.406-2.979-2.778c-0.246-0.587-0.311-1.202-0.309-1.832
		c0.004-2.674,0.008-5.349-0.008-8.024c-0.003-0.369,0.161-0.449,0.465-0.466c1.167-0.067,2.179-1.147,2.18-2.323
		c0.001-3.114,0.006-6.228-0.003-9.343c-0.003-1.107-0.983-2.207-2.239-2.291c-0.298-0.02-0.399-0.088-0.401-0.398
		c-0.011-1.029,0.021-2.041,0.537-2.975c0.737-1.342,1.833-2.175,3.356-2.442c1.359-0.239,2.71-0.52,4.07-0.752
		c0.826-0.141,1.663-0.225,2.495-0.331c0.807-0.104,1.613-0.212,2.422-0.3c0.342-0.036,0.689-0.06,1.031-0.077
		c1.115-0.054,2.225-0.209,3.343-0.168c0.072,0.003,0.16,0.02,0.191-0.081C94.649,0.144,96.639,0.144,98.63,0.144z M99.942,14.516
		c0,1.098-0.001,2.196,0.001,3.293c0,0.358,0.01,0.712,0.07,1.07c0.247,1.461,1.557,2.889,3.276,2.835
		c1.574-0.05,3.151-0.018,4.728-0.007c0.851,0.004,1.567-0.322,2.157-0.897c0.743-0.724,1.084-1.649,1.095-2.675
		c0.018-2.169,0.007-4.338,0.002-6.508c0-0.422-0.008-0.839-0.062-1.265c-0.209-1.634-1.566-3.012-3.38-3.013
		c-1.486-0.001-2.971,0-4.456-0.001c-0.332,0-0.658,0.061-0.976,0.142c-1.549,0.4-2.435,1.976-2.452,3.346
		C99.93,12.062,99.942,13.288,99.942,14.516z M97.86,14.548c0-0.477,0.014-0.956-0.002-1.434c-0.034-1.015,0.112-2.038-0.079-3.045
		c-0.271-1.44-1.472-2.704-3.13-2.719c-1.46-0.012-2.92-0.013-4.379,0.002c-0.92,0.01-1.727,0.341-2.329,1.043
		c-0.623,0.727-0.938,1.597-0.943,2.554c-0.01,2.313,0,4.626-0.004,6.938c-0.001,0.604,0.103,1.18,0.304,1.752
		c0.361,1.033,1.675,2.143,2.928,2.082c1.547-0.076,3.1-0.019,4.65-0.019c0.116,0,0.235,0.013,0.348-0.011
		c1.631-0.314,2.6-1.847,2.632-3.228C97.883,17.159,97.86,15.854,97.86,14.548z M84.912,14.527c0-1.538-0.02-3.074,0.007-4.609
		c0.021-1.183-0.541-1.948-1.578-2.418c-0.815-0.368-2.2-0.05-2.738,0.625c-0.452,0.566-0.669,1.208-0.667,1.937
		c0.008,3.021,0.003,6.043,0.003,9.064c-0.001,1.688,1.53,2.899,3.138,2.501c0.981-0.241,1.863-1.279,1.843-2.298
		C84.889,17.729,84.912,16.128,84.912,14.527z"/>
	<path fill-rule="evenodd" clip-rule="evenodd" fill="#3C3F46" d="M141.115,17.956c0.24-0.59,0.258-1.204,0.344-1.805
		c0.156-1.125,0.3-2.252,0.444-3.378c0.089-0.698,0.167-1.397,0.255-2.093c0.121-0.963,0.253-1.925,0.369-2.887
		c0.05-0.433,0.089-0.863,0.16-1.294c0.035-0.217,0.112-0.278,0.317-0.278c2.725,0.004,5.451,0.004,8.179,0
		c0.22,0,0.311,0.082,0.294,0.297c-0.011,0.09-0.002,0.18-0.002,0.271c0,8.218,0,16.435,0,24.654c0,0.533,0,0.533-0.555,0.533
		c-1.614,0-3.23-0.008-4.846,0.009c-0.34,0.003-0.428-0.093-0.438-0.434c-0.16-5.293-0.024-10.588-0.068-15.881
		c-0.003-0.126-0.013-0.252-0.1-0.384c-0.064,0.452-0.133,0.901-0.198,1.352c-0.125,0.923-0.252,1.846-0.371,2.769
		c-0.116,0.887-0.209,1.778-0.328,2.663c-0.142,1.051-0.304,2.098-0.445,3.146c-0.118,0.886-0.211,1.777-0.33,2.662
		c-0.141,1.05-0.296,2.097-0.444,3.146c-0.004,0.014-0.012,0.026-0.012,0.039c-0.01,0.305,0.057,0.71-0.185,0.859
		c-0.227,0.143-0.601,0.052-0.909,0.054c-0.944,0.003-1.887-0.004-2.83,0.005c-0.223,0.001-0.344-0.025-0.377-0.301
		c-0.102-0.849-0.249-1.689-0.37-2.537c-0.143-0.985-0.276-1.972-0.417-2.959c-0.143-0.995-0.292-1.993-0.437-2.991
		c-0.148-1.01-0.297-2.02-0.442-3.03c-0.14-0.986-0.272-1.972-0.412-2.958c-0.088-0.616-0.178-1.229-0.276-1.908
		c-0.143,0.208-0.095,0.375-0.095,0.531c-0.003,5.22-0.007,10.439,0.007,15.66c0.001,0.387-0.091,0.506-0.491,0.5
		c-1.641-0.023-3.281-0.018-4.925-0.005c-0.301,0.002-0.43-0.059-0.43-0.401c0.011-8.321,0.009-16.641,0.002-24.962
		c0-0.299,0.071-0.404,0.39-0.403c2.625,0.013,5.246,0.011,7.869,0.002c0.313-0.001,0.413,0.104,0.454,0.416
		c0.125,0.948,0.304,1.89,0.439,2.835c0.146,1.012,0.266,2.025,0.406,3.038c0.129,0.937,0.266,1.871,0.404,2.806
		C140.844,16.194,140.983,17.074,141.115,17.956z"/>
	<path fill-rule="evenodd" clip-rule="evenodd" fill="#3C3F46" d="M38.962,19.114c0-4.146,0.005-8.294-0.007-12.442
		c-0.001-0.356,0.093-0.459,0.455-0.457c2.454,0.016,4.91-0.041,7.364,0.026c1.541,0.042,3.099,0.094,4.571,0.678
		c1.653,0.657,2.607,1.869,2.906,3.611c0.13,0.762,0.132,1.532,0.161,2.302c0.163,4.311,0.048,8.623,0.052,12.935
		c0.001,1.015-0.058,2.045-0.287,3.052c-0.353,1.56-1.375,2.438-2.852,2.837c-0.865,0.237-1.759,0.325-2.661,0.324
		c-3.062-0.007-6.125-0.005-9.187-0.005c-0.514,0-0.514,0-0.514-0.496C38.962,27.358,38.963,23.236,38.962,19.114z M45.643,19.087
		c0,2.66,0,5.322,0,7.983c0,0.582,0.004,0.614,0.6,0.544c0.822-0.099,1.262-0.29,1.39-1.064c0.12-0.72,0.171-1.45,0.17-2.183
		c-0.003-3.862,0-7.724-0.005-11.585c-0.001-0.382-0.029-0.77-0.085-1.148c-0.06-0.402-0.281-0.713-0.663-0.883
		c-0.271-0.12-0.561-0.168-0.857-0.171c-0.549-0.005-0.55-0.004-0.55,0.527C45.643,13.766,45.643,16.428,45.643,19.087z"/>
	<path fill-rule="evenodd" clip-rule="evenodd" fill="#3C3F46" d="M160.935,21.26c-0.11,0.227-0.078,0.384-0.078,0.535
		c0,3.243-0.006,6.484,0.006,9.728c0.003,0.346-0.077,0.467-0.446,0.463c-1.938-0.018-3.878-0.016-5.814-0.001
		c-0.345,0.003-0.433-0.099-0.433-0.437c0.007-8.295,0.009-16.589-0.001-24.883c0-0.368,0.111-0.453,0.461-0.449
		c1.924,0.016,3.849,0.016,5.772,0c0.35-0.003,0.466,0.08,0.464,0.449c-0.016,2.945-0.009,5.891-0.009,8.836
		c0,0.146-0.028,0.298,0.075,0.503c0.316-1.032,0.618-2,0.912-2.973c0.434-1.442,0.858-2.887,1.286-4.332
		c0.2-0.673,0.406-1.344,0.587-2.022c0.089-0.335,0.237-0.47,0.614-0.465c1.794,0.025,3.59,0.017,5.386,0.006
		c0.337-0.003,0.397,0.083,0.288,0.401c-0.9,2.664-1.79,5.333-2.678,8.002c-0.326,0.983-0.631,1.972-0.97,2.951
		c-0.088,0.257-0.038,0.481,0.03,0.708c0.69,2.325,1.389,4.648,2.086,6.972c0.64,2.14,1.275,4.281,1.924,6.42
		c0.078,0.262,0.007,0.31-0.238,0.309c-2.079-0.007-4.159-0.007-6.239,0c-0.224,0-0.315-0.093-0.365-0.302
		c-0.824-3.319-1.654-6.638-2.482-9.955C161.04,21.591,160.996,21.462,160.935,21.26z"/>
	<path fill-rule="evenodd" clip-rule="evenodd" fill="#3C3F46" d="M59.742,22.814c0.891,0,1.782,0.02,2.673-0.008
		c0.374-0.013,0.453,0.118,0.448,0.465c-0.02,1.123,0,2.247-0.012,3.371c-0.004,0.274,0.032,0.543,0.098,0.797
		c0.114,0.437,0.425,0.716,0.901,0.74c1.098,0.056,1.426-0.473,1.536-1.571c0.085-0.868,0.013-1.742-0.171-2.604
		c-0.172-0.813-0.778-1.261-1.382-1.724c-1.572-1.207-3.282-2.218-4.876-3.396c-1.282-0.947-1.96-2.23-2.313-3.731
		c-0.179-0.763-0.244-1.555-0.216-2.325c0.044-1.247,0.073-2.507,0.53-3.706c0.555-1.457,1.69-2.27,3.065-2.822
		c1.485-0.596,3.048-0.716,4.617-0.606c1.657,0.116,3.259,0.483,4.649,1.482c0.886,0.636,1.424,1.471,1.636,2.55
		c0.26,1.312,0.22,2.633,0.23,3.956c0.002,0.241-0.092,0.312-0.321,0.311c-1.834-0.006-3.669-0.008-5.503,0.001
		c-0.269,0.001-0.325-0.112-0.322-0.35c0.012-0.658,0.014-1.317,0-1.976c-0.005-0.292-0.032-0.591-0.096-0.876
		c-0.083-0.362-0.255-0.683-0.673-0.75c-0.605-0.099-0.979,0.063-1.237,0.482c-0.209,0.34-0.25,0.727-0.292,1.102
		c-0.062,0.537,0.008,1.079,0.091,1.612c0.115,0.747,0.569,1.274,1.173,1.671c1.11,0.731,2.242,1.429,3.354,2.159
		c0.758,0.498,1.477,1.053,2.168,1.641c1.08,0.917,1.708,2.087,1.966,3.472c0.121,0.655,0.198,1.313,0.245,1.978
		c0.042,0.593,0.1,1.185,0.056,1.772c-0.069,0.928-0.117,1.859-0.374,2.768c-0.336,1.184-1.096,1.992-2.13,2.6
		c-1.122,0.658-2.333,1.013-3.622,1.15c-1.64,0.175-3.25,0.082-4.816-0.468c-1.307-0.461-2.459-1.146-3.237-2.342
		c-0.406-0.626-0.571-1.338-0.704-2.054c-0.274-1.487-0.25-2.993-0.244-4.498c0.001-0.271,0.158-0.274,0.354-0.274
		C57.908,22.816,58.825,22.814,59.742,22.814z"/>
	<path fill-rule="evenodd" clip-rule="evenodd" fill="#3C3F46" d="M128.138,17.09c0,3.45,0.017,6.9-0.011,10.349
		c-0.01,0.981-0.097,1.965-0.676,2.834c-0.625,0.934-1.517,1.377-2.583,1.547c-1.885,0.307-3.784,0.093-5.674,0.158
		c-0.212,0.007-0.3-0.071-0.298-0.292c0.004-1.278,0.006-2.558-0.002-3.836c-0.002-0.242,0.095-0.319,0.321-0.31
		c0.312,0.013,0.624,0.029,0.929-0.005c0.814-0.091,1.298-0.657,1.309-1.525c0.013-0.8,0.005-1.602,0.005-2.402
		c0-5.634,0.003-11.268-0.012-16.901c0-0.398,0.108-0.497,0.5-0.493c1.897,0.02,3.799,0.02,5.697,0
		c0.383-0.003,0.505,0.083,0.504,0.488C128.131,10.166,128.138,13.627,128.138,17.09z"/>
	<path fill-rule="evenodd" clip-rule="evenodd" fill="#3C3F46" d="M29.581,19.1c0-4.135,0.005-8.27-0.008-12.405
		c0-0.367,0.087-0.484,0.47-0.481c1.913,0.02,3.825,0.017,5.737,0.002c0.33-0.003,0.41,0.106,0.41,0.421
		c-0.007,8.307-0.007,16.617-0.001,24.924c0.001,0.315-0.079,0.424-0.409,0.423c-1.925-0.015-3.851-0.015-5.775,0.001
		c-0.349,0.002-0.432-0.106-0.431-0.441C29.585,27.396,29.581,23.248,29.581,19.1z"/>
</g>
</svg>
