<?xml version="1.0" encoding="utf-8"?>
<!DOCTYPE svg PUBLIC "-//W3C//DTD SVG 1.1//EN" "http://www.w3.org/Graphics/SVG/1.1/DTD/svg11.dtd">
<svg version="1.1" id="leoexpress" xmlns="http://www.w3.org/2000/svg" xmlns:xlink="http://www.w3.org/1999/xlink" x="0px" y="0px"
	 width="200px" height="40px" viewBox="0 0 200 40" enable-background="new 0 0 200 40" xml:space="preserve">
<g>
	<path fill-rule="evenodd" clip-rule="evenodd" fill="#3C3F46" d="M47.372,35.101c0.027-0.105,0.057-0.209,0.082-0.314
		c0.172-0.759,0.591-1.34,1.257-1.739c5.376-3.229,10.753-6.455,16.131-9.681c1.158-0.694,2.621-0.474,3.458,0.51
		c0.891,1.046,0.907,2.511,0.017,3.546c-0.192,0.224-0.435,0.422-0.689,0.574c-5.367,3.229-10.737,6.45-16.109,9.67
		c-1.707,1.023-3.799,0.034-4.106-1.935c-0.006-0.037-0.026-0.072-0.041-0.108C47.372,35.449,47.372,35.274,47.372,35.101z"/>
	<path fill-rule="evenodd" clip-rule="evenodd" fill="#3C3F46" d="M100.451,40.047c-0.008-0.103-0.023-0.204-0.023-0.307
		c-0.001-5.492-0.001-10.984-0.001-16.477c0-0.093,0-0.187,0-0.289c0.922,0,1.815,0,2.731,0c0.068,0.486,0.135,0.969,0.207,1.486
		c0.197-0.206,0.366-0.398,0.552-0.574c1.073-1.018,2.379-1.302,3.802-1.176c2.477,0.218,4.096,1.847,4.612,4.315
		c0.355,1.696,0.311,3.392-0.277,5.036c-0.69,1.929-2.002,3.191-4.068,3.531c-1.652,0.272-3.152-0.053-4.364-1.302
		c-0.015-0.015-0.035-0.022-0.086-0.053c0,0.109,0,0.192,0,0.275c0,1.744,0.001,3.487-0.002,5.231c0,0.1-0.024,0.2-0.038,0.301
		C102.48,40.047,101.466,40.047,100.451,40.047z M103.535,29.263c0,0.927-0.004,1.854,0.006,2.781
		c0.001,0.103,0.056,0.231,0.129,0.303c0.717,0.691,1.6,0.915,2.57,0.908c1.321-0.009,2.286-0.623,2.758-1.859
		c0.539-1.415,0.565-2.865,0.109-4.309c-0.268-0.845-0.799-1.507-1.666-1.758c-1.411-0.409-2.715-0.194-3.795,0.884
		c-0.066,0.067-0.105,0.192-0.106,0.291C103.532,27.424,103.535,28.343,103.535,29.263z"/>
	<path fill-rule="evenodd" clip-rule="evenodd" fill="#3C3F46" d="M47.372,4.898c0.029-0.112,0.061-0.223,0.086-0.335
		c0.306-1.333,1.539-2.215,2.914-2.084c1.304,0.124,2.36,1.235,2.421,2.546c0.064,1.373-0.884,2.57-2.226,2.81
		c-1.506,0.269-2.932-0.764-3.152-2.282c-0.006-0.045-0.028-0.087-0.043-0.13C47.372,5.247,47.372,5.073,47.372,4.898z"/>
	<path fill-rule="evenodd" clip-rule="evenodd" fill="#3C3F46" d="M106.727,11.188c-0.034,1.953-0.538,3.563-1.834,4.859
		c-1.063,1.062-2.371,1.614-3.847,1.784c-1.315,0.151-2.598,0.009-3.81-0.544c-1.896-0.866-3.017-2.362-3.434-4.383
		c-0.273-1.326-0.221-2.648,0.214-3.939c0.61-1.813,1.815-3.078,3.619-3.698c2.125-0.73,4.223-0.613,6.183,0.544
		c1.655,0.978,2.533,2.5,2.814,4.38C106.69,10.573,106.706,10.962,106.727,11.188z M103.579,11.336
		c-0.018-0.671-0.088-1.329-0.318-1.962c-0.484-1.329-1.581-2.114-2.944-2.158c-1.649-0.053-2.735,0.834-3.193,2.063
		c-0.483,1.298-0.493,2.622-0.068,3.935c0.45,1.394,1.453,2.153,2.909,2.261c1.435,0.106,2.655-0.641,3.216-1.963
		C103.478,12.814,103.561,12.08,103.579,11.336z"/>
	<path fill-rule="evenodd" clip-rule="evenodd" fill="#3C3F46" d="M92.601,11.946c-2.804,0-5.599,0-8.422,0
		c0.087,0.916,0.308,1.749,0.938,2.424c0.657,0.703,1.514,0.96,2.434,1.034c1.601,0.128,3.122-0.145,4.523-0.968
		c0.18-0.105,0.266-0.057,0.267,0.15c0.003,0.713-0.003,1.426,0.005,2.14c0.002,0.152-0.082,0.202-0.192,0.259
		c-0.797,0.409-1.648,0.648-2.529,0.775c-1.401,0.203-2.796,0.188-4.167-0.203c-2.351-0.672-3.723-2.248-4.164-4.629
		c-0.288-1.554-0.223-3.1,0.421-4.568c0.998-2.276,2.797-3.395,5.248-3.514c0.902-0.044,1.788,0.063,2.632,0.405
		c1.597,0.646,2.467,1.889,2.859,3.517c0.235,0.973,0.231,1.962,0.185,2.954C92.636,11.79,92.616,11.858,92.601,11.946z
		 M89.672,9.836c-0.012-0.501-0.099-0.964-0.283-1.407c-0.289-0.696-0.801-1.141-1.542-1.268c-0.354-0.061-0.727-0.061-1.085-0.026
		c-1.306,0.125-2.434,1.372-2.463,2.701C86.08,9.836,87.86,9.836,89.672,9.836z"/>
	<path fill-rule="evenodd" clip-rule="evenodd" fill="#3C3F46" d="M87.607,29.773c-2.798,0-5.577,0-8.355,0
		c-0.108,1.468,0.944,2.923,2.426,3.273c1.837,0.435,3.6,0.175,5.265-0.721c0.028-0.016,0.055-0.031,0.083-0.047
		c0.269-0.149,0.321-0.117,0.322,0.2c0.001,0.285,0,0.57,0,0.855c0,0.364-0.013,0.729,0.005,1.094
		c0.01,0.208-0.072,0.308-0.25,0.394c-1.058,0.508-2.181,0.756-3.344,0.831c-1.202,0.076-2.393,0.003-3.544-0.382
		c-2.199-0.734-3.458-2.291-3.867-4.542c-0.296-1.632-0.206-3.244,0.522-4.763c0.919-1.918,2.476-2.972,4.576-3.232
		c0.93-0.116,1.852-0.057,2.751,0.218c1.661,0.508,2.682,1.644,3.17,3.284c0.328,1.102,0.352,2.231,0.276,3.367
		C87.64,29.649,87.625,29.695,87.607,29.773z M84.717,27.662c-0.039-0.274-0.06-0.527-0.112-0.773
		c-0.163-0.759-0.495-1.403-1.248-1.742c-1.014-0.455-2.403-0.19-3.166,0.614c-0.5,0.529-0.735,1.183-0.869,1.901
		C81.125,27.662,82.898,27.662,84.717,27.662z"/>
	<path fill-rule="evenodd" clip-rule="evenodd" fill="#3C3F46" d="M132.46,29.761c-2.803,0-5.589,0-8.375,0
		c-0.095,1.581,1.017,3.021,2.617,3.336c1.804,0.354,3.527,0.091,5.142-0.809c0.291-0.161,0.34-0.135,0.34,0.193
		c0,0.665-0.005,1.331,0.004,1.997c0.002,0.156-0.047,0.238-0.188,0.31c-0.903,0.454-1.864,0.704-2.862,0.814
		c-1.293,0.143-2.579,0.11-3.838-0.257c-2.291-0.669-3.646-2.202-4.1-4.523c-0.303-1.553-0.245-3.098,0.379-4.573
		c0.883-2.086,2.484-3.24,4.724-3.517c0.873-0.108,1.739-0.052,2.59,0.182c1.5,0.412,2.541,1.342,3.119,2.783
		C132.533,27.002,132.572,28.362,132.46,29.761z M129.526,27.661c-0.008-0.504-0.1-0.965-0.285-1.407
		c-0.3-0.713-0.832-1.149-1.596-1.266c-0.324-0.049-0.663-0.047-0.991-0.018c-1.314,0.115-2.441,1.347-2.475,2.69
		C125.951,27.661,127.723,27.661,129.526,27.661z"/>
	<path fill-rule="evenodd" clip-rule="evenodd" fill="#3C3F46" d="M93.818,31.095c-0.537,0.852-1.06,1.682-1.583,2.513
		c-0.333,0.529-0.67,1.056-0.996,1.59c-0.079,0.129-0.16,0.187-0.318,0.185c-0.894-0.009-1.788-0.004-2.745-0.004
		c0.053-0.138,0.077-0.248,0.134-0.338c1.257-1.949,2.515-3.899,3.783-5.842c0.13-0.199,0.14-0.329,0-0.536
		c-1.208-1.784-2.4-3.578-3.593-5.371c-0.056-0.084-0.073-0.192-0.117-0.314c0.116-0.006,0.186-0.012,0.256-0.012
		c0.983-0.001,1.966,0.003,2.949-0.005c0.155-0.001,0.239,0.048,0.32,0.18c0.702,1.14,1.412,2.274,2.12,3.409
		c0.046,0.073,0.094,0.146,0.159,0.244c0.058-0.083,0.106-0.148,0.15-0.218c0.722-1.136,1.447-2.27,2.161-3.411
		c0.098-0.156,0.202-0.206,0.38-0.204c0.808,0.009,1.617,0.004,2.425,0.004c0.078,0,0.156,0,0.29,0
		c-0.058,0.134-0.086,0.237-0.143,0.322c-1.187,1.808-2.373,3.615-3.57,5.415c-0.125,0.188-0.12,0.312,0.004,0.495
		c1.305,1.938,2.601,3.883,3.896,5.827c0.061,0.092,0.098,0.2,0.172,0.354c-0.142,0-0.217,0-0.292,0
		c-0.975,0-1.95-0.004-2.925,0.004c-0.164,0.001-0.252-0.053-0.338-0.19c-0.809-1.297-1.625-2.589-2.44-3.882
		C93.915,31.244,93.873,31.179,93.818,31.095z"/>
	<path fill-rule="evenodd" clip-rule="evenodd" fill="#3C3F46" d="M143.519,33.274c0-0.364-0.003-0.729,0.003-1.094
		c0.001-0.071,0.039-0.142,0.061-0.213c0.063,0.025,0.134,0.038,0.187,0.076c0.926,0.68,1.95,1.111,3.097,1.224
		c0.625,0.062,1.251,0.084,1.859-0.12c0.652-0.218,0.963-0.653,0.954-1.31c-0.006-0.493-0.248-0.839-0.69-1.014
		c-0.469-0.186-0.957-0.322-1.439-0.476c-0.594-0.189-1.209-0.329-1.782-0.569c-1.582-0.664-2.316-1.847-2.247-3.52
		c0.063-1.533,1.002-2.752,2.523-3.288c0.859-0.303,1.747-0.366,2.646-0.324c1.012,0.047,1.996,0.219,2.936,0.616
		c0.144,0.061,0.201,0.132,0.198,0.296c-0.012,0.657-0.004,1.315-0.005,1.973c-0.001,0.271-0.045,0.296-0.292,0.179
		c-1.226-0.582-2.51-0.86-3.869-0.741c-0.164,0.015-0.33,0.051-0.486,0.103c-0.44,0.146-0.729,0.431-0.786,0.913
		c-0.061,0.506,0.052,0.965,0.529,1.196c0.442,0.216,0.925,0.361,1.402,0.492c0.87,0.237,1.741,0.464,2.556,0.868
		c1.109,0.551,1.684,1.442,1.748,2.676c0.111,2.101-0.951,3.638-2.989,4.16c-1.907,0.489-3.78,0.322-5.584-0.511
		c-0.399-0.185-0.615-0.415-0.535-0.881C143.552,33.756,143.519,33.512,143.519,33.274z"/>
	<path fill-rule="evenodd" clip-rule="evenodd" fill="#3C3F46" d="M133.46,33.267c0-0.364-0.003-0.729,0.002-1.093
		c0.001-0.066,0.029-0.132,0.044-0.197c0.07,0.023,0.151,0.031,0.208,0.072c0.929,0.675,1.953,1.108,3.1,1.221
		c0.632,0.062,1.268,0.082,1.882-0.13c0.686-0.237,1.001-0.762,0.909-1.475c-0.048-0.372-0.248-0.645-0.575-0.789
		c-0.389-0.171-0.797-0.305-1.202-0.434c-0.686-0.218-1.394-0.375-2.061-0.638c-1.037-0.407-1.85-1.091-2.156-2.213
		c-0.522-1.907,0.211-3.989,2.651-4.71c1.03-0.304,2.08-0.286,3.134-0.173c0.743,0.081,1.462,0.26,2.154,0.549
		c0.151,0.063,0.218,0.137,0.215,0.312c-0.013,0.657-0.004,1.315-0.006,1.974c-0.001,0.25-0.055,0.28-0.282,0.172
		c-1.224-0.583-2.508-0.861-3.866-0.748c-0.126,0.011-0.252,0.034-0.374,0.066c-0.548,0.142-0.855,0.469-0.917,0.964
		c-0.071,0.585,0.127,1.029,0.668,1.263c0.468,0.202,0.977,0.311,1.464,0.469c0.729,0.237,1.479,0.429,2.177,0.736
		c1.518,0.667,2.015,1.709,1.928,3.311c-0.098,1.792-1.021,3.019-2.746,3.526c-2.075,0.61-4.114,0.44-6.059-0.57
		c-0.223-0.116-0.322-0.252-0.298-0.515C133.481,33.903,133.46,33.584,133.46,33.267z"/>
	<path fill-rule="evenodd" clip-rule="evenodd" fill="#3C3F46" d="M77.064,0.703c1.026-0.206,2.046-0.411,3.086-0.62
		c0,5.847,0,11.667,0,17.495c-1.035,0-2.054,0-3.086,0C77.064,11.957,77.064,6.348,77.064,0.703z"/>
	<path fill-rule="evenodd" clip-rule="evenodd" fill="#3C3F46" d="M116.567,35.364c-1.04,0-2.05,0-3.071,0c0-4.131,0-8.248,0-12.383
		c0.894,0,1.784,0,2.7,0c0.074,0.598,0.149,1.198,0.226,1.813c0.263-0.312,0.494-0.62,0.761-0.895c0.957-0.985,2.14-1.26,3.464-1.07
		c0.124,0.018,0.173,0.068,0.172,0.199c-0.005,0.856-0.005,1.712-0.001,2.568c0.001,0.218-0.116,0.219-0.28,0.188
		c-0.799-0.149-1.593-0.112-2.377,0.091c-0.574,0.148-1.063,0.45-1.444,0.907c-0.086,0.103-0.142,0.265-0.143,0.399
		c-0.008,2.623-0.006,5.247-0.006,7.87C116.567,35.146,116.567,35.241,116.567,35.364z"/>
	<path fill-rule="evenodd" clip-rule="evenodd" fill="#3C3F46" d="M58.19,7.324c1.497,0,2.691,1.203,2.69,2.709
		c-0.001,1.499-1.203,2.692-2.709,2.689c-1.5-0.002-2.691-1.202-2.689-2.709C55.483,8.514,56.682,7.324,58.19,7.324z"/>
	<path fill-rule="evenodd" clip-rule="evenodd" fill="#3C3F46" d="M68.972,14.867c0.007,1.493-1.192,2.703-2.692,2.715
		c-1.485,0.013-2.705-1.199-2.713-2.695c-0.008-1.484,1.192-2.705,2.668-2.712C67.753,12.168,68.965,13.36,68.972,14.867z"/>
</g>
</svg>
