<?xml version="1.0" encoding="utf-8"?>
<!DOCTYPE svg PUBLIC "-//W3C//DTD SVG 1.1//EN" "http://www.w3.org/Graphics/SVG/1.1/DTD/svg11.dtd">
<svg version="1.1" id="weather" xmlns="http://www.w3.org/2000/svg" xmlns:xlink="http://www.w3.org/1999/xlink" x="0px" y="0px"
	 width="200px" height="40px" viewBox="0 0 200 40" enable-background="new 0 0 200 40" xml:space="preserve">
<g>
	<path fill-rule="evenodd" clip-rule="evenodd" fill="#3C3F46" d="M107.62,14.126c1.459-1.399,2.912-1.202,4.316-1.214
		c0.677-0.006,1.464,0.013,1.528-0.874c0.062-0.859-0.713-1.04-1.374-1.144c-2.259-0.357-4.32,0.354-6.323,1.275
		c-0.456,0.21-0.861,0.365-1.342,0.148c1.578-2.505,5.913-3.643,10.102-2.657c4.083,0.962,7.427,5.128,7.73,9.63
		c0.308,4.57-2.114,8.567-6.371,10.242C116.301,22.808,113.773,17.615,107.62,14.126z"/>
	<path fill-rule="evenodd" clip-rule="evenodd" fill="#3C3F46" d="M120.253,2.041c-0.656,1.512-1.373,3.273-2.188,4.987
		c-0.313,0.656-0.961,0.457-1.509,0.231c-0.555-0.227-1.131-0.558-0.85-1.241c0.722-1.753,1.486-3.494,2.347-5.182
		c0.272-0.534,0.964-0.559,1.535-0.267C120.062,0.812,120.203,1.257,120.253,2.041z"/>
	<path fill-rule="evenodd" clip-rule="evenodd" fill="#3C3F46" d="M106.852,5.688c0.195,1.242-0.319,1.481-0.867,1.718
		c-0.732,0.317-1.292,0.223-1.613-0.582c-0.601-1.505-1.222-3.002-1.803-4.515c-0.271-0.707-0.098-1.335,0.602-1.7
		c0.573-0.299,1.24-0.212,1.517,0.34C105.536,2.647,106.272,4.401,106.852,5.688z"/>
	<path fill-rule="evenodd" clip-rule="evenodd" fill="#3C3F46" d="M131.415,11.852c-0.007,0.244-0.015,0.487-0.022,0.731
		c-1.597,1.61-3.801,1.985-5.771,2.834c-0.609,0.263-1.104,0.097-1.381-0.532c-0.228-0.515-0.443-1.021-0.034-1.578
		C125.122,12.063,129.9,11.084,131.415,11.852z"/>
	<path fill-rule="evenodd" clip-rule="evenodd" fill="#3C3F46" d="M131.437,26.781c-0.018,0.428-0.034,0.854-0.052,1.281
		c-1.52,0.688-6.044-0.324-7.044-1.533c-0.46-0.558-0.237-1.048-0.021-1.578c0.332-0.813,0.911-0.851,1.622-0.542
		C127.771,25.204,129.604,25.991,131.437,26.781z"/>
	<path fill-rule="evenodd" clip-rule="evenodd" fill="#3C3F46" d="M120.398,37.848c0.057,0.918-0.162,1.409-0.769,1.659
		c-0.617,0.254-1.237,0.058-1.486-0.47c-0.77-1.627-1.464-3.292-2.1-4.975c-0.312-0.822,0.353-1.183,0.995-1.451
		c0.609-0.256,1.132-0.172,1.409,0.49C119.144,34.764,119.818,36.434,120.398,37.848z"/>
	<path fill-rule="evenodd" clip-rule="evenodd" fill="#3C3F46" d="M121.646,10.408c-0.552-0.174-1.048-0.52-0.87-1.004
		c0.334-0.903,0.99-1.658,2.005-1.814c0.528-0.081,0.935,0.372,0.753,0.92C123.226,9.445,122.588,10.126,121.646,10.408z"/>
	<path fill-rule="evenodd" clip-rule="evenodd" fill="#3C3F46" d="M112.077,4.566c-0.063,0.636,0.072,1.481-0.857,1.503
		c-0.917,0.022-0.897-0.79-0.913-1.449c-0.016-0.68,0.027-1.509,0.858-1.536C112.019,3.057,112.048,3.891,112.077,4.566z"/>
	<path fill-rule="evenodd" clip-rule="evenodd" fill="#3C3F46" d="M128.4,19.712c-0.061,0.765-0.644,0.869-1.208,0.864
		c-0.697-0.006-1.649,0.292-1.806-0.785c-0.106-0.726,0.543-0.892,1.138-0.898C127.263,18.884,128.075,18.756,128.4,19.712z"/>
	<path fill-rule="evenodd" clip-rule="evenodd" fill="#3C3F46" d="M122.099,29.289c0.833,0.545,1.664,1.043,1.767,2.067
		c0.054,0.539-0.416,0.883-0.922,0.694c-0.884-0.329-1.674-0.889-1.743-1.927C121.169,29.655,121.623,29.367,122.099,29.289z"/>
	<path fill-rule="evenodd" clip-rule="evenodd" fill="#3C3F46" d="M104.747,16.677c-1.437-0.488-2.455-1.189-3.374-2.383
		c-2.974-3.867-6.975-5.791-10.524-5.838c-7.675,0.049-13.007,3.802-15.051,9.79c-0.511,1.496-1.121,2.57-2.673,3.364
		c-4.203,2.149-5.662,6.831-3.703,10.968c1.868,3.945,6.448,5.89,10.621,4.154c1.8-0.75,3.161-0.563,4.828,0.146
		c2.897,1.233,5.97,1.346,8.942,0.29c1.463-0.52,2.688-0.37,4.106,0.082c5.847,1.867,11.857-1.253,13.728-7.014
		C113.464,24.641,110.471,18.623,104.747,16.677z M108.117,30.895c-1.977,3.376-6.059,4.967-9.626,3.379
		c-1.916-0.853-3.402-0.876-5.341-0.037c-2.95,1.277-6.034,0.844-8.769-0.871c-1.576-0.988-2.773-1.072-4.374,0.086
		c-2.193,1.586-5.035,1.192-6.799-0.639c-1.877-1.946-2.162-4.204-0.872-6.564c1.282-2.344,3.906-3.225,6.667-2.327
		c1.056,0.343,2.285,1.233,2.958-0.288c0.652-1.474-0.697-2.099-1.753-2.397c-2.006-0.568-1.976-1.659-1.195-3.199
		c2.198-4.331,5.794-6.402,10.545-6.649c1.867-0.032,3.62,0.412,5.256,1.236c1.449,0.729,3.334,1.508,3.563,3.059
		c0.215,1.451-2.072,1.159-2.978,2.079c-0.863,0.878-1.868,1.621-2.693,2.53c-0.548,0.603-0.643,1.419,0.041,2.057
		c0.682,0.638,1.397,0.466,2.04-0.11c0.496-0.445,0.94-0.951,1.455-1.372c3.042-2.494,7.326-2.431,10.237,0.133
		C109.321,23.499,110.01,27.661,108.117,30.895z"/>
</g>
</svg>
