<?xml version="1.0" encoding="utf-8"?>
<!DOCTYPE svg PUBLIC "-//W3C//DTD SVG 1.1//EN" "http://www.w3.org/Graphics/SVG/1.1/DTD/svg11.dtd">
<svg version="1.1" id="regiojet" xmlns="http://www.w3.org/2000/svg" xmlns:xlink="http://www.w3.org/1999/xlink" x="0px" y="0px"
	 width="200px" height="40px" viewBox="0 0 200 40" enable-background="new 0 0 200 40" xml:space="preserve">
<g>
	<path fill-rule="evenodd" clip-rule="evenodd" fill="#3C3F46" d="M141.302,10.298c-0.267,4.914-1.569,9.602-5.725,12.992
		c-3.478,2.839-7.521,3.422-11.774,2.34c-3.76-0.958-5.921-3.899-6.023-8.399c-0.104-4.586,1.03-8.872,4.084-12.472
		c3.344-3.942,9.512-5.523,14.313-3.622c3.071,1.216,4.555,3.662,5.001,6.822C141.277,8.66,141.256,9.38,141.302,10.298z
		 M135.366,10.619c-0.024-0.451-0.033-0.927-0.08-1.399c-0.309-3.112-2.489-4.732-5.536-4.086c-1.238,0.262-2.296,0.899-3.081,1.887
		c-2.539,3.193-3.301,6.906-2.744,10.838c0.398,2.818,2.479,4.054,5.292,3.513c1.937-0.375,3.216-1.611,4.176-3.236
		C134.757,15.827,135.237,13.281,135.366,10.619z"/>
	<path fill-rule="evenodd" clip-rule="evenodd" fill="#3C3F46" d="M51.636,14.028c1.723,0.889,2.339,2.415,2.787,4.034
		c0.683,2.471,1.334,4.951,2.028,7.537c-1.896,0-3.677-0.03-5.458,0.015c-0.68,0.018-0.763-0.424-0.882-0.874
		c-0.497-1.875-0.942-3.762-1.484-5.624c-0.697-2.392-1.612-2.982-4.069-2.89c-0.646,0.023-0.881,0.244-0.985,0.876
		c-0.425,2.578-0.929,5.14-1.351,7.719c-0.099,0.6-0.325,0.802-0.912,0.787c-1.229-0.031-2.463-0.078-3.685,0.014
		c-1.032,0.075-1.286-0.233-1.093-1.248c0.678-3.575,1.282-7.167,1.917-10.752c0.697-3.937,1.399-7.873,2.092-11.81
		c0.083-0.473,0.076-0.96,0.777-0.954c3.29,0.03,6.585-0.079,9.867,0.1c2.221,0.121,4.25,1.011,5.056,3.327
		c0.915,2.63,0.579,5.156-1.233,7.375C54.139,12.722,52.975,13.397,51.636,14.028z M46.189,11.837
		c3.339-0.003,4.934-1.338,4.893-4.101c-0.02-1.323-0.529-1.908-1.858-2.182c-0.942-0.195-1.891-0.1-2.838-0.13
		c-0.598-0.019-0.813,0.272-0.902,0.842c-0.25,1.599-0.544,3.191-0.853,4.78c-0.104,0.542-0.019,0.843,0.609,0.795
		C45.554,11.815,45.872,11.835,46.189,11.837z"/>
	<path fill-rule="evenodd" clip-rule="evenodd" fill="#3C3F46" d="M103.025,7.275c-2.005-1.234-3.999-2.113-6.284-2.242
		c-3.602-0.202-6.347,1.156-8.047,4.354c-1.234,2.323-1.784,4.852-1.431,7.472c0.383,2.836,1.935,4.246,4.77,4.599
		c0.275,0.035,0.554,0.051,0.829,0.052c2.817,0.013,3.114-0.232,3.583-2.952c0.408-2.378,0.408-2.416-1.978-2.405
		c-0.926,0.003-1.198-0.232-0.922-1.156c0.302-1.009-0.017-2.442,0.773-2.988c0.708-0.488,1.986-0.162,3.014-0.169
		c1.586-0.012,3.172,0.015,4.757-0.012c0.615-0.011,0.957,0.048,0.812,0.832c-0.65,3.503-1.256,7.013-1.861,10.523
		c-0.073,0.433-0.254,0.702-0.663,0.885c-3.733,1.665-7.61,2.48-11.687,1.792c-4.146-0.699-6.855-3.277-7.314-7.475
		c-0.616-5.634,0.827-10.708,5.182-14.645c4.606-4.165,12.012-4.051,16.695-1.881c0.475,0.219,0.652,0.52,0.559,1.024
		C103.551,4.309,103.301,5.736,103.025,7.275z"/>
	<path fill-rule="evenodd" clip-rule="evenodd" fill="#3C3F46" d="M67.855,25.601c-2.26,0-4.521-0.03-6.781,0.016
		c-0.817,0.017-1.153-0.178-0.997-1.057c1.363-7.639,2.71-15.281,4.043-22.926c0.102-0.59,0.361-0.784,0.942-0.782
		c4.639,0.017,9.279,0.018,13.918,0c0.647-0.002,0.811,0.179,0.657,0.825c-0.239,1-0.427,2.018-0.535,3.04
		c-0.076,0.723-0.393,0.909-1.071,0.901c-2.617-0.03-5.235,0.004-7.852-0.021c-0.695-0.007-1.104,0.121-1.172,0.935
		c-0.079,0.943-0.245,1.891-0.494,2.803c-0.245,0.897,0.161,1.004,0.885,0.999c2.3-0.021,4.601,0.036,6.9-0.025
		c1-0.027,1.267,0.324,1.035,1.243c-0.154,0.614-0.254,1.241-0.366,1.864c-0.301,1.685-0.298,1.686-2.041,1.686
		c-2.141,0-4.283,0.019-6.424-0.011c-0.689-0.01-1.081,0.102-1.168,0.923c-0.138,1.296-0.389,2.586-0.681,3.858
		c-0.198,0.863,0.142,1.006,0.896,0.996c2.578-0.029,5.157,0.035,7.732-0.032c1.024-0.027,1.361,0.255,1.106,1.27
		c-0.278,1.11-0.124,2.612-0.807,3.264c-0.756,0.722-2.266,0.194-3.445,0.225C70.711,25.628,69.283,25.601,67.855,25.601z"/>
	<path fill-rule="evenodd" clip-rule="evenodd" fill="#3C3F46" d="M163.695,25.563c-2.181,0-4.364-0.06-6.541,0.027
		c-1.036,0.041-1.3-0.262-1.119-1.248c0.748-4.084,1.452-8.178,2.179-12.267c0.609-3.427,1.253-6.849,1.819-10.284
		c0.118-0.713,0.397-0.909,1.073-0.906c4.521,0.021,9.041,0.021,13.562-0.001c0.676-0.003,0.97,0.172,0.784,0.874
		c-0.039,0.151-0.011,0.321-0.058,0.47c-0.323,1.057,0.015,2.502-0.787,3.141c-0.794,0.633-2.142,0.171-3.244,0.191
		c-1.784,0.032-3.569,0.04-5.354-0.006c-0.739-0.019-1.073,0.242-1.17,0.971c-0.122,0.94-0.283,1.88-0.499,2.803
		c-0.19,0.807,0.083,1.072,0.882,1.062c2.221-0.027,4.44-0.01,6.661-0.007c1.447,0.001,1.449,0.004,1.213,1.388
		c-0.14,0.819-0.335,1.632-0.412,2.456c-0.068,0.734-0.43,0.868-1.09,0.858c-2.417-0.035-4.837,0.011-7.255-0.029
		c-0.729-0.011-1.069,0.207-1.168,0.953c-0.173,1.293-0.365,2.59-0.668,3.858c-0.206,0.856,0.083,1.042,0.861,1.034
		c2.616-0.023,5.234,0.021,7.851-0.023c0.939-0.017,1.307,0.17,1.007,1.203c-0.318,1.092-0.015,2.609-0.782,3.258
		c-0.822,0.697-2.282,0.188-3.462,0.218C166.552,25.592,165.123,25.563,163.695,25.563z"/>
	<path fill-rule="evenodd" clip-rule="evenodd" fill="#3C3F46" d="M186.44,0.896c2.574,0,5.15,0.022,7.727-0.013
		c0.77-0.01,1.069,0.138,0.843,0.991c-0.253,0.951-0.391,1.939-0.505,2.919c-0.072,0.615-0.358,0.791-0.932,0.782
		c-1.426-0.023-2.854,0.012-4.279-0.013c-0.629-0.011-0.903,0.22-1.013,0.863c-1.009,5.842-2.083,11.673-3.053,17.521
		c-0.201,1.208-0.53,1.833-1.897,1.646c-1.011-0.139-2.058-0.063-3.086-0.017c-0.755,0.033-0.971-0.223-0.836-0.969
		c1.076-5.95,2.12-11.905,3.2-17.854c0.153-0.851,0.017-1.25-0.961-1.199c-1.305,0.066-2.616-0.011-3.922,0.023
		c-0.665,0.017-0.845-0.274-0.735-0.863c0.007-0.039,0.007-0.08,0.012-0.119c0.485-3.699,0.485-3.699,4.206-3.699
		C182.953,0.896,184.696,0.896,186.44,0.896z"/>
	<path fill-rule="evenodd" clip-rule="evenodd" fill="#3C3F46" d="M7.888,32.426c-0.515,0-1.032,0.013-1.546-0.004
		c-1.65-0.049-1.56,0.271-1.231-1.431c1.873-9.715,3.785-19.422,5.631-29.143c0.169-0.887,0.54-1.086,1.334-1.056
		c1.227,0.046,2.463,0.083,3.685-0.01c1.088-0.083,1.355,0.238,1.134,1.313c-0.837,4.071-1.595,8.158-2.389,12.237
		C13.423,19.888,12.3,25.434,11.279,31c-0.204,1.112-0.556,1.627-1.729,1.44C9.009,32.354,8.443,32.426,7.888,32.426z"/>
	<path fill-rule="evenodd" clip-rule="evenodd" fill="#3C3F46" d="M18.915,32.426c-0.814-0.154-2.15,0.483-2.738-0.282
		c-0.521-0.678,0.168-1.88,0.351-2.842c1.738-9.088,3.514-18.172,5.236-27.266c0.182-0.958,0.533-1.33,1.537-1.255
		c1.3,0.096,2.614,0.048,3.92,0.016c0.732-0.018,0.958,0.184,0.803,0.965c-1.454,7.374-2.872,14.754-4.3,22.132
		c-0.482,2.486-0.998,4.965-1.429,7.459c-0.142,0.815-0.431,1.187-1.297,1.088C20.373,32.366,19.731,32.426,18.915,32.426z"/>
	<path fill-rule="evenodd" clip-rule="evenodd" fill="#3C3F46" d="M152.036,0.896c0.755,0.086,1.957-0.402,2.484,0.19
		c0.531,0.597-0.106,1.709-0.262,2.588c-1.249,7.085-2.403,14.193-3.831,21.243c-1.074,5.31-4.09,7.742-9.469,8.229
		c-1.358,0.122-1.4,0.073-1.176-1.281c0.092-0.548,0.196-1.094,0.254-1.643c0.149-1.422,0.271-2.608,2.228-2.905
		c1.764-0.267,2.495-1.969,2.804-3.633c0.904-4.859,1.752-9.729,2.613-14.597c0.422-2.375,0.844-4.75,1.224-7.132
		c0.128-0.806,0.458-1.187,1.321-1.071C150.771,0.955,151.334,0.896,152.036,0.896z"/>
	<path fill-rule="evenodd" clip-rule="evenodd" fill="#3C3F46" d="M108.771,25.601c-2.966,0-2.925,0.008-2.394-2.937
		c1.242-6.894,2.455-13.793,3.636-20.699c0.14-0.813,0.367-1.178,1.255-1.125c1.263,0.076,2.536,0.04,3.804,0.011
		c0.637-0.014,0.887,0.069,0.746,0.85c-1.362,7.558-2.692,15.121-3.976,22.691c-0.169,0.996-0.551,1.355-1.526,1.221
		C109.812,25.543,109.286,25.601,108.771,25.601z"/>
	<path fill-rule="evenodd" clip-rule="evenodd" fill="#3C3F46" d="M74.712,33.294c0,1.142-0.002,2.283,0.002,3.426
		c0.001,0.433-0.05,0.806-0.621,0.78c-0.612-0.026-0.522-0.49-0.524-0.866c-0.01-1.662-0.016-3.324,0.004-4.983
		c0.004-0.35-0.169-0.872,0.46-0.898c0.49-0.023,1.015-0.164,1.297,0.503c0.489,1.156,1.047,2.282,1.859,3.395
		c0-1.028-0.01-2.056,0.005-3.083c0.005-0.366-0.124-0.809,0.525-0.838c0.716-0.031,0.614,0.438,0.615,0.863
		c0.003,1.66,0.012,3.32-0.007,4.981c-0.003,0.351,0.193,0.845-0.43,0.927c-0.507,0.066-0.91-0.009-1.151-0.564
		c-0.543-1.251-1.136-2.48-1.709-3.72C74.93,33.242,74.821,33.268,74.712,33.294z"/>
	<path fill-rule="evenodd" clip-rule="evenodd" fill="#3C3F46" d="M60.526,34.114c0-0.594-0.009-1.188,0.001-1.78
		c0.033-1.812-0.272-1.595,1.675-1.593c2.128,0,3.209,1.029,3.278,3.053c0.079,2.302-0.933,3.539-3.039,3.714
		c-1.916,0.158-1.916,0.158-1.916-1.732C60.525,35.222,60.526,34.668,60.526,34.114z M64.12,34.096
		c-0.118-0.901-0.167-1.877-1.278-2.271c-0.6-0.214-1-0.136-0.984,0.643c0.022,1.103,0.026,2.206,0,3.31
		c-0.018,0.721,0.388,0.788,0.91,0.633C63.899,36.071,63.99,35.098,64.12,34.096z"/>
	<path fill-rule="evenodd" clip-rule="evenodd" fill="#3C3F46" d="M113.557,33.105c0,1.094,0.014,2.188-0.007,3.284
		c-0.009,0.393,0.18,0.96-0.509,0.989c-0.697,0.033-0.559-0.523-0.562-0.93c-0.011-1.581-0.018-3.164,0.006-4.745
		c0.006-0.341-0.224-0.865,0.415-0.924c0.547-0.052,1.073-0.114,1.361,0.591c0.468,1.152,1.03,2.267,1.677,3.667
		c0.335-1.273,0.124-2.256,0.215-3.215c0.036-0.386-0.193-0.984,0.471-1.026c0.745-0.045,0.484,0.591,0.491,0.955
		c0.029,1.542,0.021,3.085,0.006,4.626c-0.005,0.398,0.169,0.921-0.492,1.025c-0.6,0.099-0.84-0.284-1.048-0.742
		c-0.552-1.213-1.117-2.419-1.677-3.63C113.789,33.057,113.673,33.082,113.557,33.105z"/>
	<path fill-rule="evenodd" clip-rule="evenodd" fill="#3C3F46" d="M104.247,35.818c0,0.354,0.003,0.713-0.002,1.069
		c-0.003,0.205-0.12,0.521-0.277,0.427c-0.793-0.479-1.397,0.281-2.121,0.255c-0.905-0.034-1.61-0.354-2.106-1.112
		c-0.809-1.233-0.76-3.542,0.071-4.764c0.689-1.009,1.693-1.055,2.756-0.952c0.768,0.075,1.197,0.579,1.427,1.251
		c0.079,0.235,0.405,0.611-0.099,0.789c-0.334,0.117-0.718,0.239-0.883-0.254c-0.216-0.638-0.6-1.055-1.317-0.896
		c-0.729,0.163-0.947,0.771-1.087,1.414c-0.208,0.955-0.166,1.897,0.227,2.794c0.222,0.505,0.638,0.817,1.219,0.786
		c0.43-0.022,0.745-0.258,0.889-0.678c0.162-0.475,0.334-0.969-0.461-1.007c-0.329-0.019-0.527-0.139-0.491-0.505
		c0.038-0.398,0.35-0.354,0.617-0.389C104.143,33.846,104.255,33.967,104.247,35.818z"/>
	<path fill-rule="evenodd" clip-rule="evenodd" fill="#3C3F46" d="M43.747,37.596c-0.927-0.019-1.714-0.323-2.171-1.18
		c-0.128-0.239-0.406-0.605,0.001-0.824c0.339-0.18,0.779-0.319,1.014,0.189c0.247,0.532,0.667,0.775,1.224,0.763
		c0.417-0.009,0.778-0.182,0.923-0.615c0.154-0.458-0.081-0.784-0.451-0.981c-0.416-0.223-0.867-0.38-1.303-0.563
		c-0.934-0.393-1.506-1.058-1.369-2.104c0.114-0.865,0.657-1.433,1.546-1.568c1.021-0.155,1.995-0.103,2.602,0.924
		c0.134,0.227,0.365,0.498,0.031,0.718c-0.287,0.19-0.62,0.41-0.942,0.023c-0.151-0.181-0.276-0.397-0.463-0.531
		c-0.458-0.321-0.93-0.279-1.23,0.202c-0.286,0.46-0.055,0.839,0.396,1.066c0.352,0.177,0.723,0.314,1.083,0.478
		c1.237,0.557,1.742,1.327,1.544,2.35C45.985,36.95,45.017,37.607,43.747,37.596z"/>
	<path fill-rule="evenodd" clip-rule="evenodd" fill="#3C3F46" d="M58.102,33.464c-0.001,0.632,0.019,1.267-0.005,1.898
		c-0.06,1.555-0.768,2.233-2.296,2.229c-1.49-0.003-2.167-0.63-2.218-2.151c-0.041-1.306-0.012-2.611-0.01-3.915
		c0-0.406-0.008-0.777,0.593-0.798c0.656-0.022,0.687,0.357,0.686,0.829c-0.003,1.226-0.011,2.451,0.013,3.677
		c0.012,0.671,0.169,1.318,1.01,1.335c0.851,0.017,1.022-0.63,1.042-1.302c0.035-1.224,0.026-2.449,0.041-3.674
		c0.004-0.43-0.082-0.889,0.624-0.863c0.657,0.026,0.506,0.476,0.516,0.838C58.115,32.197,58.103,32.83,58.102,33.464z"/>
	<path fill-rule="evenodd" clip-rule="evenodd" fill="#3C3F46" d="M67.669,34.035c0.002-0.87,0.017-1.741-0.004-2.613
		c-0.012-0.504,0.179-0.708,0.694-0.693c0.911,0.027,1.822,0.008,2.732,0.011c0.284,0,0.549,0.008,0.572,0.412
		c0.025,0.451-0.24,0.532-0.592,0.538c-0.396,0.006-0.793,0.034-1.188,0.008c-0.669-0.045-0.896,0.242-0.896,0.904
		c0,0.66,0.219,0.969,0.892,0.904c0.117-0.011,0.238-0.002,0.355,0.006c0.344,0.027,0.758-0.046,0.766,0.497
		c0.007,0.561-0.417,0.494-0.756,0.483c-0.72-0.021-1.317-0.041-1.271,1.012c0.034,0.771,0.25,1.097,1.026,0.998
		c0.233-0.029,0.477-0.028,0.711,0.002c0.381,0.049,0.973-0.216,0.964,0.51c-0.009,0.724-0.602,0.483-0.979,0.492
		c-3.03,0.084-3.03,0.078-3.03-2.995C67.667,34.352,67.667,34.194,67.669,34.035z"/>
	<path fill-rule="evenodd" clip-rule="evenodd" fill="#3C3F46" d="M119.323,34.269c-0.001-2.527,0.906-3.613,2.799-3.564
		c1.011,0.028,1.646,0.505,1.917,1.454c0.075,0.26,0.441,0.629-0.017,0.809c-0.336,0.133-0.823,0.236-1.01-0.289
		c-0.214-0.596-0.469-1.188-1.225-1.013c-0.814,0.193-1.035,0.897-1.106,1.651c-0.08,0.832-0.113,1.66,0.227,2.454
		c0.185,0.43,0.482,0.749,0.955,0.8c0.496,0.051,0.867-0.239,1.004-0.68c0.209-0.672,0.715-0.842,1.172-0.526
		c0.433,0.296,0.009,0.795-0.173,1.142c-0.408,0.778-1.128,1.051-1.985,1.052c-0.966,0.002-1.672-0.423-2.141-1.247
		C119.353,35.631,119.306,34.879,119.323,34.269z"/>
	<path fill-rule="evenodd" clip-rule="evenodd" fill="#3C3F46" d="M95.018,35.802c-0.759-0.147-1.113,0.223-1.221,0.919
		c-0.081,0.521-0.396,0.814-0.908,0.666c-0.654-0.191-0.197-0.688-0.12-0.974c0.427-1.6,0.924-3.179,1.395-4.765
		c0.149-0.503,0.273-0.935,0.994-0.909c0.66,0.02,0.761,0.396,0.888,0.873c0.438,1.637,0.903,3.267,1.33,4.906
		c0.074,0.281,0.453,0.708-0.15,0.86c-0.455,0.116-0.867,0.046-0.979-0.546C96.119,36.159,95.873,35.596,95.018,35.802z
		 M94.921,32.328c-0.197,0.804-0.328,1.35-0.466,1.896c-0.058,0.23-0.16,0.507,0.151,0.59c0.254,0.069,0.554,0.07,0.808,0.006
		c0.313-0.079,0.215-0.367,0.172-0.594C95.479,33.669,95.402,33.1,94.921,32.328z"/>
	<path fill-rule="evenodd" clip-rule="evenodd" fill="#3C3F46" d="M106.621,34.011c0-0.12-0.003-0.238,0-0.356
		c0.093-3.51-0.645-2.81,3.056-2.884c0.321-0.007,0.798-0.13,0.765,0.448c-0.029,0.552-0.5,0.383-0.818,0.415
		c-0.273,0.031-0.556,0.028-0.83,0.009c-0.719-0.056-0.967,0.269-0.964,0.979c0.002,0.689,0.194,1.005,0.941,1.003
		c0.389-0.002,1.115-0.354,1.143,0.386c0.027,0.775-0.715,0.423-1.097,0.429c-0.694,0.01-0.95,0.22-0.997,0.954
		c-0.064,0.996,0.377,1.205,1.244,1.198c0.475-0.002,1.335-0.302,1.324,0.46c-0.008,0.61-0.835,0.377-1.301,0.377
		c-2.794,0-2.431,0.283-2.466-2.47C106.618,34.641,106.621,34.326,106.621,34.011z"/>
	<path fill-rule="evenodd" clip-rule="evenodd" fill="#3C3F46" d="M49.128,34.574c0-0.595-0.03-1.192,0.008-1.783
		c0.04-0.651-0.073-1.098-0.877-0.999c-0.379,0.046-0.577-0.144-0.581-0.554c-0.004-0.455,0.263-0.506,0.615-0.504
		c1.031,0.008,2.062,0.005,3.093,0.005c0.303,0,0.54,0.054,0.545,0.445c0.005,0.379-0.109,0.656-0.523,0.604
		c-1.003-0.126-0.938,0.522-0.927,1.187c0.019,1.188,0.009,2.379,0.003,3.569c-0.002,0.457,0.127,0.97-0.65,0.979
		c-0.736,0.012-0.717-0.421-0.708-0.927C49.137,35.923,49.128,35.247,49.128,34.574z"/>
	<path fill-rule="evenodd" clip-rule="evenodd" fill="#3C3F46" d="M81.987,30.736c0.476,0,0.952-0.004,1.427,0.001
		c0.317,0.004,0.649-0.027,0.653,0.46c0.003,0.386-0.128,0.645-0.536,0.591c-0.893-0.114-0.934,0.413-0.918,1.08
		c0.028,1.268,0,2.538,0.011,3.808c0.004,0.475-0.013,0.848-0.667,0.85c-0.624,0.001-0.707-0.313-0.7-0.821
		c0.019-1.347-0.013-2.695,0.014-4.044c0.011-0.566-0.099-0.925-0.768-0.863c-0.394,0.037-0.696-0.06-0.689-0.57
		c0.007-0.573,0.403-0.481,0.745-0.489C81.035,30.728,81.511,30.736,81.987,30.736z"/>
	<path fill-rule="evenodd" clip-rule="evenodd" fill="#3C3F46" d="M130.121,30.827c-0.338,0.683-0.576,1.219-0.86,1.73
		c-0.678,1.22-1.247,2.454-1.079,3.915c0.052,0.431,0.004,0.919-0.629,0.918c-0.675,0-0.617-0.532-0.564-0.938
		c0.206-1.549-0.443-2.84-1.136-4.133c-0.238-0.445-0.415-0.926-0.65-1.464c2.015-0.463,1.561,1.631,2.485,2.222
		C128.719,32.624,128.13,30.514,130.121,30.827z"/>
	<path fill-rule="evenodd" clip-rule="evenodd" fill="#3C3F46" d="M134.484,34.15c0,1.587,0.009,3.171-0.007,4.758
		c-0.002,0.282,0.143,0.702-0.349,0.742c-0.595,0.048-0.46-0.429-0.461-0.75c-0.011-3.172-0.011-6.344,0.001-9.517
		c0.001-0.282-0.141-0.703,0.35-0.742c0.593-0.049,0.459,0.427,0.46,0.751C134.492,30.979,134.484,32.563,134.484,34.15z"/>
	<path fill-rule="evenodd" clip-rule="evenodd" fill="#3C3F46" d="M37.235,34.27c0,1.547,0.008,3.094-0.007,4.639
		c-0.003,0.285,0.118,0.72-0.344,0.755c-0.582,0.048-0.444-0.454-0.445-0.767c-0.013-3.173-0.011-6.345,0-9.516
		c0-0.286-0.112-0.723,0.343-0.759c0.577-0.046,0.441,0.457,0.445,0.771C37.245,31.019,37.235,32.645,37.235,34.27z"/>
	<path fill-rule="evenodd" clip-rule="evenodd" fill="#3C3F46" d="M88.654,34.205c0,1.545,0.01,3.092-0.009,4.639
		c-0.005,0.313,0.151,0.822-0.395,0.822c-0.546,0-0.393-0.509-0.395-0.822c-0.014-3.133-0.014-6.266,0-9.398
		c0.001-0.316-0.145-0.826,0.395-0.826c0.54,0,0.391,0.51,0.395,0.828C88.664,31.033,88.653,32.62,88.654,34.205z"/>
</g>
</svg>
