<?xml version="1.0" encoding="utf-8"?>
<!DOCTYPE svg PUBLIC "-//W3C//DTD SVG 1.1//EN" "http://www.w3.org/Graphics/SVG/1.1/DTD/svg11.dtd">
<svg version="1.1" id="gwtrain" xmlns="http://www.w3.org/2000/svg" xmlns:xlink="http://www.w3.org/1999/xlink" x="0px" y="0px"
	 width="200px" height="40px" viewBox="0 0 200 40" enable-background="new 0 0 200 40" xml:space="preserve">
<g>
	<path fill-rule="evenodd" clip-rule="evenodd" fill="#3C3F46" d="M88.794,12.629c-1.41,0-2.577,0-4.054,0
		c0.586-1.826,1.064-3.466,1.671-5.057c0.104-0.272,0.759-0.472,1.16-0.473c8.79-0.016,17.581-0.052,26.367,0.039
		c3.031,0.032,4.133,1.667,3.347,4.619c-0.646,2.414-1.333,4.819-2.113,7.192c-1.191,3.622-3.168,4.992-7.021,5.043
		c-0.399,0.006-0.799,0.04-1.202,0.063c0.293,2.403,0.905,2.973,3.131,2.97c1.446-0.001,2.891,0,4.697,0
		c-0.612,1.924-1.084,3.56-1.681,5.146c-0.104,0.271-0.752,0.472-1.151,0.477c-2.823,0.04-5.646,0.015-8.47,0.021
		c-1.26,0.002-2.046-0.604-2.432-1.789c-0.604-1.857-1.277-3.694-1.813-5.571c-0.283-0.989-0.724-1.467-1.799-1.335
		c-0.706,0.087-1.432,0.017-2.48,0.017c0.575-1.83,0.995-3.438,1.62-4.963c0.142-0.347,0.984-0.559,1.51-0.571
		c2.595-0.057,5.193-0.075,7.787-0.006c1.318,0.035,2.055-0.517,2.392-1.735c0.243-0.877,0.508-1.747,0.749-2.624
		c0.258-0.942-0.167-1.406-1.093-1.41c-3.597-0.014-7.196-0.045-10.792,0.048c-0.382,0.01-0.936,0.733-1.087,1.225
		c-1.728,5.602-3.436,11.21-5.043,16.847c-0.408,1.428-1.03,2.028-2.563,1.903c-1.752-0.143-3.525-0.033-5.616-0.033
		C84.833,25.908,86.774,19.399,88.794,12.629z"/>
	<path fill-rule="evenodd" clip-rule="evenodd" fill="#3C3F46" d="M57.015,7.215c-0.48,1.693-0.878,3.32-1.443,4.887
		c-0.105,0.294-0.875,0.493-1.338,0.494c-7.967,0.03-15.935,0.02-23.902,0.022c-4.051,0.001-8.104-0.031-12.155,0.026
		c-4.299,0.061-6.938,2.106-8.171,6.222c-0.691,2.307-1.365,4.62-2.033,6.933c-0.135,0.465-0.204,0.949-0.347,1.635
		c0.774,0,1.396,0,2.016,0c3.506,0,7.012,0.023,10.517-0.018c0.771-0.01,1.13,0.206,1.311,0.979c0.32,1.362,0.756,2.697,1.194,4.22
		c-1.255,0-2.375,0-3.496,0c-4.371,0-8.741,0.01-13.112-0.002c-4.058-0.012-6.333-3.058-5.218-6.974
		c0.796-2.797,1.613-5.588,2.418-8.382C5.079,10.932,9.78,7.146,16.32,7.103c13.203-0.086,26.406-0.027,39.609-0.021
		C56.235,7.082,56.542,7.155,57.015,7.215z"/>
	<path fill-rule="evenodd" clip-rule="evenodd" fill="#3C3F46" d="M175.019,17.282c-1.379,4.624-2.804,9.318-4.161,14.032
		c-0.288,1.003-0.769,1.429-1.826,1.375c-1.394-0.071-2.795-0.018-4.531-0.018c2.02-6.779,3.967-13.315,5.971-20.047
		c-1.435,0-2.643,0-4.102,0c0.554-1.791,0.992-3.399,1.583-4.95c0.117-0.311,0.811-0.56,1.242-0.57
		c2.321-0.055,4.651-0.11,6.966,0.025c0.697,0.041,1.562,0.533,2.007,1.093c3.674,4.626,7.271,9.316,10.877,13.974
		c1.292-4.338,2.675-8.771,3.906-13.248c0.402-1.457,1.075-2.038,2.571-1.896c1.205,0.113,2.428,0.022,3.924,0.022
		c-0.46,1.611-0.823,2.95-1.221,4.278c-1.98,6.618-3.993,13.225-5.933,19.854c-0.362,1.235-0.911,1.681-2.265,1.75
		c-2.078,0.105-3.431-0.546-4.682-2.257C182.02,26.15,178.481,21.755,175.019,17.282z"/>
	<path fill-rule="evenodd" clip-rule="evenodd" fill="#3C3F46" d="M114.788,32.239c5.346-6.42,10.692-12.839,16.238-19.5
		c-1.512,0-2.779,0-4.447,0c0.621-1.932,1.114-3.593,1.716-5.214c0.091-0.246,0.692-0.422,1.057-0.426
		c3.913-0.03,7.826-0.014,11.739-0.025c0.813-0.003,1.203,0.347,1.395,1.156c1.817,7.687,3.659,15.369,5.52,23.045
		c0.241,0.992,0.063,1.444-1.062,1.412c-1.954-0.055-3.913-0.043-5.867-0.002c-0.793,0.017-1.164-0.305-1.295-1.058
		c-0.171-0.983-0.311-1.985-0.625-2.926c-0.122-0.369-0.678-0.841-1.04-0.847c-3.913-0.061-7.826-0.061-11.737-0.008
		c-0.46,0.007-0.962,0.371-1.359,0.681c-0.347,0.271-0.653,0.66-0.845,1.061c-2.048,4.25-5.813,2.957-9.152,3.036
		C114.944,32.496,114.866,32.368,114.788,32.239z M137.999,22.461c-0.486-2.828-0.958-5.566-1.487-8.64
		c-2.339,3.011-4.461,5.743-6.708,8.64C132.672,22.461,135.282,22.461,137.999,22.461z"/>
	<path fill-rule="evenodd" clip-rule="evenodd" fill="#3C3F46" d="M13.75,19.977c0.273-2.606,2.031-4.432,4.433-4.54
		c2.454-0.109,4.916-0.007,7.373-0.067c0.958-0.023,0.958,0.67,1.125,1.244c1.002,3.431,1.983,6.869,3.239,10.338
		c0.628-2.151,1.254-4.303,1.883-6.454c0.408-1.395,0.854-2.78,1.214-4.186c0.177-0.691,0.484-0.963,1.218-0.942
		c1.729,0.049,3.46,0.054,5.188-0.001c0.815-0.026,1.184,0.216,1.411,1.047c0.958,3.501,2.004,6.977,3.264,10.517
		c0.345-1.127,0.704-2.25,1.031-3.382c0.682-2.356,1.369-4.711,2.004-7.08c0.205-0.763,0.507-1.137,1.383-1.107
		c1.997,0.069,3.997,0.022,6.186,0.022c-1.666,5.785-3.292,11.436-4.96,17.228c-2.825,0-5.632,0.024-8.437-0.038
		c-0.276-0.007-0.68-0.504-0.787-0.848c-0.796-2.553-1.532-5.124-2.385-8.028c-0.75,2.575-1.526,4.808-2.023,7.1
		c-0.327,1.508-1.005,1.95-2.486,1.852c-1.993-0.134-4.003-0.067-6.005-0.018c-0.805,0.02-1.181-0.191-1.409-1.035
		c-0.949-3.506-2.036-6.975-2.981-10.481c-0.255-0.947-0.685-1.182-1.604-1.161C19.034,20.017,16.442,19.977,13.75,19.977z"/>
	<path fill-rule="evenodd" clip-rule="evenodd" fill="#3C3F46" d="M60.348,32.672c2.041-6.829,3.985-13.332,5.979-20.003
		c-3.04,0-5.888,0-9.064,0c0.566-1.817,1.026-3.449,1.615-5.032c0.106-0.287,0.746-0.531,1.14-0.532
		c7.87-0.03,15.739-0.024,23.608-0.014c0.258,0,0.516,0.119,0.97,0.231c-0.501,1.605-0.924,3.177-1.514,4.684
		c-0.133,0.339-0.844,0.624-1.297,0.637c-2.227,0.065-4.459,0.092-6.685,0.001c-0.987-0.04-1.315,0.349-1.568,1.213
		c-1.697,5.793-3.467,11.564-5.153,17.361c-0.303,1.043-0.756,1.519-1.886,1.474C64.554,32.617,62.609,32.672,60.348,32.672z"/>
	<path fill-rule="evenodd" clip-rule="evenodd" fill="#3C3F46" d="M165.555,7.075c-0.775,2.613-1.45,4.909-2.139,7.201
		c-1.696,5.65-3.431,11.288-5.068,16.954c-0.334,1.155-0.903,1.505-2.034,1.462c-1.894-0.072-3.79-0.02-5.939-0.02
		c0.433-1.536,0.777-2.837,1.164-4.125c1.965-6.563,3.979-13.113,5.887-19.693c0.404-1.395,1.073-1.898,2.502-1.806
		C161.681,7.162,163.448,7.075,165.555,7.075z"/>
</g>
</svg>
