<?xml version="1.0" encoding="utf-8"?>
<!DOCTYPE svg PUBLIC "-//W3C//DTD SVG 1.1//EN" "http://www.w3.org/Graphics/SVG/1.1/DTD/svg11.dtd">
<svg version="1.1" id="outdoor" xmlns="http://www.w3.org/2000/svg" xmlns:xlink="http://www.w3.org/1999/xlink" x="0px" y="0px"
	 width="200px" height="40px" viewBox="0 0 200 40" enable-background="new 0 0 200 40" xml:space="preserve">
<g>
	<path fill-rule="evenodd" clip-rule="evenodd" fill="#3C3F46" d="M88.163,37.521c0.769-0.99,1.543-1.988,2.403-3.095
		c-1.074-0.363-2.028-0.701-2.99-1.01c-4.011-1.284-8.027-2.552-12.035-3.845c-1.461-0.472-1.362-0.613-1.122-2.061
		c0.254-1.536,0.215-3.136,0.149-4.701c-0.016-0.358-0.664-0.691-1.075-1.088c-0.288,0.32-0.48,0.512-0.646,0.723
		c-2.374,3.026-4.752,6.051-7.104,9.095c-0.248,0.321-0.319,0.773-0.512,1.145c-0.1,0.193-0.287,0.342-0.435,0.511
		c-0.141-0.177-0.377-0.34-0.403-0.531c-0.061-0.457-0.061-0.933-0.01-1.392c0.034-0.304,0.199-0.593,0.306-0.888
		c0.254,0.188,0.508,0.378,0.826,0.614c1.927-2.457,3.914-4.992,5.901-7.526c0.287-0.366,0.563-0.741,0.861-1.099
		c0.36-0.432,0.618-0.829,0.501-1.482c-0.068-0.382,0.257-0.863,0.473-1.262c2.202-4.059,4.473-8.082,6.603-12.178
		c0.881-1.696,1.495-3.535,2.174-5.33c0.291-0.769,0.753-1.017,1.505-0.792c8.827,2.633,17.593,1.882,26.317-0.512
		c3.022-0.83,2.531-1.047,3.723,1.74c2.101,4.913,4.484,9.677,7.604,14.039c1.613,2.255,3.58,4.149,5.659,5.999
		c2.315,2.06,5.197,3.045,7.518,4.757c0.426-0.188,0.723-0.318,1.02-0.449c0.087,0.31,0.217,0.614,0.247,0.929
		c0.042,0.431,0.049,0.874-0.012,1.3c-0.028,0.192-0.254,0.356-0.391,0.534c-0.151-0.161-0.455-0.351-0.431-0.479
		c0.206-1.104-0.591-1.416-1.326-1.826c-1.786-0.997-3.585-1.978-5.323-3.055c-0.954-0.592-1.74,0.258-2.62,0.138
		c-0.023-0.004-0.192,0.495-0.16,0.742c0.17,1.317,0.334,2.639,0.597,3.939c0.227,1.119,0.043,1.433-1.057,1.684
		c-7.486,1.709-14.971,3.426-22.448,5.171c-1.444,0.338-2.87,1.17-4.281,1.122c-1.375-0.047-2.719-0.933-4.079-1.444
		c-0.58-0.218-1.2-0.355-1.741-0.645c-0.968-0.518-1.574-0.229-2.132,0.646c-0.498,0.781-1.162,1.454-1.693,2.217
		c-0.289,0.415-0.435,0.925-0.68,1.374c-0.102,0.187-0.293,0.325-0.443,0.484c-0.13-0.182-0.344-0.352-0.374-0.549
		c-0.065-0.426-0.08-0.87-0.032-1.298c0.034-0.302,0.203-0.589,0.311-0.883C87.563,37.158,87.819,37.313,88.163,37.521z
		 M111.825,8.673c1.401,5.818,2.827,11.773,4.274,17.722c0.361,1.486,0.393,1.481,1.907,1.305c1.836-0.215,3.673-0.434,5.572-0.657
		c-0.051-0.792-0.148-1.53-0.13-2.266c0.019-0.759,0.151-1.514,0.244-2.366c-5.277-5.191-8.554-11.815-11.696-18.665
		c-0.164,0.299-0.249,0.427-0.311,0.566c-3.536,7.936-7.864,15.396-13.313,22.185c-0.146,0.181-0.314,0.45-0.284,0.648
		c0.274,1.758,0.592,3.51,0.897,5.271c2.573-0.784,5.021-1.558,7.488-2.263c0.611-0.175,0.914-0.47,1.113-1.061
		C109.845,22.406,111.581,15.615,111.825,8.673z M76.602,23.523c0,0.855-0.056,1.541,0.027,2.21c0.034,0.273,0.322,0.664,0.573,0.74
		c5.099,1.538,10.208,3.043,15.321,4.53c0.245,0.071,0.665,0.022,0.813-0.142c0.614-0.679,1.154-1.424,1.834-2.288
		C88.651,27.858,82.555,26.314,76.602,23.523z M84.475,3.895c5.236,2.478,15.879,1.951,21.322-0.034
		C98.689,4.83,91.582,5.445,84.475,3.895z M98.6,23.133c4.938-5.26,8.11-11.551,10.729-18.167
		C105.884,11.102,102.722,17.405,98.6,23.133z M93.076,26.394c-5.498-1.535-10.772-3.009-16.048-4.479
		C81.964,24.594,87.294,25.881,93.076,26.394z M93.641,31.339c1.184,0.407,2.222,0.764,3.431,1.18
		c-0.199-1.263-0.33-2.385-0.565-3.483c-0.141-0.66-0.594-0.549-0.937-0.142C94.938,29.645,94.351,30.434,93.641,31.339z"/>
	<path fill-rule="evenodd" clip-rule="evenodd" fill="#3C3F46" d="M110.985,11.099c-0.382,5.153-1.402,10.156-3.216,14.99
		C108.842,21.093,109.914,16.096,110.985,11.099z"/>
	<path fill-rule="evenodd" clip-rule="evenodd" fill="#3C3F46" d="M113.164,10.405c1.12,4.739,2.24,9.478,3.359,14.217
		C114.74,20.065,113.725,15.324,113.164,10.405z"/>
</g>
</svg>
