<?xml version="1.0" encoding="utf-8"?>
<!DOCTYPE svg PUBLIC "-//W3C//DTD SVG 1.1//EN" "http://www.w3.org/Graphics/SVG/1.1/DTD/svg11.dtd">
<svg version="1.1" id="idos" xmlns="http://www.w3.org/2000/svg" xmlns:xlink="http://www.w3.org/1999/xlink" x="0px" y="0px"
	 width="200px" height="40px" viewBox="0 0 200 40" enable-background="new 0 0 200 40" xml:space="preserve">
<g>
	<path fill-rule="evenodd" clip-rule="evenodd" fill="#3C3F46" d="M121.773,5.248c5.251-0.073,10.025,0.033,14.578,1.814
		c2.657,1.039,4.769,2.592,5.513,5.578c0.385,1.548,0.015,2.956-0.445,4.367c-1.822,5.606-5.729,9.563-10.513,12.648
		c-7.623,4.916-15.953,6.485-24.741,3.987c-5.33-1.514-9.535-4.699-10.881-10.43c-1.141-4.854,0.173-9.132,4.094-12.371
		c3.968-3.279,8.742-4.614,13.736-5.21C116.134,5.271,119.179,5.076,121.773,5.248z M120.472,10.625
		c-0.816,0.093-1.68,0.246-2.544,0.277c-6.265,0.219-10.479,3.629-9.441,11.65c0.622,4.817,5.744,7.957,9.897,5.842
		c5.249-2.673,8.983-6.781,10.211-12.767c0.449-2.191-0.273-3.333-2.381-4.132C124.371,10.793,122.411,10.994,120.472,10.625z"/>
	<path fill-rule="evenodd" clip-rule="evenodd" fill="#3C3F46" d="M48.637,11.298c1.36-1.836,2.45-3.264,3.486-4.727
		c0.466-0.655,1.096-0.743,1.796-0.739c8.887,0.066,17.776-0.216,26.658,0.177c2.62,0.115,5.126,0.91,7.407,2.265
		c3.112,1.848,4.333,4.963,3.366,8.458c-1.235,4.456-4.286,7.476-7.944,9.981c-5.276,3.61-11.295,5.354-17.464,6.546
		c-6.424,1.238-12.944,1.315-19.471,1.065c-1.443-0.054-1.966-0.354-1.5-1.944c1.689-5.764,3.279-11.562,4.84-17.363
		c0.348-1.292,0.962-1.823,2.332-1.781c2.857,0.088,5.719,0.096,8.576,0c1.652-0.056,1.86,0.581,1.443,1.988
		c-1.126,3.798-2.187,7.619-3.249,11.437c-0.533,1.916-0.285,2.319,1.666,2.054c5.235-0.711,10.137-2.345,14.322-5.72
		c1.124-0.905,2.004-2.035,2.703-3.293c3.035-5.464-0.685-8.23-4.873-8.352c-6.334-0.184-12.678-0.05-19.017-0.051
		C52.176,11.297,50.637,11.298,48.637,11.298z"/>
	<path fill-rule="evenodd" clip-rule="evenodd" fill="#3C3F46" d="M156.005,34.146c-2.922,0.001-5.846-0.049-8.769,0.025
		c-1.256,0.03-1.908-0.276-2.105-1.648c-0.597-4.189-1.531-3.776,3.03-3.789c2.924-0.008,5.847-0.001,8.769-0.004
		c0.499,0,1.002,0.037,1.491-0.027c1.228-0.157,2.711-0.174,3.185-1.511c0.515-1.458-0.979-1.913-1.863-2.637
		c-3.217-2.642-6.531-5.181-9.589-7.999c-2.741-2.525-2.447-5.024,0.518-7.343c3.446-2.696,7.521-3.454,11.737-3.552
		c4.475-0.104,8.955,0.009,13.431-0.054c1.148-0.016,1.642,0.375,1.923,1.478c1.076,4.215,1.107,4.206-3.17,4.206
		c-2.859,0-5.721,0-8.582,0.001c-0.436,0.001-0.876-0.025-1.305,0.031c-1.025,0.132-2.052,0.48-2.36,1.524
		c-0.284,0.964,0.59,1.573,1.259,2.111c3.197,2.569,6.35,5.202,9.647,7.637c4.423,3.268,2.579,7.117-0.721,9.113
		c-2.392,1.445-5,2.144-7.755,2.36c-0.806,0.063-1.617,0.065-2.426,0.07C160.235,34.147,158.121,34.144,156.005,34.146z"/>
	<path fill-rule="evenodd" clip-rule="evenodd" fill="#3C3F46" d="M27.721,34.268c-1.614,0-3.227-0.004-4.842,0.004
		c-0.992,0.006-1.482-0.214-1.139-1.424c2.43-8.581,4.803-17.178,7.181-25.773c0.26-0.939,0.841-1.261,1.778-1.252
		c3.043,0.029,6.089,0.021,9.133,0.006c1.259-0.005,1.598,0.414,1.226,1.719c-2.393,8.396-4.731,16.809-7.014,25.234
		c-0.347,1.279-0.964,1.708-2.224,1.63c-1.36-0.084-2.732-0.02-4.1-0.02C27.721,34.352,27.721,34.31,27.721,34.268z"/>
</g>
</svg>
