<?xml version="1.0" encoding="utf-8"?>
<!DOCTYPE svg PUBLIC "-//W3C//DTD SVG 1.1//EN" "http://www.w3.org/Graphics/SVG/1.1/DTD/svg11.dtd">
<svg version="1.1" id="arriva" xmlns="http://www.w3.org/2000/svg" xmlns:xlink="http://www.w3.org/1999/xlink" x="0px" y="0px"
	 width="200px" height="40px" viewBox="0 0 200 40" enable-background="new 0 0 200 40" xml:space="preserve">
<g>
	<path fill-rule="evenodd" clip-rule="evenodd" fill="#3C3F46" d="M106.923,30.722c-1.91,0-3.804,0.005-5.695-0.007
		c-0.377-0.002-0.499-0.359-0.679-0.609c-1.87-2.603-3.729-5.215-5.599-7.821c-0.333-0.466-0.675-0.911-1.333-0.965
		c-0.624-0.053-0.912,0.09-0.9,0.808c0.04,2.541-0.017,5.082,0.034,7.621c0.015,0.8-0.222,1.05-1.014,1.001
		c-1.075-0.064-2.158-0.039-3.237-0.006c-0.547,0.016-0.702-0.191-0.701-0.721c0.013-7.716,0.009-15.433,0.009-23.149
		c0-0.352-0.045-0.721,0.498-0.707c3.489,0.093,6.996-0.293,10.461,0.256c3.432,0.544,6.027,3.226,6.407,6.409
		c0.389,3.276-1.395,6.36-4.585,7.811c-0.584,0.267-0.504,0.442-0.197,0.858c2.015,2.734,4.014,5.481,6.009,8.231
		C106.596,30.001,106.892,30.226,106.923,30.722z M92.734,13.85c0,0.953,0.005,1.906-0.003,2.858
		c-0.003,0.371,0.085,0.597,0.526,0.593c1.363-0.013,2.733,0.102,4.082-0.202c1.632-0.368,2.736-1.619,2.736-3.101
		c0.001-1.523-1.123-2.854-2.737-3.222c-1.35-0.307-2.722-0.138-4.083-0.187c-0.443-0.016-0.527,0.223-0.523,0.592
		C92.741,12.071,92.734,12.96,92.734,13.85z"/>
	<path fill-rule="evenodd" clip-rule="evenodd" fill="#3C3F46" d="M128.639,30.733c-1.646,0-3.132-0.081-4.6,0.026
		c-1.121,0.082-1.785-0.302-2.404-1.228c-1.552-2.318-3.218-4.565-4.845-6.836c-0.259-0.36-0.535-0.711-0.838-1.032
		c-0.396-0.42-0.946-0.446-1.424-0.291c-0.465,0.153-0.249,0.662-0.249,1.011c-0.019,2.444-0.052,4.891,0.013,7.333
		c0.023,0.88-0.271,1.097-1.079,1.032c-0.82-0.067-1.648-0.01-2.475-0.017c-1.594-0.016-1.391,0.168-1.391-1.346
		c-0.008-6.67-0.004-13.338-0.004-20.007c0-0.859,0.004-1.716,0-2.572c0-0.333-0.004-0.65,0.472-0.639
		c3.521,0.091,7.06-0.302,10.558,0.264c3.37,0.544,5.92,3.192,6.339,6.372c0.425,3.23-1.39,6.405-4.56,7.824
		c-0.674,0.3-0.489,0.51-0.183,0.925c2.015,2.736,4.011,5.483,6.015,8.229C128.167,30.033,128.337,30.294,128.639,30.733z
		 M114.274,13.941c0,0.92,0.005,1.842-0.004,2.763c-0.005,0.367,0.076,0.602,0.522,0.597c1.331-0.015,2.669,0.098,3.987-0.183
		c1.699-0.361,2.834-1.604,2.835-3.114c0-1.559-1.147-2.888-2.826-3.247c-1.321-0.283-2.659-0.121-3.99-0.167
		c-0.439-0.016-0.533,0.213-0.53,0.586C114.279,12.098,114.274,13.02,114.274,13.941z"/>
	<path fill-rule="evenodd" clip-rule="evenodd" fill="#3C3F46" d="M82.794,30.733c-2.784,0-2.785,0-3.857-2.61
		c-0.314-0.764-0.66-1.517-0.928-2.295c-0.179-0.512-0.471-0.656-0.99-0.652c-3.05,0.021-6.1,0.022-9.15-0.001
		c-0.523-0.004-0.797,0.157-0.991,0.655c-0.541,1.389-1.171,2.743-1.698,4.139c-0.232,0.614-0.564,0.804-1.201,0.78
		c-1.301-0.05-2.605-0.031-3.907-0.01c-0.544,0.01-0.647-0.131-0.429-0.654c2.982-7.179,5.949-14.363,8.914-21.549
		c0.686-1.664,1.877-2.5,3.706-2.375c0.444,0.029,0.89,0.004,1.335,0.004c2.016,0,2.016,0,2.768,1.818
		c3.004,7.272,6.002,14.55,9.024,21.813c0.296,0.709,0.304,1.03-0.593,0.95C84.131,30.686,83.461,30.733,82.794,30.733z
		 M72.543,11.385c-0.074-0.009-0.151-0.017-0.226-0.026c-1.184,3.124-2.364,6.247-3.551,9.37c-0.148,0.386,0.068,0.433,0.361,0.433
		c2.337,0,4.672,0,7.133,0C74.99,17.818,73.766,14.602,72.543,11.385z"/>
	<path fill-rule="evenodd" clip-rule="evenodd" fill="#3C3F46" d="M172.497,25.187c-1.556,0-3.112,0.016-4.669-0.01
		c-0.486-0.009-0.737,0.155-0.919,0.614c-0.56,1.415-1.188,2.804-1.746,4.221c-0.201,0.504-0.446,0.755-1.035,0.735
		c-1.301-0.044-2.605-0.031-3.905-0.008c-0.583,0.011-0.813-0.067-0.535-0.736c2.972-7.148,5.915-14.308,8.869-21.462
		c0.681-1.651,1.872-2.497,3.707-2.385c0.887,0.054,1.78,0.04,2.668-0.002c0.541-0.026,0.778,0.198,0.974,0.675
		c3.186,7.747,6.38,15.49,9.596,23.224c0.251,0.603,0.096,0.697-0.467,0.688c-1.46-0.021-2.922-0.028-4.381,0.006
		c-0.51,0.01-0.726-0.208-0.898-0.645c-0.546-1.388-1.165-2.746-1.68-4.146c-0.23-0.623-0.563-0.801-1.195-0.783
		C175.42,25.216,173.957,25.186,172.497,25.187z M172.367,11.244c-1.189,3.148-2.356,6.26-3.552,9.361
		c-0.228,0.59,0.109,0.559,0.484,0.559c2.062,0,4.126-0.018,6.187,0.009c0.666,0.008,0.729-0.195,0.502-0.776
		c-1.026-2.627-2.011-5.27-3.02-7.901C172.813,12.087,172.744,11.633,172.367,11.244z"/>
	<path fill-rule="evenodd" clip-rule="evenodd" fill="#3C3F46" d="M22.844,11.116C24.48,3.64,31.776,0.654,38.215,2.062
		c8.139,1.78,14.374,9.408,14.294,17.613c-0.059,5.99-3.597,10.849-8.967,12.306c-0.478,0.129-0.968,0.222-1.667,0.379
		c8.657-4.978,8.03-13.913,4.589-19.482c-0.178,0.544,0.137,0.995,0.169,1.474c0.104,1.525-0.109,2.997-0.827,4.342
		c-2.391,4.488-5.826,7.891-10.543,9.912c-0.784,0.337-1.622,0.521-2.475,0.653c-2.838,0.434-4.686-1.079-6.198-2.996
		c7.781,0.257,12.794-3.974,16.451-10.365c0.568-0.994,0.9-2.099,1.016-3.25c0.253-2.53-1.059-4.259-3.033-5.527
		c-2.367-1.524-5.051-2.045-7.824-1.946c-4.199,0.151-7.57,1.91-9.965,5.422C23.113,10.776,22.975,10.944,22.844,11.116z"/>
	<path fill-rule="evenodd" clip-rule="evenodd" fill="#3C3F46" d="M138.353,6.171c1.933,0,3.731-0.002,5.53,0
		c0.534,0,0.537,0.469,0.663,0.8c2.211,5.742,4.41,11.485,6.617,17.232c0.109,0.288,0.236,0.572,0.43,1.033
		c0.203-0.472,0.352-0.795,0.477-1.125c2.19-5.681,4.386-11.36,6.546-17.052c0.249-0.657,0.554-0.948,1.296-0.914
		c1.39,0.065,2.791,0.036,4.189,0.012c0.599-0.012,0.7,0.142,0.464,0.709c-3.219,7.761-6.425,15.531-9.616,23.303
		c-0.196,0.476-0.484,0.579-0.947,0.571c-1.522-0.022-3.049-0.049-4.569,0.01c-0.728,0.03-1.051-0.235-1.318-0.891
		c-2.407-5.902-4.848-11.79-7.28-17.682C140.026,10.221,139.218,8.263,138.353,6.171z"/>
	<path fill-rule="evenodd" clip-rule="evenodd" fill="#3C3F46" d="M53.12,30.524c-2.07,4.834-5.94,7.581-10.871,8.798
		c-7.162,1.767-13.518-0.299-19.116-4.791c-5.29-4.244-8.079-9.891-8.671-16.651c-0.52-5.952,1.542-10.892,5.776-14.98
		c1.502-1.448,3.397-2.25,5.386-2.851c-3.037,2.008-5.149,4.744-6.249,8.167c-2.255,7.022-0.769,13.451,3.6,19.199
		c4.275,5.629,10.069,8.681,17.148,8.907c4.842,0.152,9.103-1.476,12.425-5.167C52.738,30.947,52.929,30.735,53.12,30.524z"/>
	<path fill-rule="evenodd" clip-rule="evenodd" fill="#3C3F46" d="M136.49,18.54c0,3.742-0.017,7.487,0.015,11.231
		c0.007,0.708-0.128,1.025-0.921,0.979c-1.203-0.068-2.412-0.036-3.615-0.01c-0.521,0.011-0.729-0.146-0.729-0.699
		c0.014-7.107-0.002-14.216,0.024-21.323c0.005-1.548,0.951-2.455,2.504-2.539c0.633-0.035,1.275,0.033,1.904-0.024
		c0.695-0.063,0.837,0.224,0.831,0.868C136.477,10.861,136.49,14.701,136.49,18.54z"/>
	<path fill-rule="evenodd" clip-rule="evenodd" fill="#3C3F46" d="M26.151,21.197c0.041-0.879,0.377-1.934,0.917-2.914
		c2.115-3.833,5.201-6.597,9.238-8.288c1.098-0.459,2.254-0.648,3.447-0.476c1.172,0.17,2.041,1.115,2.098,2.245
		c0.018,0.36-0.02,0.594-0.485,0.61c-2.426,0.083-4.428,1.23-6.312,2.619c-2.277,1.678-4.176,3.699-5.451,6.257
		c-0.34,0.684-0.66,1.395-0.688,2.158c-0.025,0.729-0.364,0.768-0.919,0.613C26.838,23.704,26.159,22.765,26.151,21.197z"/>
</g>
</svg>
