<?xml version="1.0" encoding="utf-8"?>
<!DOCTYPE svg PUBLIC "-//W3C//DTD SVG 1.1//EN" "http://www.w3.org/Graphics/SVG/1.1/DTD/svg11.dtd">
<svg version="1.1" id="bikes" xmlns="http://www.w3.org/2000/svg" xmlns:xlink="http://www.w3.org/1999/xlink" x="0px" y="0px"
	 width="200px" height="40px" viewBox="0 0 200 40" enable-background="new 0 0 200 40" xml:space="preserve">
<path fill-rule="evenodd" clip-rule="evenodd" fill="#3C3F46" d="M114.69,13.192c-0.329-0.932-0.649-1.846-0.969-2.756
	c-0.577,0.144-0.577,0.144-0.939-0.71c-0.274-0.047-0.549,0.39-0.799,0.048c-0.168-0.229-0.229-0.538-0.342-0.823
	c-0.124,0.049-0.235,0.094-0.367,0.146c-0.166-0.191-0.333-0.382-0.571-0.656c-0.662,0.709-1.399,1.33-1.933,2.092
	c-3.44,4.923-6.836,9.876-10.246,14.82c-0.274,0.398-0.276,0.45,0.162,0.932c0.319,0.352,0.304,0.816,0.53,1.24
	c0.233,0.012,0.524,0.031,0.816,0.041c0.067,0.002,0.169-0.011,0.196-0.056c0.209-0.323,0.423-0.192,0.653-0.031
	c0.273,0.189,0.555,0.368,0.834,0.55c0.18,0.116,0.209,0.258,0.088,0.438c-0.119,0.178-0.262,0.22-0.435,0.086
	c-0.616-0.474-1.354-0.242-2.034-0.334c-0.084-0.013-0.235,0.153-0.284,0.269c-0.086,0.203-0.078,0.453-0.184,0.64
	c-0.099,0.173-0.312,0.276-0.444,0.436c-0.078,0.092-0.098,0.234-0.152,0.373c-0.391-0.029-0.674,0.174-0.709,0.563
	c-0.435-0.184-0.742-0.075-0.906,0.322c-0.253-0.256-0.66-0.256-0.923-0.026c-0.416-0.206-0.846-0.262-1.271-0.203
	c-0.683,0.096-1.356,0.259-2.037,0.369c-0.247,0.041-0.341,0.185-0.431,0.385c-1.166,2.638-2.979,4.717-5.42,6.248
	c-6.962,4.369-16.397,1.604-19.891-5.828c-2.653-5.644-1.397-12.178,3.229-16.34c3.208-2.886,7.008-4.017,11.294-3.452
	c2.425,0.319,4.598,1.258,6.536,2.747c0.057,0.044,0.12,0.081,0.189,0.126c0.698-0.692,1.403-1.363,2.062-2.077
	c0.091-0.1,0.02-0.465-0.095-0.616c-0.371-0.487-0.392-0.471,0.118-0.773c-0.34-0.981-0.682-1.967-1.022-2.955
	c-0.534-1.549-1.072-3.096-1.594-4.648c-0.084-0.25-0.196-0.361-0.471-0.333c-0.916,0.092-1.761-0.117-2.536-0.62
	c-0.512-0.333-1.031-0.654-1.547-0.979c-0.021-0.013-0.042-0.038-0.063-0.037c-0.412,0.014-0.401-0.292-0.397-0.558
	c0.004-0.281,0.097-0.476,0.464-0.456c2.81,0.155,5.62,0.291,8.43,0.437c0.613,0.032,1.225,0.08,1.856,0.123
	c0,0.194,0.039,0.355-0.011,0.481c-0.047,0.119-0.175,0.272-0.286,0.289c-1.232,0.182-2.453,0.455-3.542,1.044
	c-0.376,0.204-0.785,0.189-1.156,0.415c0.866,2.506,1.729,5.005,2.608,7.553c0.296-0.108,0.57-0.202,0.839-0.31
	c0.22-0.088,0.379-0.062,0.469,0.183c0.093,0.254-0.068,0.329-0.256,0.396c-0.126,0.046-0.249,0.101-0.405,0.165
	c0.062,0.194,0.121,0.375,0.193,0.6c0.529-0.196,1.034-0.379,1.535-0.571c5.376-2.051,10.753-4.099,16.125-6.163
	c0.433-0.166,0.822-0.438,1.272-0.681c-0.218-0.486-0.423-0.944-0.63-1.399c-0.019-0.04-0.064-0.102-0.091-0.1
	c-0.585,0.049-0.446-0.485-0.597-0.77c-0.029-0.053,0.148-0.29,0.271-0.338c0.961-0.383,1.933-0.744,2.901-1.103
	c0.219-0.081,0.405-0.145,0.375-0.45c-0.008-0.082,0.163-0.254,0.263-0.262c0.405-0.03,0.813-0.015,1.22-0.014
	c0.21,0,0.327,0.096,0.313,0.317c-0.002,0.024,0.001,0.05-0.001,0.074c-0.051,0.761-0.123,1.531,0.869,1.841
	c-0.197,0.253-0.345,0.442-0.505,0.649c-0.249-0.183-0.474-0.349-0.627-0.462c0.342,0.921,0.767,1.888,1.062,2.894
	c0.558,1.893,0.672,3.821,0.333,5.782c-0.065,0.381,0.17,0.813,0.267,1.229c8.118-2.8,15.916,1.912,18.107,8.958
	c2.175,6.992-1.411,14.479-8.304,17.142c-6.881,2.66-14.594-0.487-17.676-7.225C105.082,24.975,107.522,16.782,114.69,13.192z
	 M121.959,27.174c0.147-0.088,0.295-0.175,0.494-0.294c-0.255-0.159-0.434-0.281-0.625-0.384c-0.057-0.03-0.144-0.005-0.217-0.005
	c0.007,0.073-0.011,0.162,0.024,0.219c0.1,0.165,0.221,0.316,0.332,0.473c-0.129-0.122-0.253-0.25-0.392-0.359
	c-0.063-0.052-0.156-0.07-0.235-0.104c-0.014,0.082-0.056,0.175-0.034,0.246c0.054,0.173,0.138,0.335,0.241,0.574
	C121.705,27.399,121.832,27.287,121.959,27.174z M81.596,20.494c0.032-0.125,0.046-0.257,0.097-0.373
	c0.619-1.402,1.244-2.802,1.887-4.247c-0.485-0.174-0.941-0.338-1.428-0.513c-0.667,2.434-1.321,4.822-1.993,7.273
	c0.483-0.386,0.811-0.78,0.999-1.299c0.107-0.299,0.297-0.569,0.449-0.852c-0.144,0.372-0.288,0.744-0.417,1.077
	c1.471-1.462,2.967-2.948,4.507-4.479c-0.664-0.394-1.314-0.779-2-1.185c-0.378,0.845-0.722,1.631-1.078,2.41
	C82.284,19.038,81.938,19.765,81.596,20.494z M108.101,7.516c-0.017-0.022-0.032-0.044-0.049-0.065
	c-5.338,1.979-10.676,3.96-16.022,5.942c0.034,0.126,0.055,0.221,0.086,0.311c1.219,3.523,2.451,7.043,3.643,10.577
	c0.147,0.436,0.388,0.54,0.763,0.563c0.163,0.01,0.372,0.077,0.48,0.001c0.15-0.103,0.225-0.314,0.331-0.481
	c2.841-4.443,5.682-8.886,8.522-13.33C106.604,9.862,107.352,8.688,108.101,7.516z M88.613,20.27
	c-0.703-0.864-1.373-1.687-2.069-2.542c-1.918,2.13-3.759,4.175-5.637,6.261c0.14-0.019,0.214-0.028,0.305-0.04
	c-0.047,0.151-0.086,0.275-0.161,0.518c0.259-0.073,0.451-0.089,0.604-0.176c1.765-1.008,3.523-2.026,5.283-3.042
	C87.466,20.942,87.994,20.631,88.613,20.27z M75.498,15.654c1.005,2.666,1.995,5.288,2.984,7.91c0.031-0.003,0.062-0.007,0.093-0.01
	c0.055-0.136,0.11-0.271,0.173-0.424c0.099,0.122,0.177,0.221,0.257,0.318c0.025-0.006,0.049-0.013,0.074-0.02
	c-0.129-2.795-0.259-5.592-0.39-8.42C77.574,15.042,76.541,15.276,75.498,15.654z M72.298,17.412
	c1.882,2.235,3.684,4.373,5.485,6.512c0.028-0.019,0.056-0.037,0.084-0.056c0.009-0.141,0.019-0.28,0.03-0.443
	c0.137,0.079,0.252,0.146,0.451,0.263c-1.093-2.689-2.147-5.282-3.24-7.971C74.154,16.293,73.253,16.836,72.298,17.412z
	 M77.626,24.06c0.018-0.028,0.036-0.056,0.054-0.082c-1.796-2.132-3.591-4.264-5.407-6.42c-0.856,0.714-1.551,1.522-2.135,2.457
	c2.392,1.488,4.744,2.952,7.17,4.461c-0.056-0.242-0.088-0.384-0.124-0.541C77.357,23.982,77.492,24.021,77.626,24.06z
	 M82.035,15.35c-1.072-0.286-2.131-0.405-3.231-0.353c0.132,2.862,0.261,5.662,0.391,8.462c0.046,0.02,0.093,0.041,0.139,0.063
	c0.237-0.3,0.581-0.565,0.69-0.906c0.389-1.217,0.7-2.459,1.037-3.691C81.384,17.74,81.707,16.555,82.035,15.35z M116.284,35.64
	c1.152-2.588,2.26-5.075,3.37-7.567c-0.21-0.137-0.391-0.254-0.58-0.376c-1.838,2.04-3.659,4.063-5.543,6.153
	C114.456,34.451,115.346,35.03,116.284,35.64z M111.457,31.18c0.566,0.974,1.24,1.795,2.05,2.531
	c1.845-2.051,3.666-4.073,5.489-6.098c-0.161-0.19-0.302-0.354-0.448-0.527C116.184,28.452,113.839,29.806,111.457,31.18z
	 M124.495,35.841c-0.967-2.567-1.916-5.085-2.869-7.613c-0.253,0.045-0.476,0.084-0.696,0.124c0.126,2.729,0.25,5.423,0.377,8.148
	C122.412,36.441,123.451,36.237,124.495,35.841z M118.15,25.855c-2.723,0.049-5.419,0.096-8.152,0.145
	c0.007,1.119,0.194,2.166,0.566,3.206c2.602-0.898,5.159-1.781,7.728-2.669C118.244,26.311,118.203,26.108,118.15,25.855z
	 M127.696,34.086c-1.812-2.151-3.541-4.204-5.274-6.261c-0.221,0.127-0.419,0.24-0.625,0.359c1.021,2.513,2.036,5.007,3.089,7.599
	C125.835,35.209,126.745,34.66,127.696,34.086z M76.882,25.19c-0.021-0.04-0.043-0.081-0.065-0.122
	c-2.625-0.8-5.25-1.599-7.887-2.402c-0.321,1.081-0.466,2.12-0.448,3.222c2.723-0.048,5.411-0.096,8.098-0.143
	c0.018-0.03,0.036-0.061,0.053-0.089c-0.091-0.036-0.181-0.071-0.242-0.096C76.588,25.414,76.735,25.303,76.882,25.19z M121.2,36.59
	c-0.134-2.837-0.261-5.529-0.389-8.244c-0.235-0.029-0.45-0.058-0.689-0.088c-0.724,2.641-1.44,5.253-2.187,7.975
	C119.031,36.353,120.084,36.468,121.2,36.59z M118.216,25.035c-2.604-0.792-5.191-1.579-7.782-2.369
	c-0.32,1.103-0.477,2.139-0.432,3.222c2.738-0.049,5.434-0.096,8.142-0.145C118.167,25.507,118.188,25.301,118.216,25.035z
	 M122.519,27.762c1.748,2.077,3.474,4.127,5.264,6.253c0.734-0.851,1.429-1.653,2.146-2.485c-2.365-1.471-4.638-2.886-6.907-4.299
	C122.842,27.422,122.69,27.581,122.519,27.762z M68.484,25.999c0.028,1.113,0.199,2.157,0.57,3.208
	c2.567-0.886,5.107-1.763,7.694-2.656c-0.15-0.065-0.254-0.111-0.367-0.161c0.141-0.163,0.465-0.203,0.276-0.533
	C73.952,25.903,71.245,25.951,68.484,25.999z M131.603,25.603c-2.784,0.056-5.429,0.106-8.073,0.159
	c-0.042,0.267-0.078,0.493-0.118,0.739c2.559,0.779,5.094,1.553,7.738,2.358C131.303,27.758,131.447,26.72,131.603,25.603z
	 M122.603,23.608c1.763-1.958,3.529-3.919,5.308-5.896c-0.84-0.743-1.723-1.327-2.73-1.771c-1.085,2.435-2.153,4.833-3.227,7.242
	C122.17,23.326,122.375,23.46,122.603,23.608z M123.17,24.288c2.295-1.326,4.575-2.643,6.949-4.014
	c-0.7-0.865-1.369-1.688-2.068-2.551c-1.84,2.044-3.601,4.001-5.363,5.958C122.854,23.89,122.999,24.072,123.17,24.288z
	 M121.44,23.017c0.701-2.558,1.398-5.103,2.1-7.665c-1.083-0.293-2.135-0.401-3.233-0.359c0.125,2.685,0.248,5.318,0.37,7.951
	C120.954,22.972,121.185,22.992,121.44,23.017z M130.945,22.289c-2.522,0.872-5.025,1.737-7.518,2.599
	c0.041,0.274,0.071,0.491,0.109,0.747c2.65-0.046,5.294-0.092,7.973-0.139C131.493,24.373,131.297,23.332,130.945,22.289z
	 M74.769,35.639c0.091-0.197,0.129-0.273,0.164-0.351c0.707-1.583,1.413-3.167,2.119-4.751c0.271-0.606,0.54-1.214,0.81-1.82
	c0.151-0.342-0.042-0.557-0.285-0.739c-0.273-0.206-0.336,0.107-0.446,0.221c-0.388,0.396-0.75,0.816-1.122,1.229
	c-1.302,1.445-2.603,2.892-3.977,4.419C72.947,34.446,73.834,35.027,74.769,35.639z M71.983,33.732
	c0.871-0.968,1.702-1.893,2.534-2.817c0.841-0.936,1.674-1.878,2.528-2.8c0.269-0.29,0.055-0.476-0.077-0.684
	c-0.15-0.236-0.32-0.119-0.5-0.015c-1.535,0.89-3.073,1.772-4.609,2.657c-0.636,0.367-1.268,0.739-1.939,1.131
	c0.365,0.498,0.691,0.978,1.055,1.428C71.275,33.004,71.621,33.342,71.983,33.732z M113.771,17.547
	c-0.841,0.748-1.558,1.531-2.125,2.468c2.131,1.327,4.234,2.636,6.4,3.984c-0.049-0.168-0.075-0.262-0.104-0.353
	c-0.345-1.119-0.746-2.187-1.593-3.07C115.438,19.628,114.638,18.576,113.771,17.547z M117.282,15.483
	c0.904,2.616,1.767,5.113,2.637,7.634c0.222-0.054,0.42-0.103,0.642-0.157c-0.122-2.659-0.244-5.297-0.37-8.034
	C119.188,15.119,118.265,15.295,117.282,15.483z M77.132,24.613c0.008-0.033,0.015-0.064,0.023-0.097
	c-2.354-1.466-4.707-2.933-7.129-4.44c-0.378,0.833-0.74,1.629-1.118,2.461c2.69,0.82,5.285,1.612,7.925,2.418
	c-0.067-0.115-0.111-0.191-0.162-0.279C76.84,24.652,76.986,24.633,77.132,24.613z M81.639,26.538
	c-0.271,0.385-0.03,0.604,0.212,0.757c2.075,1.308,4.157,2.604,6.248,3.884c0.107,0.066,0.418,0.021,0.461-0.062
	c0.361-0.692,0.682-1.406,1.034-2.152C86.875,28.135,84.256,27.337,81.639,26.538z M131.088,28.962
	c-2.626-0.802-5.172-1.577-7.726-2.356c-0.103,0.195-0.186,0.355-0.276,0.531c2.284,1.422,4.55,2.831,6.883,4.284
	C130.346,30.594,130.708,29.797,131.088,28.962z M118.303,24.943c-0.029-0.4-0.063-0.698-0.396-0.902
	c-2.043-1.263-4.079-2.533-6.12-3.801c-0.067-0.042-0.144-0.072-0.271-0.135c-0.37,0.815-0.729,1.604-1.104,2.432
	C113.074,23.351,115.655,24.136,118.303,24.943z M78.463,28.821c-0.67,2.446-1.337,4.879-2.01,7.335
	c1.086,0.26,2.133,0.42,3.233,0.333c-0.043-0.983-0.085-1.926-0.128-2.896c-0.458,0.027-0.811-0.115-0.975-0.539
	c-0.41-1.059-0.424-1.077,0.309-1.969c0.372-0.452,0.592-0.901,0.48-1.499c-0.051-0.273-0.028-0.562-0.042-0.913
	C78.887,29.104,78.887,29.104,78.463,28.821z M88.67,15.486c2.659,2.521,4.142,5.577,4.471,9.204c0.385,0,0.733,0,1.119,0
	c-1.256-3.64-2.502-7.248-3.764-10.903C89.866,14.372,89.283,14.916,88.67,15.486z M88.069,31.31
	c-0.827-0.515-1.579-0.983-2.33-1.451c-1.328-0.826-2.654-1.658-3.99-2.474c-0.131-0.079-0.362-0.113-0.49-0.051
	c-0.201,0.097-0.19,0.313-0.078,0.509c0.061,0.105,0.099,0.229,0.176,0.32c0.996,1.191,1.996,2.383,3.003,3.565
	c0.066,0.078,0.208,0.156,0.3,0.142C85.767,31.698,86.872,31.51,88.069,31.31z M113.224,2.109c-0.028,0.022-0.058,0.043-0.086,0.065
	c-0.005,0.035-0.019,0.072-0.012,0.105c0.3,1.49,0.164,2.943-0.37,4.363c-0.022,0.062-0.032,0.148-0.008,0.206
	c0.188,0.437,0.385,0.87,0.576,1.297c0.824-0.213,0.65-0.223,0.948,0.506c0.032,0.079,0.063,0.157,0.063,0.159
	c0.199,0.086,0.4,0.108,0.456,0.209c0.125,0.233,0.187,0.502,0.261,0.761c0.082,0.293,0.148,0.591,0.24,0.955
	c0.695-3.135-0.357-5.794-1.844-8.353C113.39,2.282,113.299,2.2,113.224,2.109z M118.333,26.645
	c-2.581,0.891-5.148,1.777-7.771,2.684c0.278,0.607,0.54,1.179,0.812,1.771c2.412-1.394,4.766-2.752,7.135-4.121
	C118.439,26.848,118.39,26.754,118.333,26.645z M69.87,31.098c1.509-0.872,2.947-1.702,4.387-2.532
	c0.756-0.438,1.516-0.869,2.267-1.314c0.207-0.123,0.47-0.253,0.266-0.594c-2.577,0.89-5.139,1.775-7.736,2.673
	C69.335,29.939,69.596,30.506,69.87,31.098z M123.394,24.776c2.524-0.872,5.007-1.729,7.545-2.605
	c-0.277-0.604-0.54-1.176-0.813-1.769c-2.341,1.352-4.617,2.667-6.909,3.99C123.276,24.521,123.326,24.631,123.394,24.776z
	 M89.435,22.169c-0.282-0.614-0.541-1.179-0.812-1.769c-2.318,1.34-4.589,2.65-6.86,3.961c0.012,0.049,0.024,0.097,0.036,0.146
	c0.535-0.083,1.079-0.13,1.602-0.26c0.511-0.126,1.001-0.336,1.501-0.51C86.387,23.225,87.873,22.71,89.435,22.169z M81.902,32.962
	c-0.646,0.122-1.265,0.221-1.872,0.368c-0.14,0.033-0.345,0.23-0.344,0.35c0.016,0.932,0.074,1.863,0.121,2.831
	c1.118-0.089,2.169-0.263,3.183-0.682C82.62,34.854,82.264,33.917,81.902,32.962z M83.38,24.383
	c0.002,0.029,0.003,0.058,0.005,0.086c2.183,0.047,4.365,0.095,6.619,0.143c-0.183-0.813-0.351-1.561-0.525-2.335
	C87.393,22.997,85.387,23.69,83.38,24.383z M83.38,35.786c0.959-0.581,1.865-1.129,2.805-1.697c-0.479-0.574-0.884-1.065-1.298-1.55
	c-0.047-0.055-0.15-0.107-0.216-0.096c-0.806,0.145-1.61,0.301-2.458,0.462C82.596,33.852,82.963,34.755,83.38,35.786z
	 M119.915,28.128c-0.056,0.002-0.109,0.004-0.164,0.006c-1.104,2.479-2.208,4.959-3.336,7.49c0.483,0.174,0.938,0.337,1.411,0.508
	c0.048-0.147,0.085-0.25,0.114-0.355c0.289-1.042,0.577-2.083,0.864-3.126c0.381-1.386,0.762-2.772,1.134-4.161
	C119.967,28.379,119.925,28.249,119.915,28.128z M123.658,15.358c-0.709,2.587-1.406,5.129-2.103,7.664
	c0.241,0.198,0.317,0.071,0.406-0.132c0.824-1.864,1.657-3.726,2.488-5.589c0.207-0.466,0.411-0.934,0.63-1.429
	C124.597,15.698,124.16,15.54,123.658,15.358z M78.224,28.482c-0.049,0.01-0.098,0.02-0.147,0.029
	c-1.049,2.356-2.097,4.712-3.167,7.113c0.482,0.173,0.938,0.335,1.398,0.5c0.041-0.087,0.067-0.13,0.08-0.177
	c0.645-2.347,1.292-4.695,1.924-7.047C78.346,28.778,78.256,28.622,78.224,28.482z M84.373,31.927
	c-1.133-1.348-2.211-2.626-3.287-3.906c-0.168-0.199-0.333-0.24-0.45-0.065c0.056,0.213,0.138,0.369,0.127,0.519
	c-0.045,0.618,0.07,1.193,0.355,1.742c0.096,0.185,0.157,0.388,0.236,0.581c0.208,0.506,0.417,1.013,0.627,1.525
	C82.781,32.189,83.542,32.064,84.373,31.927z M89.963,25.544c0.091-0.646,0.082-0.653-0.463-0.666
	c-2.207-0.052-4.415-0.121-6.622-0.146c-0.459-0.005-0.921,0.153-1.392,0.237c0.104,0.356,0.492,0.663,0.73,0.659
	c1.739-0.028,3.478-0.062,5.218-0.083C88.281,25.534,89.129,25.544,89.963,25.544z M113.84,17.456
	c1.106,1.313,2.167,2.574,3.227,3.833c0.019-0.009,0.036-0.018,0.054-0.027c-0.559-1.614-1.115-3.23-1.694-4.904
	C114.873,16.74,114.371,17.087,113.84,17.456z M112.55,6.427c0.705-1.433,0.587-2.851,0.243-4.318
	c-0.617,0.232-1.209,0.456-1.803,0.679C111.515,4.009,112.023,5.199,112.55,6.427z M82.073,25.761c0,0.018-0.001,0.036-0.002,0.053
	c2.626,0.252,5.252,0.503,7.914,0.759c0-0.334,0-0.633,0-0.968C87.334,25.657,84.704,25.709,82.073,25.761z M86.382,17.741
	c-0.023-0.02-0.046-0.039-0.069-0.059c-0.054,0.046-0.108,0.091-0.16,0.14c-1.191,1.107-2.382,2.214-3.573,3.324
	c-0.658,0.612-1.318,1.223-1.969,1.844c-0.351,0.333-0.286,0.761,0.149,0.993C82.632,21.904,84.507,19.823,86.382,17.741z
	 M89.794,27.93c-2.279-0.386-4.508-0.763-6.737-1.141c-0.004,0.021-0.009,0.041-0.014,0.061c2.166,0.658,4.333,1.318,6.528,1.987
	C89.65,28.515,89.717,28.243,89.794,27.93z M80.719,29.814c-0.391,0.629-0.753,1.185-1.077,1.761
	c-0.061,0.108-0.028,0.361,0.059,0.444c0.183,0.173,0.432,0.277,0.653,0.41c-0.052,0.063-0.105,0.125-0.157,0.188
	c0.481-0.079,0.962-0.157,1.484-0.242C81.358,31.518,81.054,30.703,80.719,29.814z M86.266,34.001
	c0.658-0.735,1.271-1.422,1.885-2.106c-0.028-0.034-0.057-0.067-0.085-0.101c-1.032,0.196-2.065,0.392-3.152,0.597
	C85.367,32.931,85.784,33.427,86.266,34.001z M94.073,29.966c-0.017-0.214,0.034-0.455-0.063-0.581
	c-0.104-0.137-0.348-0.167-0.488-0.226c0.04-0.155,0.16-0.454,0.117-0.479c-0.205-0.12-0.454-0.168-0.693-0.242
	c-0.21,0.746-0.402,1.428-0.605,2.149c0.816-0.127,1.618-0.252,2.419-0.378C94.625,29.846,94.536,29.816,94.073,29.966z
	 M93.156,26.881c0.187,0.008,0.359,0.016,0.609,0.025c-0.134-0.199-0.218-0.325-0.275-0.411c0.185-0.09,0.426-0.134,0.52-0.275
	c0.096-0.144,0.046-0.384,0.057-0.548c0.135,0.012,0.296,0.027,0.458,0.042c-0.037-0.229-0.074-0.457-0.114-0.706
	c-0.45,0-0.847,0-1.254,0C93.156,25.629,93.156,26.227,93.156,26.881z M124.606,35.791c0.045-0.018,0.09-0.036,0.134-0.054
	c-0.468-1.159-0.935-2.319-1.401-3.479c-0.024,0.009-0.049,0.019-0.072,0.028C123.713,33.455,124.16,34.622,124.606,35.791z
	 M87.29,2.748c0.698-0.074,1.336,0.13,1.996-0.287C88.577,2.471,87.944,2.314,87.29,2.748z M121.662,23.852
	c-0.126,0.278-0.238,0.508-0.333,0.744c-0.021,0.051-0.001,0.17,0.024,0.178c0.064,0.02,0.169,0.02,0.208-0.021
	c0.188-0.187,0.359-0.391,0.563-0.616C121.961,24.036,121.829,23.955,121.662,23.852z M122.201,24.221
	c-0.194,0.219-0.371,0.403-0.531,0.602c-0.039,0.049-0.025,0.14-0.036,0.213c0.074,0.003,0.162,0.034,0.22,0.005
	c0.232-0.121,0.456-0.261,0.697-0.402C122.423,24.484,122.322,24.365,122.201,24.221z M122.735,25.129
	c-0.275,0.095-0.526,0.175-0.771,0.271c-0.045,0.019-0.082,0.107-0.083,0.165c0,0.037,0.07,0.106,0.111,0.108
	c0.271,0.009,0.541,0.004,0.853,0.004C122.799,25.444,122.771,25.308,122.735,25.129z M121.814,26.008
	c0.325,0.102,0.597,0.187,0.901,0.283c0.036-0.203,0.063-0.35,0.104-0.571C122.468,25.87,122.095,25.595,121.814,26.008z
	 M120.752,23.681c0,0.291-0.01,0.533,0.007,0.774c0.004,0.06,0.092,0.114,0.142,0.171c0.047-0.047,0.122-0.084,0.139-0.139
	c0.072-0.243,0.127-0.49,0.198-0.778C121.055,23.698,120.914,23.69,120.752,23.681z M76.267,18.273
	c0.029-0.011,0.059-0.022,0.088-0.034c-0.323-0.847-0.646-1.694-0.968-2.541c-0.044,0.018-0.089,0.035-0.133,0.052
	C75.591,16.592,75.929,17.433,76.267,18.273z M120.595,23.672c-0.175,0.056-0.304,0.098-0.448,0.144
	c0.122,0.317,0.224,0.582,0.326,0.847c0.041-0.014,0.082-0.027,0.122-0.042C120.595,24.323,120.595,24.024,120.595,23.672z
	 M82.383,33.619c-0.032,0.014-0.063,0.028-0.095,0.043c0.271,0.707,0.542,1.414,0.813,2.122c0.044-0.018,0.088-0.034,0.132-0.052
	C82.949,35.028,82.666,34.323,82.383,33.619z M121.367,27.559c-0.08-0.223-0.133-0.397-0.209-0.558
	c-0.028-0.06-0.118-0.089-0.181-0.13c-0.039,0.062-0.11,0.124-0.111,0.187c-0.003,0.179,0.024,0.355,0.042,0.565
	C121.064,27.601,121.191,27.583,121.367,27.559z M118.969,26.298c0.214-0.07,0.38-0.112,0.533-0.183
	c0.059-0.026,0.086-0.117,0.129-0.18c-0.055-0.033-0.109-0.095-0.166-0.099c-0.181-0.013-0.361-0.005-0.583-0.005
	C118.913,26.002,118.938,26.127,118.969,26.298z M122.661,26.392c-0.304-0.09-0.571-0.168-0.84-0.246
	c-0.021,0.038-0.041,0.076-0.063,0.114c0.183,0.217,0.454,0.322,0.721,0.486C122.541,26.624,122.594,26.523,122.661,26.392z
	 M120.75,27.629c0-0.24,0.009-0.422-0.006-0.603c-0.004-0.051-0.073-0.13-0.121-0.136c-0.046-0.006-0.13,0.056-0.148,0.106
	c-0.06,0.167-0.098,0.344-0.151,0.546C120.47,27.573,120.597,27.599,120.75,27.629z M119.942,27.412
	c0.088-0.192,0.168-0.343,0.223-0.5c0.021-0.06-0.018-0.139-0.029-0.21c-0.071,0.018-0.163,0.013-0.21,0.057
	c-0.123,0.112-0.227,0.247-0.356,0.394C119.69,27.237,119.798,27.312,119.942,27.412z M119.475,27.076
	c0.167-0.182,0.313-0.342,0.484-0.529c-0.358-0.277-0.507,0.121-0.786,0.161C119.286,26.847,119.368,26.945,119.475,27.076z
	 M121.742,25.343c0.365-0.126,0.654-0.227,0.948-0.328C122.548,24.752,122.183,24.874,121.742,25.343z"/>
</svg>
