<?xml version="1.0" encoding="utf-8"?>
<!DOCTYPE svg PUBLIC "-//W3C//DTD SVG 1.1//EN" "http://www.w3.org/Graphics/SVG/1.1/DTD/svg11.dtd">
<svg version="1.1" xmlns="http://www.w3.org/2000/svg" xmlns:xlink="http://www.w3.org/1999/xlink" x="0px" y="0px" width="50px"
	 height="50px" viewBox="0 0 50 50" enable-background="new 0 0 50 50" xml:space="preserve">
<g>
	<path fill="#FFFFFF" d="M47.538,25.006c0.001-0.885,0.628-1.623,1.462-1.794c-0.066-0.909-0.183-1.805-0.348-2.683
		c-0.852,0.052-1.65-0.499-1.88-1.355c-0.229-0.857,0.188-1.734,0.954-2.115c-0.3-0.856-0.641-1.692-1.03-2.501
		c-0.811,0.275-1.729-0.05-2.174-0.82c-0.443-0.769-0.267-1.724,0.373-2.29c-0.51-0.747-1.063-1.46-1.651-2.143
		c-0.711,0.468-1.676,0.39-2.302-0.236c-0.625-0.627-0.704-1.591-0.235-2.303c-0.683-0.588-1.396-1.143-2.143-1.652
		c-0.564,0.64-1.52,0.816-2.289,0.373c-0.77-0.446-1.094-1.363-0.818-2.175c-0.809-0.391-1.646-0.732-2.501-1.032
		c-0.38,0.765-1.258,1.183-2.115,0.953c-0.855-0.231-1.406-1.029-1.354-1.881C28.605,1.184,27.707,1.067,26.795,1
		C26.623,1.834,25.885,2.461,25,2.461S23.377,1.834,23.205,1c-0.909,0.067-1.804,0.184-2.683,0.349
		c0.052,0.852-0.5,1.651-1.355,1.88c-0.857,0.229-1.735-0.188-2.115-0.953c-0.855,0.299-1.692,0.641-2.5,1.031
		c0.275,0.811-0.05,1.729-0.82,2.174c-0.769,0.443-1.724,0.268-2.289-0.373c-0.747,0.51-1.46,1.063-2.143,1.651
		c0.468,0.711,0.389,1.677-0.236,2.302C8.438,9.688,7.472,9.766,6.761,9.298C6.173,9.98,5.619,10.694,5.109,11.44
		c0.64,0.565,0.816,1.521,0.372,2.289c-0.444,0.77-1.363,1.095-2.173,0.82c-0.391,0.809-0.731,1.645-1.031,2.5
		c0.765,0.38,1.183,1.258,0.953,2.115C3,20.021,2.201,20.572,1.35,20.52C1.184,21.398,1.068,22.293,1,23.203
		c0.834,0.172,1.461,0.91,1.461,1.795c0,0.885-0.627,1.623-1.461,1.795c0.067,0.909,0.184,1.804,0.349,2.683
		c0.852-0.052,1.651,0.499,1.88,1.355c0.229,0.857-0.188,1.734-0.954,2.115c0.299,0.855,0.64,1.691,1.03,2.5
		c0.812-0.274,1.73,0.051,2.174,0.82c0.443,0.769,0.268,1.724-0.373,2.289c0.509,0.746,1.063,1.46,1.651,2.143
		c0.711-0.468,1.677-0.39,2.302,0.236s0.704,1.591,0.236,2.303c0.683,0.588,1.396,1.142,2.142,1.652
		c0.566-0.641,1.521-0.816,2.289-0.373c0.77,0.445,1.095,1.363,0.82,2.175c0.809,0.39,1.645,0.731,2.5,1.03
		c0.381-0.765,1.258-1.182,2.115-0.952c0.856,0.229,1.408,1.028,1.355,1.88c0.878,0.166,1.773,0.282,2.683,0.35
		c0.172-0.834,0.91-1.461,1.795-1.461c0.885,0.001,1.623,0.627,1.794,1.462c0.91-0.067,1.805-0.184,2.684-0.349
		c-0.052-0.852,0.499-1.65,1.355-1.88s1.734,0.188,2.114,0.954c0.856-0.3,1.692-0.641,2.501-1.03
		c-0.274-0.812,0.051-1.729,0.82-2.174c0.77-0.443,1.724-0.268,2.289,0.373c0.747-0.51,1.46-1.063,2.144-1.651
		c-0.468-0.711-0.39-1.677,0.236-2.303c0.626-0.625,1.591-0.703,2.303-0.235c0.588-0.683,1.143-1.396,1.652-2.142
		c-0.641-0.566-0.815-1.521-0.372-2.289c0.445-0.771,1.362-1.095,2.174-0.82c0.391-0.809,0.731-1.645,1.031-2.5
		c-0.765-0.381-1.183-1.258-0.952-2.115c0.229-0.856,1.028-1.407,1.88-1.355c0.166-0.878,0.282-1.772,0.35-2.682
		C48.166,26.629,47.538,25.891,47.538,25.006z M25,45.209C13.839,45.209,4.791,36.161,4.791,25C4.791,13.838,13.839,4.791,25,4.791
		S45.21,13.838,45.21,25C45.21,36.161,36.161,45.209,25,45.209z"/>
	<path fill="#033A89" d="M25,5.781C14.386,5.781,5.781,14.386,5.781,25S14.386,44.219,25,44.219S44.219,35.614,44.219,25
		S35.614,5.781,25,5.781z M25.05,42.535c-9.711,0-17.584-7.873-17.584-17.584S15.338,7.367,25.05,7.367
		c9.712,0,17.584,7.873,17.584,17.584S34.762,42.535,25.05,42.535z"/>
</g>
<g>
	<g>
		<path fill="#FFFFFF" d="M27.35,28.96L14.2,35.8l7.34-13.62C22.73,25,24.77,27.37,27.35,28.96z"/>
		<path fill="#033A89" d="M36.1,13.9l-7.56,14.03c-2.73-1.529-4.84-4.03-5.89-7.03L36.1,13.9z"/>
	</g>
</g>
</svg>
