<?xml version="1.0" encoding="utf-8"?>
<!DOCTYPE svg PUBLIC "-//W3C//DTD SVG 1.1//EN" "http://www.w3.org/Graphics/SVG/1.1/DTD/svg11.dtd">
<svg version="1.1" xmlns="http://www.w3.org/2000/svg" xmlns:xlink="http://www.w3.org/1999/xlink" x="0px" y="0px" width="70px"
	 height="70px" viewBox="0 0 70 70" enable-background="new 0 0 70 70" xml:space="preserve">
<g id="statistika">
	<g>
		<path fill="#063984" d="M48,43c0,1.1-0.9,2-2,2h-2c-1.1,0-2-0.9-2-2V27c0-1.1,0.9-2,2-2h2c1.1,0,2,0.9,2,2V43z"/>
	</g>
	<g>
		<path fill="#063984" d="M38,43c0,1.1-0.9,2-2,2h-2c-1.1,0-2-0.9-2-2V32c0-1.1,0.9-2,2-2h2c1.1,0,2,0.9,2,2V43z"/>
	</g>
	<g>
		<path fill="#063984" d="M28,43c0,1.1-0.9,2-2,2h-2c-1.1,0-2-0.9-2-2v-6c0-1.1,0.9-2,2-2h2c1.1,0,2,0.9,2,2V43z"/>
	</g>
	<g>
		<path fill="#063984" d="M37,10.087v5.014c4.561,0.453,8.659,2.448,11.796,5.442l3.691-3.403
			C48.425,13.163,43.013,10.563,37,10.087z"/>
		<path fill="#063984" d="M51.405,23.578C53.665,26.818,55,30.75,55,35c0,0.273-0.03,0.539-0.041,0.81l5.009,0.467
			C59.989,35.854,60,35.428,60,35c0-5.559-1.816-10.691-4.885-14.843L51.405,23.578z"/>
		<path fill="#063984" d="M38.689,54.646C37.492,54.869,36.262,55,35,55c-11.046,0-20-8.954-20-20c0-10.37,7.894-18.895,18-19.899
			v-5.014C20.129,11.106,10,21.866,10,35c0,13.807,11.193,25,25,25c1.771,0,3.496-0.187,5.163-0.537L38.689,54.646z"/>
		<path fill="#063984" d="M54.402,39.776c-1.537,6.258-6.002,11.356-11.875,13.746l1.469,4.803
			c7.776-3.001,13.674-9.773,15.448-18.078L54.402,39.776z"/>
	</g>
</g>
</svg>
