<?xml version="1.0" encoding="utf-8"?>
<!DOCTYPE svg PUBLIC "-//W3C//DTD SVG 1.1//EN" "http://www.w3.org/Graphics/SVG/1.1/DTD/svg11.dtd">
<svg version="1.1" xmlns="http://www.w3.org/2000/svg" xmlns:xlink="http://www.w3.org/1999/xlink" x="0px" y="0px" width="70px"
	 height="70px" viewBox="0 0 70 70" enable-background="new 0 0 70 70" xml:space="preserve">
<g id="informace">
	<g>
		<path fill="#063984" d="M35,10c-13.807,0-25,11.193-25,25c0,4.558,2.188,9.741,2.188,9.741c0.642,1.52,0.817,4.067,0.391,5.661
			l-1.743,6.505c-0.427,1.594,0.528,2.548,2.122,2.121l6.436-1.725c1.594-0.427,4.138-0.242,5.653,0.41c0,0,5.312,2.286,9.954,2.286
			c13.807,0,25-11.192,25-25C60,21.193,48.807,10,35,10z M35,55c-11.046,0-20-8.954-20-20s8.954-20,20-20s20,8.954,20,20
			S46.046,55,35,55z"/>
	</g>
	<g>
		<path fill="#063984" d="M27.894,35.257l-0.527-0.949c3.545-2.063,5.793-3.287,6.745-3.674c1.229-0.492,2.151-0.738,2.766-0.738
			c0.396,0,0.725,0.12,0.988,0.36s0.396,0.577,0.396,1.011c0,0.832-0.476,2.543-1.429,5.133l-0.721,1.898
			c-1.096,2.93-1.645,4.781-1.645,5.555c0,0.398,0.205,0.598,0.614,0.598c0.38,0,1.632-0.563,3.755-1.688l0.594,0.932l-4.546,2.426
			c-1.213,0.609-2.126,0.996-2.741,1.16c-0.424,0.129-0.819,0.193-1.185,0.193c-0.557,0-0.985-0.149-1.285-0.448
			c-0.301-0.299-0.451-0.782-0.451-1.45c0-0.879,0.234-2.004,0.703-3.375l1.472-4.184c0.74-2.098,1.111-3.463,1.111-4.096
			c0-0.305-0.169-0.457-0.505-0.457c-0.235,0-0.586,0.094-1.055,0.281C29.805,34.214,28.787,34.718,27.894,35.257z M34.921,24.675
			c0-0.891,0.292-1.594,0.875-2.109s1.328-0.773,2.233-0.773c0.715,0,1.294,0.179,1.738,0.536c0.445,0.357,0.668,0.829,0.668,1.415
			c0,0.82-0.288,1.494-0.863,2.021c-0.577,0.527-1.318,0.791-2.223,0.791c-0.729,0-1.316-0.179-1.761-0.536
			S34.921,25.214,34.921,24.675z"/>
	</g>
</g>
</svg>
