<?xml version="1.0" encoding="utf-8"?>
<!DOCTYPE svg PUBLIC "-//W3C//DTD SVG 1.1//EN" "http://www.w3.org/Graphics/SVG/1.1/DTD/svg11.dtd">
<svg version="1.1" xmlns="http://www.w3.org/2000/svg" xmlns:xlink="http://www.w3.org/1999/xlink" x="0px" y="0px" width="70px"
	 height="70px" viewBox="0 0 70 70" enable-background="new 0 0 70 70" xml:space="preserve">
<g id="odkazy">
	<g>
		<path fill="#063984" d="M39.95,11.666c-2.723-2.722-7.178-2.722-9.9,0L11.666,30.05c-2.722,2.722-2.722,7.177,0,9.9L30.05,58.334
			c2.722,2.723,7.177,2.723,9.9,0L58.334,39.95c2.723-2.723,2.723-7.178,0-9.9L39.95,11.666z M18.45,39.95
			c-2.722-2.723-2.722-7.178,0-9.9L30.05,18.45c2.722-2.722,7.177-2.722,9.9,0l11.6,11.601c2.723,2.722,2.723,7.177,0,9.9
			l-11.6,11.6c-2.723,2.723-7.178,2.723-9.9,0L18.45,39.95z"/>
	</g>
	<path fill="#063984" d="M46.37,33.99L39,26.62V31h-9.875C27.909,31,27,32.037,27,33.253V44h6v-7h6v4.36L46.37,33.99z"/>
</g>
</svg>
