<?xml version="1.0" encoding="utf-8"?>
<!DOCTYPE svg PUBLIC "-//W3C//DTD SVG 1.1//EN" "http://www.w3.org/Graphics/SVG/1.1/DTD/svg11.dtd">
<svg version="1.1" xmlns="http://www.w3.org/2000/svg" xmlns:xlink="http://www.w3.org/1999/xlink" x="0px" y="0px" width="70px"
	 height="70px" viewBox="0 0 70 70" enable-background="new 0 0 70 70" xml:space="preserve">
<g id="pravidla">
	<g>
		<path fill="#063984" d="M60,58v2H34v-2c0-0.55,0.221-1.05,0.59-1.41C34.95,56.22,35.45,56,36,56h22C59.1,56,60,56.9,60,58z"/>
		<path fill="#063984" d="M57,51v3H37v-3c0-0.82,0.34-1.58,0.88-2.12S39.18,48,40,48h14C55.65,48,57,49.35,57,51z"/>
	</g>
	<g>
		
			<rect x="36.786" y="16.296" transform="matrix(0.9132 -0.4074 0.4074 0.9132 -6.2734 19.1311)" fill="#063984" width="9.999" height="15.999"/>
		<g>
			<path fill="#063984" d="M43.289,10.485c0.448,1.004-0.007,2.193-1.011,2.641l-9.133,4.074c-1.005,0.448-2.193-0.007-2.642-1.012
				l0,0c-0.448-1.005,0.007-2.193,1.012-2.642l9.133-4.073C41.652,9.026,42.842,9.481,43.289,10.485z"/>
		</g>
		<g>
			<path fill="#063984" d="M53.066,32.403c0.448,1.004-0.007,2.193-1.011,2.641l-9.133,4.075c-1.004,0.448-2.192-0.008-2.641-1.012
				l-0.001-0.001c-0.448-1.004,0.008-2.193,1.012-2.641l9.133-4.073C51.43,30.944,52.619,31.399,53.066,32.403z"/>
		</g>
		<g>
			<path fill="#063984" d="M46.352,22.259c0.672,1.507-0.011,3.29-1.518,3.962l-31.05,13.851c-1.507,0.673-3.29-0.01-3.962-1.518
				c-0.672-1.507,0.011-3.289,1.518-3.961l31.05-13.852C43.897,20.069,45.68,20.752,46.352,22.259z"/>
		</g>
	</g>
</g>
</svg>
