<?xml version="1.0" encoding="utf-8"?>
<!DOCTYPE svg PUBLIC "-//W3C//DTD SVG 1.1//EN" "http://www.w3.org/Graphics/SVG/1.1/DTD/svg11.dtd">
<svg version="1.1" id="pin" xmlns="http://www.w3.org/2000/svg" xmlns:xlink="http://www.w3.org/1999/xlink" x="0px" y="0px"
	 width="40px" height="40px" viewBox="0 0 40 40" enable-background="new 0 0 40 40" xml:space="preserve">
<g>
	<g>
		<path fill="#FFFFFF" d="M30.955,20.772c1.289,0.686,2.402,1.476,3.323,2.32l1.215-0.276
			C34.199,22.025,32.669,21.335,30.955,20.772z"/>
		<path fill="#FFFFFF" d="M37.262,34.166l-3.789-0.862c-1.266,0.822-2.823,1.523-4.6,2.068l1.688,2.241
			C33.317,36.754,35.62,35.57,37.262,34.166z"/>
		<path fill="#FFFFFF" d="M37.003,28.135c0,0.681-0.178,1.34-0.48,1.975l3.168,0.722C39.88,30.278,40,29.714,40,29.134
			c0-1.125-0.376-2.206-1.062-3.214l-2.272,0.518C36.874,27.005,37.003,27.574,37.003,28.135z"/>
		<path fill="#FFFFFF" d="M5.721,23.093c0.92-0.845,2.035-1.635,3.328-2.32c-1.715,0.563-3.245,1.254-4.539,2.045L5.721,23.093z"/>
		<path fill="#FFFFFF" d="M3.001,28.135c0-0.561,0.129-1.129,0.335-1.696l-2.271-0.518c-0.685,1.008-1.061,2.088-1.061,3.213
			c0,0.579,0.12,1.144,0.309,1.695l3.168-0.721C3.178,29.474,3.001,28.815,3.001,28.135z"/>
		<path fill="#FFFFFF" d="M11.127,35.371c-1.775-0.545-3.332-1.246-4.597-2.068l-3.791,0.862c1.641,1.404,3.942,2.588,6.697,3.448
			L11.127,35.371z"/>
		<g>
			<path fill="#FFFFFF" d="M22.66,36.584c-0.867,0.093-1.751,0.151-2.658,0.151c-0.908,0-1.793-0.059-2.663-0.151
				c-0.593,0.77-1.187,1.534-1.78,2.293c1.429,0.229,2.913,0.36,4.442,0.36c1.526,0,3.008-0.131,4.436-0.36
				C23.846,38.118,23.253,37.354,22.66,36.584z"/>
		</g>
	</g>
	<path fill="#FFFFFF" d="M25.479,24.361c1.846,0.981,3.024,2.377,3.024,3.682c0,2.348-3.807,4.248-8.501,4.248
		c-4.693,0-8.501-1.9-8.501-4.248c0-1.305,1.174-2.7,3.024-3.682c-2.723,0.895-4.523,2.432-4.523,4.184c0,2.759,4.473,5,10,5
		c5.522,0,10-2.241,10-5C30.002,26.793,28.2,25.256,25.479,24.361"/>
	<path fill="#FFFFFF" d="M20,0.867c-5.613,0-10.164,4.551-10.164,10.165c0,7.457,9.325,17.836,10.164,17.836
		c0.84,0,10.164-10.379,10.164-17.836C30.164,5.417,25.613,0.867,20,0.867z M20,15.998c-2.742,0-4.966-2.224-4.966-4.966
		c0-2.743,2.224-4.966,4.966-4.966s4.966,2.224,4.966,4.966C24.966,13.773,22.742,15.998,20,15.998z"/>
</g>
</svg>
