<?xml version="1.0" encoding="utf-8"?>
<!DOCTYPE svg PUBLIC "-//W3C//DTD SVG 1.1//EN" "http://www.w3.org/Graphics/SVG/1.1/DTD/svg11.dtd">
<svg version="1.1" id="Vrstva_1" xmlns="http://www.w3.org/2000/svg" xmlns:xlink="http://www.w3.org/1999/xlink" x="0px" y="0px"
	 width="50px" height="50px" viewBox="0 0 50 50" enable-background="new 0 0 50 50" xml:space="preserve">
<path fill="#FFFFFF" d="M33.64,21.489h-4.286V21.48H19.302v-3.918c0-2.742,2.245-4.63,4.986-4.63h1.425
	c2.618,0,4.757,1.73,4.947,4.272h2.87c-0.189-4.138-3.614-7.121-7.817-7.121h-1.425c-4.324,0-7.835,3.156-7.835,7.479v3.918
	c-1.958,0-3.562,1.603-3.562,3.562v11.397c0,1.959,1.603,3.562,3.562,3.562h17.096c1.957,0,3.561-1.603,3.561-3.562V25.042
	C37.109,23.114,35.555,21.539,33.64,21.489z M26.426,31.77v2.532c0,0.782-0.642,1.425-1.425,1.425c-0.784,0-1.425-0.643-1.425-1.425
	V31.77c-0.849-0.494-1.424-1.401-1.424-2.455c0-1.572,1.275-2.849,2.849-2.849c1.572,0,2.851,1.275,2.851,2.849
	C27.852,30.367,27.273,31.275,26.426,31.77z"/>
</svg>
