<?xml version="1.0" encoding="utf-8"?>
<!DOCTYPE svg PUBLIC "-//W3C//DTD SVG 1.1//EN" "http://www.w3.org/Graphics/SVG/1.1/DTD/svg11.dtd">
<svg version="1.1" xmlns="http://www.w3.org/2000/svg" xmlns:xlink="http://www.w3.org/1999/xlink" x="0px" y="0px" width="50px"
	 height="50px" viewBox="0 0 50 50" enable-background="new 0 0 50 50" xml:space="preserve">
<path fill="#FFFFFF" d="M34.864,16.644c-0.882-3.293-4.267-5.248-7.559-4.365l-10.662,2.857c-3.292,0.882-5.247,4.267-4.364,7.56
	l2.855,10.661c0.883,3.292,4.268,5.247,7.56,4.365l10.663-2.857c3.291-0.883,5.246-4.267,4.364-7.56L34.864,16.644z M21.711,34.188
	c-1.318,0.354-2.671-0.429-3.024-1.746c-0.354-1.316,0.429-2.67,1.746-3.023c1.316-0.353,2.671,0.428,3.024,1.747
	C23.811,32.482,23.029,33.836,21.711,34.188z M18.836,23.457c-1.318,0.353-2.671-0.429-3.024-1.746
	c-0.353-1.317,0.429-2.671,1.746-3.024c1.317-0.353,2.671,0.429,3.024,1.746C20.935,21.75,20.153,23.104,18.836,23.457z
		M25.64,27.385c-1.317,0.354-2.672-0.429-3.024-1.746c-0.353-1.317,0.429-2.671,1.746-3.024c1.317-0.353,2.671,0.429,3.024,1.746
	C27.738,25.678,26.956,27.032,25.64,27.385z M32.443,31.313c-1.317,0.354-2.671-0.429-3.024-1.745
	c-0.353-1.317,0.429-2.67,1.747-3.023c1.316-0.354,2.67,0.428,3.022,1.746C34.542,29.606,33.761,30.96,32.443,31.313z
		M29.568,20.581c-1.318,0.354-2.671-0.429-3.024-1.746c-0.353-1.317,0.429-2.671,1.746-3.024s2.67,0.429,3.022,1.746
	C31.666,18.874,30.885,20.228,29.568,20.581z"/>
</svg>
