<?xml version="1.0" encoding="utf-8"?>
<!DOCTYPE svg PUBLIC "-//W3C//DTD SVG 1.1//EN" "http://www.w3.org/Graphics/SVG/1.1/DTD/svg11.dtd">
<svg version="1.1" xmlns="http://www.w3.org/2000/svg" xmlns:xlink="http://www.w3.org/1999/xlink" x="0px" y="0px" width="50px"
	 height="50px" viewBox="0 0 50 50" enable-background="new 0 0 50 50" xml:space="preserve">
<path fill="#FFFFFF" d="M33.549,21.48v-3.918c0-4.324-3.512-7.479-7.836-7.479h-1.425c-4.324,0-7.835,3.156-7.835,7.479v3.918
	c-1.958,0-3.562,1.603-3.562,3.562v11.397c0,1.959,1.603,3.562,3.562,3.562h17.096c1.957,0,3.561-1.603,3.561-3.562V25.042
	C37.109,23.083,35.506,21.48,33.549,21.48z M19.302,17.562c0-2.742,2.245-4.63,4.986-4.63h1.425c2.742,0,4.984,1.888,4.984,4.63
	v3.918H19.302V17.562z M26.426,31.77v2.532c0,0.782-0.642,1.425-1.425,1.425c-0.784,0-1.425-0.643-1.425-1.425V31.77
	c-0.849-0.494-1.424-1.402-1.424-2.455c0-1.573,1.275-2.849,2.849-2.849c1.572,0,2.851,1.275,2.851,2.849
	C27.852,30.367,27.273,31.275,26.426,31.77z"/>
</svg>
