<?xml version="1.0" encoding="utf-8"?>
<!DOCTYPE svg PUBLIC "-//W3C//DTD SVG 1.1//EN" "http://www.w3.org/Graphics/SVG/1.1/DTD/svg11.dtd">
<svg version="1.1" xmlns="http://www.w3.org/2000/svg" xmlns:xlink="http://www.w3.org/1999/xlink" x="0px" y="0px" width="50px"
	 height="50px" viewBox="0 0 50 50" enable-background="new 0 0 50 50" xml:space="preserve">
<g>
	<path fill="#FFFFFF" d="M33,14c1.654,0,3,1.346,3,3v16c0,1.654-1.346,3-3,3H17c-1.654,0-3-1.346-3-3V17c0-1.654,1.346-3,3-3H33
		 M33,12H17c-2.75,0-5,2.25-5,5v16c0,2.75,2.25,5,5,5h16c2.75,0,5-2.25,5-5V17C38,14.25,35.75,12,33,12L33,12z"/>
	<g>
		<path fill-rule="evenodd" clip-rule="evenodd" fill="#FFFFFF" d="M30.401,28.221c-0.267-0.162-0.546-0.315-0.833-0.436
			c-3.086-1.298-6.177-1.298-9.256,0.013c-1.831,0.779-2.291,1.513-2.274,3.494c0.006,0.61,0.022,0.646,0.658,0.647
			c2.084,0.002,4.169,0.019,6.253,0.019c0.91,0,1.82,0,2.73,0c1.224,0,2.448-0.018,3.674-0.019c0.233-0.001,0.461,0.003,0.525-0.32
			C32.174,30.144,31.691,29.003,30.401,28.221z"/>
		<path fill-rule="evenodd" clip-rule="evenodd" fill="#FFFFFF" d="M24.96,24.956c1.857-0.006,3.472-1.619,3.429-3.425
			c-0.045-1.922-1.623-3.488-3.466-3.441c-1.869,0.049-3.422,1.601-3.402,3.401C21.541,23.405,23.087,24.962,24.96,24.956z"/>
	</g>
</g>
</svg>
