<?xml version="1.0" encoding="utf-8"?>
<!DOCTYPE svg PUBLIC "-//W3C//DTD SVG 1.1//EN" "http://www.w3.org/Graphics/SVG/1.1/DTD/svg11.dtd">
<svg version="1.1" id="stan" xmlns="http://www.w3.org/2000/svg" xmlns:xlink="http://www.w3.org/1999/xlink" x="0px" y="0px"
	 width="40px" height="40px" viewBox="0 0 40 40" enable-background="new 0 0 40 40" xml:space="preserve">
<g>
	<path fill-rule="evenodd" clip-rule="evenodd" fill="#FFFFFF" d="M7.927,31.238c3.716-5.325,7.424-10.656,11.161-15.967
		c0.393-0.559,0.434-0.956,0.013-1.519c-1-1.339-1.943-2.721-2.875-4.11c-0.156-0.232-0.135-0.583-0.195-0.88
		c0.238,0.163,0.544,0.277,0.703,0.497c0.904,1.251,1.772,2.527,2.656,3.792c0.182,0.261,0.378,0.513,0.623,0.844
		c1.041-1.485,2.034-2.904,3.027-4.323c0.13-0.185,0.232-0.399,0.396-0.545c0.144-0.127,0.354-0.179,0.535-0.265
		c-0.008,0.215,0.067,0.487-0.035,0.639c-0.99,1.465-1.982,2.93-3.035,4.351c-0.419,0.565-0.379,0.96,0.014,1.519
		c3.735,5.311,7.444,10.642,11.16,15.967c-2.64,0-5.279,0-7.92,0c-1.364-2.164-2.729-4.329-4.153-6.586
		c-1.424,2.257-2.789,4.422-4.154,6.586C13.207,31.238,10.567,31.238,7.927,31.238z"/>
</g>
</svg>
