<?xml version="1.0" encoding="utf-8"?>
<!DOCTYPE svg PUBLIC "-//W3C//DTD SVG 1.1//EN" "http://www.w3.org/Graphics/SVG/1.1/DTD/svg11.dtd">
<svg version="1.1" id="kolo" xmlns="http://www.w3.org/2000/svg" xmlns:xlink="http://www.w3.org/1999/xlink" x="0px" y="0px"
	 width="40px" height="40px" viewBox="0 0 40 40" enable-background="new 0 0 40 40" xml:space="preserve">
<g>
	<path fill-rule="evenodd" clip-rule="evenodd" fill="#FFFFFF" d="M24.56,13.503c0.563,1.26,1.09,2.354,1.537,3.479
		c0.325,0.814,0.76,1.11,1.702,0.993c2.665-0.329,4.863,1.233,5.584,3.811c0.665,2.378-0.468,4.951-2.659,6.038
		c-2.364,1.173-5.033,0.547-6.623-1.554c-1.404-1.856-1.805-5.193,1.434-7.681c-0.309-0.693-0.625-1.406-1.048-2.355
		c-1.058,1.542-2.061,2.892-2.942,4.317c-1.003,1.622-1.946,3.238-4.311,2.49c-0.147,0.59-0.233,0.986-0.345,1.377
		c-0.697,2.417-2.781,4.022-5.176,3.996c-2.405-0.027-4.522-1.654-5.104-3.92c-0.607-2.369,0.332-4.861,2.6-5.95
		c1.084-0.521,2.512-0.648,3.723-0.488c1.131,0.148,1.703-0.127,2.175-1.039c0.21-0.406,0.498-0.772,0.778-1.2
		c-0.227-0.505-0.466-1.036-0.7-1.557c-1.563-0.095-1.758-0.297-1.856-2.105c1.509,0.109,2.995,0.196,4.474,0.351
		c0.186,0.019,0.419,0.371,0.471,0.604c0.029,0.13-0.243,0.417-0.433,0.485c-0.425,0.152-0.883,0.212-1.333,0.31
		c0.068,1.138,0.612,1.469,1.668,1.29c1.722-0.291,3.458-0.485,5.194-0.721c-0.251-1.431,0.976-2.894,2.315-2.891
		c0.204,0,0.557,0.19,0.579,0.333c0.036,0.237-0.064,0.606-0.242,0.743C25.6,12.984,25.099,13.203,24.56,13.503z M27.258,19.314
		c0.481,1.094,0.956,2.063,1.325,3.071c0.131,0.354,0.008,0.804,0,1.209c-0.358-0.257-0.85-0.438-1.046-0.786
		c-0.539-0.955-0.952-1.982-1.433-3.015c-1.849,1.373-2.347,3.618-1.332,5.352c1.065,1.823,3.437,2.549,5.37,1.644
		c1.774-0.832,2.665-3.038,2.021-5.017C31.541,19.851,29.601,18.815,27.258,19.314z M13.488,19.483
		c-2.056-0.737-3.823-0.292-4.916,1.131c-1.15,1.499-1.188,3.365-0.1,4.894c0.999,1.404,2.849,1.997,4.589,1.47
		c1.565-0.474,2.602-1.855,2.632-3.628c-1.126,0.111-2.238,0.249-3.354,0.315c-0.335,0.02-0.854-0.063-0.979-0.276
		c-0.13-0.225,0.034-0.715,0.21-1.003C12.155,21.43,12.802,20.511,13.488,19.483z M17.507,16.45
		c0.768,1.656,1.435,3.091,2.188,4.715c1.265-1.883,2.37-3.527,3.609-5.372C21.278,16.023,19.515,16.223,17.507,16.45z
		 M18.628,21.736c-0.71-1.494-1.387-2.92-2.145-4.513c-0.48,0.725-0.858,1.297-1.149,1.735c0.468,0.784,0.959,1.382,1.203,2.068
		C16.908,22.071,17.498,22.27,18.628,21.736z M15.529,22.154c0.083-0.139,0.168-0.276,0.251-0.414
		c-0.419-0.36-1.007-1.101-1.223-1.005c-0.563,0.251-0.963,0.867-1.429,1.339c0.076,0.092,0.151,0.183,0.228,0.274
		C14.08,22.283,14.805,22.22,15.529,22.154z"/>
</g>
</svg>
