<?xml version="1.0" encoding="utf-8"?>
<!DOCTYPE svg PUBLIC "-//W3C//DTD SVG 1.1//EN" "http://www.w3.org/Graphics/SVG/1.1/DTD/svg11.dtd">
<svg version="1.1" id="pesky" xmlns="http://www.w3.org/2000/svg" xmlns:xlink="http://www.w3.org/1999/xlink" x="0px" y="0px"
	 width="40px" height="40px" viewBox="0 0 40 40" enable-background="new 0 0 40 40" xml:space="preserve">
<g>
	<path fill-rule="evenodd" clip-rule="evenodd" fill="#FFFFFF" d="M26.604,20.375c-0.973,0-1.842-0.033-2.707,0.01
		c-0.751,0.037-1.249-0.258-1.621-0.896c-0.353-0.605-0.768-1.174-1.226-1.865c-0.098,0.274-0.172,0.432-0.209,0.598
		c-0.279,1.265-0.532,2.536-0.835,3.795c-0.113,0.469,0.011,0.74,0.409,0.992c0.636,0.404,1.216,0.897,1.858,1.288
		c0.688,0.417,0.997,1.007,1.108,1.779c0.194,1.352,0.459,2.693,0.649,4.046c0.058,0.403,0.066,0.867-0.077,1.234
		c-0.209,0.532-0.723,0.734-1.29,0.637c-0.638-0.108-0.961-0.541-1.063-1.163c-0.202-1.232-0.421-2.461-0.607-3.695
		c-0.079-0.521-0.286-0.885-0.756-1.18c-1.117-0.701-2.192-1.47-3.28-2.217c-1.08-0.742-1.365-1.466-1.051-2.733
		c0.48-1.943,0.973-3.884,1.472-5.824c0.295-1.146,0.882-1.437,2.08-1.414c1.588,0.03,2.684,0.683,3.348,2.111
		c0.108,0.232,0.335,0.416,0.417,0.653c0.581,1.691,1.962,1.53,3.302,1.424c0.151-0.012,0.371-0.257,0.406-0.425
		c0.101-0.482,0.135-0.98,0.173-1.473c0.035-0.455,0.269-0.626,0.705-0.556c0.43,0.069,0.484,0.324,0.433,0.719
		c-0.649,4.978-1.284,9.956-1.925,14.935c-0.018,0.14-0.016,0.303-0.089,0.41c-0.114,0.167-0.284,0.293-0.431,0.437
		c-0.106-0.177-0.313-0.361-0.302-0.532c0.056-0.869,0.169-1.735,0.259-2.603c0.263-2.509,0.525-5.017,0.784-7.525
		C26.565,21.064,26.575,20.784,26.604,20.375z"/>
	<path fill-rule="evenodd" clip-rule="evenodd" fill="#FFFFFF" d="M15.398,12.974c0.18,0.03,0.467,0.048,0.735,0.13
		c0.412,0.126,0.622,0.397,0.506,0.859c-0.563,2.24-1.125,4.48-1.678,6.722c-0.131,0.528-0.469,0.671-0.956,0.57
		c-0.554-0.114-1.106-0.237-1.657-0.366c-0.505-0.119-0.694-0.42-0.565-0.941c0.405-1.647,0.761-3.309,1.203-4.946
		C13.345,13.662,14.187,12.977,15.398,12.974z"/>
	<path fill-rule="evenodd" clip-rule="evenodd" fill="#FFFFFF" d="M23.275,10.426c-0.001,1.386-1.095,2.487-2.458,2.472
		c-1.365-0.014-2.426-1.123-2.408-2.516c0.018-1.346,1.108-2.416,2.45-2.402C22.191,7.993,23.276,9.092,23.275,10.426z"/>
	<path fill-rule="evenodd" clip-rule="evenodd" fill="#FFFFFF" d="M15.226,23.637c0.604,0.452,1.148,0.893,1.729,1.279
		c0.333,0.222,0.405,0.456,0.305,0.826c-0.474,1.745-0.922,3.498-1.397,5.243c-0.213,0.785-0.83,1.167-1.529,0.995
		c-0.706-0.174-1.068-0.798-0.865-1.595C14.042,28.131,14.639,25.882,15.226,23.637z"/>
</g>
</svg>
