<?xml version="1.0" encoding="utf-8"?>
<!DOCTYPE svg PUBLIC "-//W3C//DTD SVG 1.1//EN" "http://www.w3.org/Graphics/SVG/1.1/DTD/svg11.dtd">
<svg version="1.1" id="bivak" xmlns="http://www.w3.org/2000/svg" xmlns:xlink="http://www.w3.org/1999/xlink" x="0px" y="0px"
	 width="40px" height="40px" viewBox="0 0 40 40" enable-background="new 0 0 40 40" xml:space="preserve">
<g>
	<path fill-rule="evenodd" clip-rule="evenodd" fill="#FFFFFF" d="M12.829,24.923c-0.007-2.585,1.738-4.311,3.597-4.793
		c1.944-0.504,4.304,0.221,5.521,2.558c0.483-0.089,0.958-0.233,1.438-0.255c1.79-0.078,3.194,0.659,4.216,2.121
		c0.131,0.187,0.25,0.234,0.466,0.212c1.959-0.207,3.755,1.291,3.901,3.243c0.156,2.082-1.332,3.875-3.346,3.93
		c-2.01,0.054-4.022,0.024-6.034,0.025c-3.587,0.002-7.174,0.001-10.761,0c-1.74-0.001-3.114-0.919-3.604-2.463
		c-0.434-1.369-0.174-2.625,0.829-3.663c0.974-1.007,2.177-1.313,3.54-0.955c0.051,0.014,0.103,0.028,0.154,0.039
		C12.766,24.927,12.788,24.923,12.829,24.923z"/>
	<path fill-rule="evenodd" clip-rule="evenodd" fill="#FFFFFF" d="M24.729,8.104c-3.328,0.814-4.964,3.801-4.699,6.425
		c0.283,2.798,2.425,5.014,5.074,5.396c2.662,0.384,5.895-1.14,6.771-4.743c0.177,1.091,0.122,2.108-0.113,3.117
		c-0.353,1.507-1.08,2.811-2.148,3.926c-0.275,0.288-0.563,0.278-0.868-0.029c-0.984-0.99-2.144-1.687-3.513-1.965
		c-0.65-0.132-1.328-0.121-1.992-0.187c-0.125-0.012-0.275-0.052-0.358-0.135c-2.071-2.084-4.515-2.772-7.359-1.99
		c-0.04,0.011-0.082,0.016-0.176,0.033c-0.448-2.742,0.19-5.169,2.06-7.208C19.374,8.6,21.851,7.758,24.729,8.104z"/>
	<path fill-rule="evenodd" clip-rule="evenodd" fill="#FFFFFF" d="M8.417,10.404c1.068-0.274,1.73-0.928,1.996-2.106
		c0.282,1.151,0.923,1.836,2.022,2.098c-1.063,0.28-1.746,0.924-2.007,2.02C10.147,11.353,9.501,10.671,8.417,10.404z"/>
	<path fill-rule="evenodd" clip-rule="evenodd" fill="#FFFFFF" d="M29.268,12.847c-1.166,0.262-1.819,0.953-2.063,2.13
		c-0.236-1.19-0.91-1.871-2.114-2.146c1.2-0.277,1.884-0.954,2.1-2.092C27.736,12.166,27.883,12.316,29.268,12.847z"/>
	<path fill-rule="evenodd" clip-rule="evenodd" fill="#FFFFFF" d="M9.481,18.797c1.182-0.258,1.878-0.916,2.098-1.957
		c0.229,0.38,0.42,0.879,0.766,1.222c0.352,0.35,0.856,0.546,1.231,0.772c-0.423,0.072-0.922,0.264-1.252,0.686
		c-0.306,0.391-0.522,0.852-0.742,1.223C11.292,19.646,10.688,19.048,9.481,18.797z"/>
</g>
</svg>
