<?xml version="1.0" encoding="utf-8"?>
<!DOCTYPE svg PUBLIC "-//W3C//DTD SVG 1.1//EN" "http://www.w3.org/Graphics/SVG/1.1/DTD/svg11.dtd">
<svg version="1.1" xmlns="http://www.w3.org/2000/svg" xmlns:xlink="http://www.w3.org/1999/xlink" x="0px" y="0px" width="40px"
	 height="30px" viewBox="0 0 40 30" enable-background="new 0 0 40 30" xml:space="preserve">
<g id="pocet">
	<g>
		<path fill="#FFFFFF" d="M28,8c0,0.55-0.45,1-1,1h-8.68c-0.55,0-0.682,0.318-0.293,0.707l1.766,1.766
			c0.389,0.389,1.025,1.025,1.414,1.414l1.406,1.406c0.389,0.389,0.389,1.025,0,1.414l-1.406,1.406
			c-0.389,0.389-1.025,1.025-1.414,1.414l-1.766,1.766C17.638,20.682,17.77,21,18.32,21H27c0.55,0,1,0.45,1,1v2c0,0.55-0.45,1-1,1
			H12c-0.55,0-1-0.45-1-1v-1.32c0-0.55,0.153-1.153,0.34-1.34c0.188-0.187,0.659-0.658,1.047-1.047l4.586-4.586
			c0.389-0.389,0.389-1.025,0-1.414l-5.266-5.266C11.318,8.638,11,7.87,11,7.32V6c0-0.55,0.45-1,1-1h15c0.55,0,1,0.45,1,1V8z"/>
	</g>
</g>
</svg>
