<?xml version="1.0" encoding="utf-8"?>
<!DOCTYPE svg PUBLIC "-//W3C//DTD SVG 1.1//EN" "http://www.w3.org/Graphics/SVG/1.1/DTD/svg11.dtd">
<svg version="1.1" xmlns="http://www.w3.org/2000/svg" xmlns:xlink="http://www.w3.org/1999/xlink" x="0px" y="0px" width="40px"
	 height="30px" viewBox="0 0 40 30" enable-background="new 0 0 40 30" xml:space="preserve">
<g id="neabsolvovane">
	<g>
		<path fill="#FFFFFF" d="M35.77,14.36l-0.06-0.05L28.3,7.94l-0.59-0.5l-0.02-0.02C27.14,7.05,26.47,6.84,25.76,6.84
			c-1.92,0-3.47,1.55-3.47,3.47c0,0.06,0,0.12,0.01,0.18c-0.609-0.6-1.42-1.09-2.32-1.09c-0.92,0-1.74,0.51-2.36,1.13
			c0.01-0.07,0.01-0.15,0.01-0.22c0-1.92-1.55-3.47-3.47-3.47c-0.71,0-1.38,0.21-1.93,0.58l-0.02,0.02l-0.59,0.5l-7.41,6.37
			l-0.06,0.05C2.83,15.47,2,17.14,2,19c0,3.36,2.72,6.07,6.08,6.07c2.65,0,4.9-1.69,5.73-4.051l0.08-0.22l0.37-0.97
			c1.61-0.85,3.31-1.33,5.22-1.33c2.4,0,4.47,0.74,6.45,2.04l0.101,0.26l0.08,0.22c0.83,2.36,3.08,4.051,5.729,4.051
			c3.36,0,6.08-2.71,6.08-6.07C37.92,17.14,37.09,15.47,35.77,14.36z M12.31,19.99c-0.45,1.91-2.17,3.35-4.23,3.35
			c-2.4,0-4.34-1.95-4.34-4.34c0-1.5,0.76-2.83,1.91-3.61c0.69-0.46,1.53-0.74,2.43-0.74c2.4,0,4.34,1.95,4.34,4.35
			C12.42,19.33,12.38,19.66,12.31,19.99z M19.98,16.95c-0.96,0-1.74-0.771-1.74-1.73c0-0.96,0.78-1.74,1.74-1.74
			s1.74,0.78,1.74,1.74C21.72,16.18,20.94,16.95,19.98,16.95z M31.84,23.34c-2.06,0-3.78-1.439-4.229-3.35
			c-0.07-0.33-0.11-0.66-0.11-0.99c0-2.4,1.94-4.35,4.34-4.35c0.9,0,1.74,0.28,2.43,0.74c1.15,0.78,1.91,2.11,1.91,3.61
			C36.18,21.39,34.24,23.34,31.84,23.34z"/>
		<path fill="#FFFFFF" d="M18.223,7.931c0,0.217-0.035,0.434-0.087,0.625c-0.573-1.286-1.746-2.241-3.162-2.51
			c0.313-0.182,0.687-0.287,1.077-0.287C17.25,5.76,18.223,6.732,18.223,7.931z"/>
		<path fill="#FFFFFF" d="M21.696,7.931c0,0.217,0.036,0.434,0.088,0.625c0.573-1.286,1.746-2.241,3.16-2.51
			C24.633,5.864,24.26,5.76,23.867,5.76C22.67,5.76,21.696,6.732,21.696,7.931z"/>
	</g>
</g>
</svg>
