<?xml version="1.0" encoding="utf-8"?>
<!DOCTYPE svg PUBLIC "-//W3C//DTD SVG 1.1//EN" "http://www.w3.org/Graphics/SVG/1.1/DTD/svg11.dtd">
<svg version="1.1" xmlns="http://www.w3.org/2000/svg" xmlns:xlink="http://www.w3.org/1999/xlink" x="0px" y="0px" width="40px"
	 height="30px" viewBox="0 0 40 30" enable-background="new 0 0 40 30" xml:space="preserve">
<g id="autorstvi">
	<g>
		<path fill="#FFFFFF" d="M25.758,5.355L25.215,5.83l-1.633,1.426l4.753,5.439l1.632-1.426l0.544-0.475
			c0.599-0.522,0.661-1.44,0.137-2.038l-2.851-3.264C27.274,4.894,26.355,4.832,25.758,5.355z"/>
		<path fill="#FFFFFF" d="M21.949,8.682l-10.334,9.029l-1.225,2.988l-0.549,1.338l-0.064,0.157l-0.677,1.651
			c-0.3,0.735,0.082,1.173,0.851,0.973l1.729-0.448l0.164-0.043l1.399-0.363l3.126-0.813l10.335-9.029l0.544-0.476l-4.752-5.439
			L21.949,8.682z M15.835,22.542l-3.126,0.813l-0.419-0.48l-0.951-1.088l-0.419-0.48l1.226-2.988L15.835,22.542z M25.209,13.508
			l-8.705,7.604l-0.475-0.545l8.704-7.603L25.209,13.508z M22.832,10.789l-8.704,7.604l-0.475-0.545l8.704-7.603L22.832,10.789z"/>
	</g>
</g>
</svg>
