<?xml version="1.0" encoding="utf-8"?>
<!DOCTYPE svg PUBLIC "-//W3C//DTD SVG 1.1//EN" "http://www.w3.org/Graphics/SVG/1.1/DTD/svg11.dtd">
<svg version="1.1" xmlns="http://www.w3.org/2000/svg" xmlns:xlink="http://www.w3.org/1999/xlink" x="0px" y="0px" width="40px"
	 height="30px" viewBox="0 0 40 30" enable-background="new 0 0 40 30" xml:space="preserve">
<g id="dny">
	<g>
		<path fill="#FFFFFF" d="M16.059,5.484v3.153c0,0.289-0.29,0.525-0.658,0.525c-0.367,0-0.657-0.236-0.657-0.525V5.484
			c0-0.289,0.29-0.526,0.657-0.526C15.769,4.958,16.059,5.195,16.059,5.484z"/>
		<path fill="#FFFFFF" d="M25.256,5.484v3.153c0,0.289-0.289,0.525-0.656,0.525c-0.369,0-0.656-0.236-0.656-0.525V5.484
			c0-0.289,0.287-0.526,0.656-0.526C24.967,4.958,25.256,5.195,25.256,5.484z"/>
		<path fill="#FFFFFF" d="M26.57,6.535v2.103c0,1.014-0.885,1.839-1.971,1.839c-1.088,0-1.971-0.825-1.971-1.839V6.535h-5.256v2.103
			c0,1.014-0.884,1.839-1.972,1.839c-1.087,0-1.971-0.825-1.971-1.839V6.535c-1.45,0-2.628,1.179-2.628,2.627v13.14
			c0,1.448,1.178,2.628,2.628,2.628h13.14c1.447,0,2.627-1.18,2.627-2.628V9.163C29.197,7.714,28.018,6.535,26.57,6.535z
			 M27.885,22.303c0,0.722-0.592,1.314-1.314,1.314H13.43c-0.723,0-1.314-0.593-1.314-1.314V11.791h15.769V22.303z"/>
		<rect x="14.946" y="14.051" fill="#FFFFFF" width="2.628" height="2.628"/>
		<rect x="14.946" y="17.992" fill="#FFFFFF" width="2.628" height="2.628"/>
		<rect x="22.832" y="14.051" fill="#FFFFFF" width="2.627" height="2.628"/>
		<rect x="18.889" y="14.051" fill="#FFFFFF" width="2.628" height="2.628"/>
		<rect x="18.889" y="17.992" fill="#FFFFFF" width="2.628" height="2.628"/>
	</g>
</g>
</svg>
