<?xml version="1.0" encoding="utf-8"?>
<!DOCTYPE svg PUBLIC "-//W3C//DTD SVG 1.1//EN" "http://www.w3.org/Graphics/SVG/1.1/DTD/svg11.dtd">
<svg version="1.1" xmlns="http://www.w3.org/2000/svg" xmlns:xlink="http://www.w3.org/1999/xlink" x="0px" y="0px" width="40px"
	 height="30px" viewBox="0 0 40 30" enable-background="new 0 0 40 30" xml:space="preserve">
<g id="zname">
	<g>
		<path fill="#FFFFFF" d="M20,4.931C13.514,4.931,7.531,9.353,4.896,15C7.531,20.647,13.514,25.069,20,25.069
			S32.47,20.647,35.104,15C32.47,9.353,26.486,4.931,20,4.931z M20,22.552c-4.17,0-7.552-3.381-7.552-7.552
			c0-4.17,3.381-7.552,7.552-7.552c4.171,0,7.552,3.381,7.552,7.552C27.552,19.171,24.171,22.552,20,22.552z"/>
		<path fill="#FFFFFF" d="M23.69,13.044c-0.246,0.884-1.05,1.537-2.013,1.537c-1.158,0-2.097-0.939-2.097-2.098
			c0-0.667,0.317-1.255,0.803-1.64c-0.128-0.011-0.252-0.038-0.384-0.038c-2.317,0-4.195,1.878-4.195,4.195
			c0,2.317,1.878,4.195,4.195,4.195c2.317,0,4.195-1.878,4.195-4.195C24.195,14.29,24.002,13.63,23.69,13.044z"/>
	</g>
</g>
</svg>
