<?xml version="1.0" encoding="utf-8"?>
<!DOCTYPE svg PUBLIC "-//W3C//DTD SVG 1.1//EN" "http://www.w3.org/Graphics/SVG/1.1/DTD/svg11.dtd">
<svg version="1.1" xmlns="http://www.w3.org/2000/svg" xmlns:xlink="http://www.w3.org/1999/xlink" x="0px" y="0px" width="40px"
	 height="30px" viewBox="0 0 40 30" enable-background="new 0 0 40 30" xml:space="preserve">
<g id="km">
	<path fill="#FFFFFF" d="M28.802,5.208l-21.9,11.455c-0.753,0.394-1.047,1.331-0.653,2.085l2.864,5.475
		c0.394,0.753,1.332,1.047,2.085,0.653l21.9-11.455c0.752-0.394,1.047-1.332,0.652-2.085L30.887,5.86
		C30.493,5.108,29.555,4.814,28.802,5.208z M10.418,20.052c0.197,0.377,0.05,0.846-0.326,1.043c-0.377,0.196-0.846,0.05-1.042-0.327
		l-1.432-2.736c-0.197-0.377-0.05-0.846,0.327-1.043c0.375-0.196,0.845-0.05,1.042,0.327L10.418,20.052z M12.471,18.979
		l-0.684,0.357L10.355,16.6l0.684-0.358L12.471,18.979z M14.524,17.905l-0.684,0.357l-1.431-2.737l0.684-0.358L14.524,17.905z
		 M17.262,16.473c0.197,0.377,0.05,0.846-0.327,1.042c-0.376,0.198-0.846,0.05-1.042-0.325l-1.433-2.738
		c-0.197-0.376-0.05-0.845,0.327-1.042c0.375-0.197,0.846-0.05,1.042,0.327L17.262,16.473z M19.315,15.399l-0.684,0.357
		l-1.432-2.737l0.684-0.358L19.315,15.399z M21.368,14.325l-0.684,0.358l-1.432-2.737l0.684-0.358L21.368,14.325z M24.106,12.894
		c0.196,0.376,0.049,0.846-0.327,1.042s-0.846,0.05-1.042-0.327l-1.432-2.738c-0.197-0.376-0.051-0.845,0.326-1.042
		c0.376-0.197,0.846-0.05,1.043,0.327L24.106,12.894z M26.159,11.82l-0.685,0.358L24.043,9.44l0.685-0.358L26.159,11.82z
		 M28.212,10.746l-0.684,0.358l-1.432-2.738l0.684-0.358L28.212,10.746z M30.95,9.314c0.196,0.376,0.05,0.846-0.327,1.042
		c-0.376,0.197-0.846,0.05-1.042-0.327l-1.432-2.737c-0.197-0.376-0.051-0.846,0.326-1.042c0.376-0.197,0.846-0.05,1.043,0.326
		L30.95,9.314z"/>
</g>
</svg>
