<?xml version="1.0" encoding="utf-8"?>
<!DOCTYPE svg PUBLIC "-//W3C//DTD SVG 1.1//EN" "http://www.w3.org/Graphics/SVG/1.1/DTD/svg11.dtd">
<svg version="1.1" id="transport" xmlns="http://www.w3.org/2000/svg" xmlns:xlink="http://www.w3.org/1999/xlink" x="0px" y="0px"
	 width="30px" height="30px" viewBox="0 0 30 30" enable-background="new 0 0 30 30" xml:space="preserve">
<path fill="#FFFFFF" d="M22.648,10.301c-2.463-4.892-3.462-4.585-3.861-4.585h-7.572c-0.427,0-1.177-0.304-3.821,4.57
	C6.061,10.889,5,12.386,5,13.807v2.838c0,1.59,0,2.947,2.857,3.274v3.081c0,0.712,0.553,1.286,1.429,1.286
	c0.874,0,1.428-0.574,1.428-1.282v-3.003h8.572v3.003c0,0.708,0.555,1.282,1.428,1.282c0.869,0,1.43-0.574,1.43-1.282v-3.081
	C25,19.595,25,18.235,25,16.648v-2.84C25,12.402,23.958,10.919,22.648,10.301z M11.4,7.144h7.257c0.403,0,1.212,1.327,2.023,2.857
	H9.396C10.22,8.485,11.019,7.144,11.4,7.144z M9.015,16.528c-1.143,0-2.068-0.923-2.068-2.067c0-1.142,0.925-2.068,2.068-2.068
	s2.068,0.926,2.068,2.068C11.084,15.605,10.157,16.528,9.015,16.528z M20.986,16.528c-1.145,0-2.069-0.923-2.069-2.067
	c0-1.142,0.925-2.068,2.069-2.068c1.143,0,2.068,0.926,2.068,2.068C23.055,15.605,22.129,16.528,20.986,16.528z"/>
</svg>
