<?xml version="1.0" encoding="utf-8"?>
<!DOCTYPE svg PUBLIC "-//W3C//DTD SVG 1.1//EN" "http://www.w3.org/Graphics/SVG/1.1/DTD/svg11.dtd">
<svg version="1.1" xmlns="http://www.w3.org/2000/svg" xmlns:xlink="http://www.w3.org/1999/xlink" x="0px" y="0px" width="40px"
	 height="30px" viewBox="0 0 40 30" enable-background="new 0 0 40 30" xml:space="preserve">
<g>
	<path fill-rule="evenodd" clip-rule="evenodd" fill="#FFFFFF" d="M21.517,5c0.022,0.06,0.075,0.043,0.115,0.04
		c0.388-0.025,0.774,0.016,1.158,0.048c0.604,0.051,1.209,0.11,1.812,0.176c0.621,0.069,1.239,0.16,1.857,0.25
		c0.588,0.086,1.17,0.23,1.758,0.328c0.423,0.071,0.811,0.2,1.144,0.479c0.511,0.43,0.834,0.957,0.859,1.639
		c0.007,0.219-0.004,0.44,0.002,0.66c0.002,0.101-0.016,0.149-0.134,0.149c-0.586,0-1.165,0.596-1.157,1.197
		c0.021,1.548,0.013,3.097,0.005,4.645c-0.004,0.565,0.49,1.139,1.099,1.157c0.133,0.003,0.189,0.049,0.188,0.195
		c-0.004,1.49,0.009,2.98-0.009,4.469c-0.007,0.472-0.24,0.876-0.548,1.229c-0.404,0.468-0.93,0.696-1.529,0.788
		c-0.264,0.039-0.523,0.105-0.784,0.15c-0.068,0.012-0.092,0.036-0.085,0.098c0.067,0.61-0.151,1.132-0.559,1.559
		c-0.372,0.392-0.845,0.612-1.404,0.644c-0.636,0.038-1.188-0.152-1.649-0.576c-0.289-0.266-0.486-0.606-0.575-0.994
		c-0.028-0.129-0.052-0.159-0.199-0.155c-0.277,0.009-0.552,0.039-0.828,0.053c-1.124,0.061-2.249,0.042-3.374,0.031
		c-0.634-0.006-1.269-0.066-1.901-0.115c-0.175-0.013-0.235,0.047-0.28,0.209c-0.232,0.821-0.772,1.334-1.609,1.503
		c-0.816,0.165-1.525-0.059-2.08-0.686c-0.384-0.437-0.541-0.962-0.498-1.543c0.005-0.063,0.02-0.09-0.067-0.106
		c-0.273-0.051-0.545-0.111-0.814-0.185c-0.741-0.201-1.205-0.705-1.494-1.393c-0.123-0.295-0.156-0.603-0.155-0.919
		c0.002-1.341,0.004-2.682-0.004-4.022c-0.001-0.185,0.081-0.225,0.233-0.234c0.585-0.033,1.093-0.575,1.093-1.164
		c0.001-1.562,0.003-3.123-0.001-4.684C11.1,9.366,10.608,8.815,9.979,8.772c-0.149-0.01-0.2-0.044-0.201-0.2
		c-0.005-0.516,0.01-1.023,0.269-1.491c0.37-0.673,0.919-1.09,1.683-1.225c0.681-0.12,1.359-0.261,2.041-0.377
		c0.414-0.071,0.833-0.113,1.25-0.166c0.404-0.052,0.809-0.106,1.214-0.15c0.171-0.018,0.345-0.03,0.517-0.039
		c0.559-0.027,1.115-0.105,1.676-0.084c0.036,0.001,0.081,0.01,0.096-0.041C19.521,5,20.519,5,21.517,5z M22.174,12.206
		c0,0.55,0,1.101,0.001,1.65c0,0.179,0.005,0.357,0.036,0.537c0.123,0.733,0.779,1.448,1.642,1.421
		c0.788-0.025,1.58-0.009,2.37-0.003c0.426,0.002,0.785-0.162,1.081-0.45c0.372-0.363,0.543-0.827,0.549-1.341
		c0.009-1.087,0.003-2.175,0.001-3.262c0-0.212-0.004-0.421-0.031-0.634c-0.104-0.819-0.785-1.51-1.694-1.511
		c-0.744,0-1.488,0-2.233,0c-0.167,0-0.33,0.03-0.489,0.071c-0.776,0.201-1.221,0.991-1.229,1.677
		C22.169,10.976,22.174,11.59,22.174,12.206z M21.13,12.222c0-0.239,0.007-0.479-0.001-0.719c-0.017-0.509,0.056-1.021-0.039-1.527
		c-0.136-0.722-0.738-1.355-1.569-1.363c-0.732-0.005-1.464-0.006-2.195,0.001c-0.461,0.005-0.866,0.171-1.168,0.523
		c-0.312,0.364-0.47,0.8-0.473,1.28c-0.005,1.16,0,2.319-0.002,3.479c0,0.302,0.052,0.591,0.153,0.878
		c0.181,0.518,0.84,1.074,1.468,1.043c0.775-0.038,1.554-0.009,2.331-0.009c0.058,0,0.118,0.006,0.174-0.006
		c0.817-0.158,1.303-0.926,1.318-1.618C21.142,13.53,21.13,12.876,21.13,12.222z M14.64,12.21c0-0.771-0.01-1.541,0.003-2.31
		c0.01-0.593-0.271-0.977-0.791-1.212c-0.409-0.184-1.104-0.024-1.373,0.314c-0.227,0.284-0.335,0.605-0.334,0.971
		c0.004,1.514,0.002,3.029,0.002,4.544c0,0.845,0.767,1.453,1.573,1.253c0.492-0.122,0.934-0.641,0.924-1.152
		C14.628,13.816,14.64,13.014,14.64,12.21z"/>
</g>
</svg>
