<?xml version="1.0" encoding="utf-8"?>
<!DOCTYPE svg PUBLIC "-//W3C//DTD SVG 1.1//EN" "http://www.w3.org/Graphics/SVG/1.1/DTD/svg11.dtd">
<svg version="1.1" id="Vrstva_1" xmlns="http://www.w3.org/2000/svg" xmlns:xlink="http://www.w3.org/1999/xlink" x="0px" y="0px"
	 width="30px" height="30px" viewBox="0 0 30 30" enable-background="new 0 0 30 30" xml:space="preserve">
<g>
	<path fill="#FFFFFF" d="M24.392,15.002c0-0.368,0.262-0.677,0.608-0.747c-0.027-0.38-0.076-0.752-0.145-1.118
		c-0.355,0.02-0.688-0.208-0.783-0.566c-0.095-0.357,0.078-0.722,0.397-0.881c-0.124-0.356-0.265-0.705-0.43-1.042
		c-0.337,0.115-0.72-0.021-0.905-0.342c-0.184-0.32-0.111-0.719,0.156-0.954c-0.213-0.313-0.442-0.609-0.688-0.894
		c-0.296,0.194-0.699,0.163-0.956-0.097c-0.263-0.262-0.296-0.663-0.102-0.96c-0.283-0.244-0.581-0.475-0.891-0.688
		c-0.236,0.267-0.634,0.34-0.955,0.156c-0.319-0.187-0.456-0.568-0.342-0.907c-0.335-0.163-0.684-0.308-1.04-0.432
		c-0.157,0.319-0.525,0.493-0.883,0.397c-0.358-0.098-0.587-0.43-0.565-0.786C16.502,5.076,16.128,5.028,15.749,5
		C15.677,5.348,15.368,5.607,15,5.607c-0.367,0-0.677-0.26-0.748-0.607c-0.378,0.028-0.75,0.076-1.117,0.144
		c0.022,0.356-0.208,0.688-0.566,0.785c-0.356,0.095-0.723-0.079-0.881-0.398c-0.356,0.125-0.703,0.266-1.042,0.428
		c0.115,0.341-0.021,0.723-0.341,0.908C9.984,7.052,9.586,6.979,9.351,6.712C9.042,6.925,8.743,7.154,8.458,7.4
		C8.652,7.696,8.621,8.098,8.36,8.358C8.098,8.62,7.696,8.652,7.4,8.458C7.155,8.742,6.926,9.039,6.712,9.35
		c0.267,0.236,0.34,0.633,0.156,0.954C6.683,10.625,6.3,10.76,5.961,10.645c-0.163,0.337-0.304,0.685-0.429,1.042
		c0.318,0.158,0.493,0.524,0.397,0.882c-0.096,0.356-0.428,0.587-0.785,0.564C5.077,13.499,5.028,13.872,5,14.251
		c0.348,0.072,0.608,0.38,0.608,0.747c0,0.369-0.261,0.678-0.608,0.749c0.028,0.379,0.075,0.751,0.144,1.116
		c0.356-0.021,0.689,0.21,0.785,0.567c0.095,0.359-0.079,0.723-0.397,0.882c0.125,0.356,0.266,0.706,0.429,1.041
		c0.339-0.113,0.722,0.021,0.906,0.342c0.185,0.321,0.112,0.719-0.156,0.956c0.212,0.311,0.443,0.606,0.689,0.892
		c0.296-0.194,0.698-0.162,0.958,0.097c0.261,0.262,0.293,0.665,0.098,0.96c0.285,0.245,0.583,0.475,0.892,0.687
		c0.236-0.265,0.633-0.34,0.954-0.155c0.32,0.187,0.456,0.568,0.342,0.907c0.336,0.161,0.686,0.304,1.042,0.43
		c0.158-0.319,0.523-0.493,0.882-0.398c0.356,0.096,0.587,0.43,0.564,0.784c0.366,0.069,0.739,0.117,1.119,0.145
		c0.072-0.347,0.379-0.608,0.747-0.608c0.369,0.002,0.677,0.263,0.749,0.609c0.378-0.027,0.751-0.075,1.117-0.145
		c-0.021-0.355,0.208-0.688,0.565-0.784c0.357-0.094,0.722,0.08,0.881,0.397c0.358-0.123,0.708-0.265,1.042-0.43
		c-0.113-0.337,0.021-0.72,0.343-0.905c0.321-0.184,0.718-0.111,0.954,0.157c0.312-0.214,0.608-0.442,0.893-0.688
		c-0.195-0.295-0.161-0.698,0.098-0.958c0.262-0.26,0.664-0.294,0.96-0.098c0.246-0.287,0.476-0.584,0.686-0.893
		c-0.264-0.236-0.338-0.636-0.156-0.954c0.187-0.321,0.571-0.456,0.908-0.342c0.162-0.337,0.305-0.686,0.431-1.04
		c-0.318-0.16-0.494-0.527-0.397-0.884c0.094-0.357,0.429-0.586,0.783-0.565c0.068-0.367,0.117-0.74,0.145-1.118
		C24.653,15.679,24.392,15.371,24.392,15.002z M15,23.421c-4.652,0-8.42-3.771-8.42-8.421c0-4.651,3.768-8.42,8.42-8.42
		c4.65,0,8.421,3.769,8.421,8.42C23.421,19.65,19.65,23.421,15,23.421z"/>
</g>
<g>
	<g>
		<path fill="#FFFFFF" d="M14.021,13.292c0.436,1.246,1.319,2.286,2.454,2.929l3.148-5.844L14.021,13.292z"/>
		<path fill="#FFFFFF" d="M13.56,13.821l-3.06,5.678l5.479-2.851C14.905,15.988,14.052,14.999,13.56,13.821z"/>
	</g>
</g>
</svg>
