<?xml version="1.0" encoding="utf-8"?>
<!DOCTYPE svg PUBLIC "-//W3C//DTD SVG 1.1//EN" "http://www.w3.org/Graphics/SVG/1.1/DTD/svg11.dtd">
<svg version="1.1" xmlns="http://www.w3.org/2000/svg" xmlns:xlink="http://www.w3.org/1999/xlink" x="0px" y="0px" width="40px"
	 height="30px" viewBox="0 0 40 30" enable-background="new 0 0 40 30" xml:space="preserve">
<g>
	<g>
		<path fill="#FFFFFF" d="M29.393,15.001c0-0.368,0.262-0.677,0.607-0.747c-0.027-0.38-0.076-0.752-0.145-1.118
			c-0.355,0.02-0.688-0.208-0.783-0.566c-0.096-0.357,0.078-0.722,0.396-0.881c-0.123-0.356-0.265-0.705-0.43-1.042
			c-0.337,0.115-0.721-0.021-0.905-0.342c-0.184-0.32-0.11-0.719,0.156-0.954c-0.213-0.313-0.442-0.609-0.688-0.894
			c-0.295,0.194-0.699,0.163-0.955-0.097c-0.264-0.262-0.297-0.663-0.103-0.96c-0.283-0.244-0.581-0.475-0.892-0.688
			c-0.235,0.267-0.633,0.34-0.954,0.156c-0.319-0.187-0.456-0.568-0.343-0.907c-0.334-0.163-0.684-0.308-1.039-0.432
			c-0.157,0.319-0.525,0.493-0.883,0.397c-0.358-0.098-0.588-0.43-0.565-0.786C21.502,5.076,21.128,5.027,20.749,5
			C20.677,5.348,20.368,5.606,20,5.606c-0.367,0-0.677-0.26-0.748-0.607c-0.378,0.028-0.75,0.076-1.117,0.144
			c0.022,0.356-0.208,0.688-0.566,0.785c-0.356,0.095-0.723-0.079-0.881-0.398c-0.356,0.125-0.703,0.266-1.042,0.428
			c0.115,0.341-0.021,0.723-0.341,0.908c-0.321,0.185-0.719,0.112-0.954-0.155c-0.309,0.213-0.608,0.442-0.893,0.688
			c0.194,0.296,0.163,0.698-0.098,0.958c-0.262,0.262-0.664,0.294-0.96,0.1c-0.245,0.284-0.474,0.581-0.688,0.892
			c0.267,0.236,0.34,0.633,0.156,0.954c-0.185,0.321-0.568,0.456-0.907,0.341c-0.163,0.337-0.304,0.685-0.429,1.042
			c0.318,0.158,0.493,0.524,0.397,0.882c-0.096,0.356-0.428,0.587-0.785,0.564c-0.067,0.366-0.116,0.739-0.144,1.118
			c0.348,0.072,0.608,0.38,0.608,0.747c0,0.369-0.261,0.678-0.608,0.749c0.028,0.378,0.075,0.751,0.144,1.117
			c0.356-0.021,0.689,0.209,0.785,0.566c0.095,0.359-0.079,0.723-0.397,0.883c0.125,0.355,0.266,0.705,0.429,1.041
			c0.339-0.113,0.722,0.02,0.906,0.342c0.185,0.32,0.112,0.719-0.156,0.955c0.212,0.311,0.443,0.605,0.689,0.893
			c0.296-0.193,0.698-0.162,0.958,0.098c0.261,0.262,0.293,0.664,0.098,0.959c0.285,0.246,0.583,0.475,0.892,0.688
			c0.236-0.266,0.633-0.34,0.954-0.156c0.32,0.188,0.456,0.568,0.342,0.908c0.336,0.16,0.686,0.303,1.042,0.43
			c0.158-0.318,0.523-0.492,0.882-0.398c0.356,0.096,0.587,0.43,0.564,0.785c0.366,0.068,0.739,0.117,1.119,0.145
			c0.072-0.348,0.379-0.607,0.747-0.607c0.369,0.002,0.677,0.262,0.749,0.607c0.378-0.025,0.751-0.074,1.117-0.145
			c-0.021-0.355,0.208-0.688,0.565-0.783c0.356-0.094,0.721,0.08,0.881,0.396c0.357-0.123,0.707-0.266,1.041-0.43
			c-0.112-0.338,0.021-0.721,0.344-0.906c0.32-0.184,0.718-0.109,0.953,0.158c0.313-0.215,0.608-0.441,0.894-0.688
			c-0.194-0.295-0.161-0.699,0.099-0.959c0.262-0.26,0.664-0.293,0.959-0.098c0.246-0.287,0.477-0.584,0.687-0.893
			c-0.265-0.236-0.338-0.637-0.156-0.955c0.187-0.32,0.571-0.455,0.908-0.342c0.162-0.336,0.305-0.686,0.431-1.039
			c-0.318-0.16-0.494-0.527-0.396-0.885c0.094-0.357,0.429-0.586,0.783-0.564c0.067-0.367,0.117-0.74,0.145-1.119
			C29.652,15.679,29.393,15.371,29.393,15.001z M20,23.42c-4.652,0-8.42-3.77-8.42-8.42S15.348,6.58,20,6.58
			c4.65,0,8.421,3.769,8.421,8.42S24.65,23.42,20,23.42z"/>
	</g>
	<g>
		<g>
			<path fill="#FFFFFF" d="M18.959,13.354c0.436,1.246,1.319,2.286,2.454,2.929l3.148-5.844L18.959,13.354z"/>
			<path fill="#FFFFFF" d="M18.499,13.883l-3.06,5.678l5.479-2.85C19.843,16.051,18.99,15.061,18.499,13.883z"/>
		</g>
	</g>
</g>
</svg>
