<?xml version="1.0" encoding="utf-8"?>
<!DOCTYPE svg PUBLIC "-//W3C//DTD SVG 1.1//EN" "http://www.w3.org/Graphics/SVG/1.1/DTD/svg11.dtd">
<svg version="1.1" xmlns="http://www.w3.org/2000/svg" xmlns:xlink="http://www.w3.org/1999/xlink" x="0px" y="0px" width="40px"
	 height="30px" viewBox="0 0 40 30" enable-background="new 0 0 40 30" xml:space="preserve">
<g>
	<path fill-rule="evenodd" clip-rule="evenodd" fill="#FFFFFF" d="M29.536,11.697c-0.143,1.52-0.369,3.729-0.552,5.941
		c-0.085,1.027-0.081,2.061-0.125,3.093c-0.024,0.534-0.127,1.054-0.334,1.55c-0.156,0.373-0.28,0.804-0.784,0.826
		c-0.461,0.02-0.617-0.374-0.796-0.695c-0.714-1.286-1.03-2.673-1.052-4.14c-0.018-1.188-0.055-2.375-0.105-3.562
		c-0.008-0.2,0.027-0.483-0.206-0.581c-0.256-0.109-0.375,0.164-0.522,0.306c-1.019,0.976-2.1,1.877-3.261,2.675
		c-1.176,0.808-1.792,0.62-2.262-0.712c-0.398-1.126-0.903-2.195-1.499-3.226c-0.12-0.208-0.204-0.554-0.476-0.516
		c-0.332,0.046-0.294,0.424-0.333,0.682c-0.45,2.98-1.254,5.844-2.411,8.643c-0.769,1.861-2.169,2.527-3.915,2.914
		c-0.583,0.13-0.492-0.186-0.368-0.506c0.261-0.67,0.545-1.329,0.826-1.99c1.726-4.056,2.96-8.235,3.159-12.667
		c0.043-0.966-0.02-1.938-0.053-2.907c-0.048-1.42,0.982-2.137,2.339-1.617c0.816,0.313,1.291,0.965,1.665,1.704
		c0.988,1.953,1.868,3.958,2.653,6c0.255,0.666,0.464,0.761,0.999,0.265c1.705-1.584,3.315-3.236,4.203-5.449
		c0.104-0.257,0.169-0.559,0.578-0.352C28.435,8.147,29.732,8.874,29.536,11.697z"/>
</g>
</svg>
