<?xml version="1.0" encoding="utf-8"?>
<!DOCTYPE svg PUBLIC "-//W3C//DTD SVG 1.1//EN" "http://www.w3.org/Graphics/SVG/1.1/DTD/svg11.dtd">
<svg version="1.1" id="Vrstva_1" xmlns="http://www.w3.org/2000/svg" xmlns:xlink="http://www.w3.org/1999/xlink" x="0px" y="0px"
	 width="40px" height="30px" viewBox="0 0 40 30" enable-background="new 0 0 40 30" xml:space="preserve">
<g>
	<path fill="#FFFFFF" d="M27.464,18.672V8.491c0-1.915-1.553-3.467-3.467-3.467h-7.992c-1.913,0-3.467,1.552-3.467,3.467v10.181
		c0,1.821-0.263,3.299,1.359,3.439v1.746c0,0.617,0.613,1.117,1.368,1.117h0.8c0.755,0,1.368-0.5,1.368-1.117v-1.719h5.105v1.719
		c0,0.617,0.614,1.117,1.368,1.117h0.8c0.756,0,1.368-0.5,1.368-1.117v-1.745C27.706,21.976,27.464,20.496,27.464,18.672z
		 M16.957,6.152h6.089v1.296h-6.089V6.152z M15.665,20.654c-0.718,0-1.3-0.582-1.3-1.301c0-0.717,0.582-1.299,1.3-1.299
		s1.3,0.582,1.3,1.299C16.965,20.072,16.383,20.654,15.665,20.654z M24.307,20.654c-0.719,0-1.301-0.582-1.301-1.301
		c0-0.717,0.582-1.299,1.301-1.299c0.717,0,1.299,0.582,1.299,1.299C25.605,20.072,25.023,20.654,24.307,20.654z M25.605,16.254
		H14.364v-7.58h11.241V16.254z"/>
	<path fill="#FFFFFF" d="M11.151,8.462h-0.218c-0.756,0-1.369,0.613-1.369,1.369v2.381c0,0.756,0.613,1.369,1.369,1.369h0.218
		V8.462z"/>
	<path fill="#FFFFFF" d="M29.064,8.462H28.85v5.119h0.215c0.756,0,1.369-0.613,1.369-1.369V9.831
		C30.434,9.075,29.82,8.462,29.064,8.462z"/>
</g>
</svg>
