<?xml version="1.0" encoding="utf-8"?>
<!DOCTYPE svg PUBLIC "-//W3C//DTD SVG 1.1//EN" "http://www.w3.org/Graphics/SVG/1.1/DTD/svg11.dtd">
<svg version="1.1" id="mapy" xmlns="http://www.w3.org/2000/svg" xmlns:xlink="http://www.w3.org/1999/xlink" x="0px" y="0px"
	 width="30px" height="30px" viewBox="0 0 30 30" enable-background="new 0 0 30 30" xml:space="preserve">
<path fill="#FFFFFF" d="M24.591,11.696c-0.144,1.528-0.37,3.751-0.555,5.975c-0.085,1.033-0.082,2.071-0.125,3.11
	c-0.023,0.537-0.127,1.061-0.336,1.559c-0.157,0.375-0.282,0.81-0.787,0.83c-0.465,0.02-0.623-0.376-0.802-0.7
	c-0.717-1.292-1.036-2.688-1.059-4.161c-0.018-1.195-0.055-2.389-0.105-3.583c-0.009-0.201,0.027-0.486-0.207-0.584
	c-0.259-0.109-0.378,0.165-0.525,0.307c-1.024,0.982-2.112,1.889-3.281,2.691c-1.182,0.814-1.801,0.624-2.274-0.716
	c-0.4-1.131-0.908-2.207-1.507-3.244c-0.121-0.209-0.206-0.557-0.479-0.519c-0.333,0.047-0.295,0.427-0.334,0.685
	c-0.452,2.997-1.262,5.876-2.425,8.691c-0.774,1.872-2.181,2.543-3.937,2.933c-0.586,0.129-0.495-0.188-0.37-0.509
	c0.262-0.676,0.547-1.339,0.831-2.003c1.736-4.078,2.978-8.281,3.178-12.739C9.533,8.747,9.47,7.77,9.437,6.795
	c-0.048-1.428,0.987-2.148,2.352-1.625c0.821,0.315,1.298,0.97,1.673,1.713c0.995,1.964,1.879,3.981,2.668,6.034
	c0.258,0.669,0.467,0.765,1.005,0.266c1.716-1.594,3.335-3.254,4.227-5.48c0.104-0.259,0.17-0.562,0.582-0.354
	C23.483,8.125,24.789,8.856,24.591,11.696z"/>
</svg>
